<svg width="74" height="30" viewBox="0 0 74 30" fill="none" xmlns="http://www.w3.org/2000/svg">
<g clip-path="url(#clip0)">
<path d="M9.2189 19.2712H4.46121L3.29302 22.0589H0.5L6.96749 7.27539H7.09493L13.5412 22.0589H10.2809L9.2189 19.2712ZM8.27373 16.8952L6.89315 13.4317L5.44885 16.8952H8.27373Z" fill="#54575A"/>
<path d="M22.0368 10.2213C21.5286 10.1842 21.0211 10.3021 20.5819 10.5592C20.4033 10.6882 20.2614 10.8611 20.1701 11.0611C20.0789 11.261 20.0415 11.481 20.0616 11.6997C20.0743 11.9446 20.1504 12.1822 20.2825 12.3894C20.4145 12.5966 20.5982 12.7664 20.8156 12.8823C21.4374 13.291 22.1081 13.6209 22.8121 13.8644C23.4231 14.079 24.0075 14.3624 24.5537 14.7092C25.0478 15.0471 25.4551 15.4956 25.7432 16.0186C26.0806 16.6703 26.2416 17.3981 26.2104 18.1305C26.2156 18.874 26.0049 19.6032 25.6037 20.2307C25.2025 20.8581 24.6277 21.3572 23.9484 21.668C23.1241 22.0594 22.2171 22.2477 21.3041 22.2171C20.4471 22.2178 19.595 22.0897 18.7766 21.8369C17.931 21.5932 17.1337 21.2075 16.4189 20.6965L17.7146 18.5001C18.2299 18.8776 18.799 19.1766 19.4031 19.3871C19.9513 19.6051 20.5335 19.7266 21.1235 19.7461C21.6685 19.7585 22.2071 19.6274 22.6847 19.366C22.8982 19.2372 23.0705 19.0506 23.1814 18.8281C23.2924 18.6056 23.3374 18.3564 23.3112 18.1094C23.3112 17.3808 22.6209 16.7472 21.1873 16.2192C20.485 15.9527 19.8005 15.6423 19.1376 15.2899C18.5738 14.9835 18.0872 14.5538 17.7146 14.0333C17.295 13.4104 17.0866 12.6704 17.1199 11.9214C17.1052 11.3708 17.2083 10.8234 17.4226 10.3155C17.6368 9.80758 17.9571 9.35074 18.3624 8.97527C19.2526 8.17899 20.4041 7.73229 21.6014 7.71867C22.5033 7.7 23.4026 7.82113 24.267 8.0777C25.0192 8.33399 25.7335 8.68913 26.391 9.13366L25.329 11.2456C24.3357 10.6343 23.2034 10.282 22.0368 10.2213Z" fill="#54575A"/>
<path d="M39.6343 7.80371V10.5598H36.151V22.0593H33.3155V10.5598H29.9702V7.80371H39.6343Z" fill="#54575A"/>
<path d="M44.2642 10.5598V7.80371H54.0557V10.5598H44.2642ZM44.2642 16.3148V13.5587H53.291V16.2726L44.2642 16.3148ZM47.089 19.3982H54.3212V22.1015H44.2642V19.356L47.089 19.3982Z" fill="#54575A"/>
<path d="M73.8087 22.0587H67.1713C66.6756 22.1641 66.1701 22.2172 65.6633 22.2171C64.3797 22.2269 63.1174 21.8912 62.01 21.2456C61.1799 20.7689 60.4525 20.1341 59.8692 19.3777C59.2859 18.6213 58.8583 17.758 58.6107 16.8371C58.3632 15.9163 58.3006 14.9559 58.4265 14.011C58.5524 13.0661 58.8643 12.1551 59.3444 11.3301C59.9848 10.2219 60.9032 9.29781 62.01 8.64793C63.1153 7.99437 64.3774 7.64941 65.6633 7.64941C66.9492 7.64941 68.2113 7.99437 69.3165 8.64793C70.4294 9.30066 71.3575 10.2235 72.0139 11.3301C72.5455 12.2147 72.8769 13.2038 72.9851 14.2287C73.0933 15.2535 72.9757 16.2895 72.6405 17.2646C72.395 17.9979 72.0367 18.6889 71.5785 19.3132H73.8618V22.0587H73.8087ZM61.872 17.2329C62.2627 17.9114 62.8222 18.4787 63.4968 18.8802C64.1801 19.297 64.968 19.5129 65.7695 19.5033C66.5466 19.5053 67.3085 19.2894 67.9678 18.8802C68.6217 18.4735 69.1594 17.9062 69.5289 17.2329C69.8989 16.529 70.092 15.7464 70.0917 14.9521C70.0911 14.1553 69.8904 13.3712 69.5076 12.6712C69.1397 12.0064 68.6016 11.45 67.948 11.0584C67.2943 10.6667 66.5482 10.4537 65.7852 10.4409C65.0221 10.428 64.2692 10.6158 63.6025 10.9852C62.9359 11.3545 62.3792 11.8924 61.9888 12.5444C61.9601 12.5843 61.9352 12.6267 61.9145 12.6712C61.522 13.3674 61.3206 14.154 61.3304 14.9521C61.3061 15.7465 61.4929 16.5332 61.872 17.2329Z" fill="#54575A"/>
</g>
<defs>
<clipPath id="clip0">
<rect width="73" height="30" fill="white" transform="translate(0.5)"/>
</clipPath>
</defs>
</svg>
