<svg width="21" height="21" viewBox="0 0 21 21" fill="none" xmlns="http://www.w3.org/2000/svg">
<g clip-path="url(#clip0)">
<path d="M18.757 11.6845L16.3045 10.6816C16.0931 10.5951 15.8724 10.5447 15.6468 10.5303C16.4341 9.74493 16.8585 8.79777 16.8585 7.79417C16.8585 6.97029 16.6766 6.14985 16.3405 5.40477C17.8937 4.4074 18.1444 2.2245 16.8312 0.878895C16.2781 0.312136 15.5448 0 14.7664 0C13.4587 0 12.3268 0.90798 11.9706 2.13474C11.0332 1.9684 9.96879 1.96811 9.02967 2.13474C8.67352 0.90798 7.5416 0 6.23386 0C5.45547 0 4.72216 0.312136 4.16906 0.878895C2.85562 2.2247 3.10655 4.40744 4.65976 5.40477C4.32367 6.14985 4.14174 6.97029 4.14174 7.79417C4.14174 8.79777 4.56615 9.74493 5.35349 10.5303C5.12787 10.5447 4.90721 10.5951 4.69603 10.6815L2.24328 11.6845C1.17503 12.1215 0.661354 13.3458 1.09807 14.4136C1.48192 15.3529 2.45996 15.8594 3.4209 15.679C2.96966 16.4819 2.92269 17.4874 3.14765 18.3773C3.74961 20.7582 6.00561 21.7498 7.35979 20.3735C8.16193 20.5506 9.17431 20.634 10.5001 20.634C11.826 20.634 12.8384 20.5506 13.6405 20.3735C14.4888 21.2357 15.7189 21.1761 16.6518 20.3856C17.9374 19.2963 18.3894 17.1202 17.5794 15.679C18.5396 15.8593 19.5182 15.3535 19.9021 14.4138C20.3389 13.3458 19.8252 12.1215 18.757 11.6845ZM14.7664 1.23066C15.6781 1.23066 16.4483 2.01968 16.4483 2.95358C16.4483 3.51878 16.1667 4.03418 15.7163 4.34234C15.061 3.46393 14.1779 2.83363 13.1589 2.45434C13.3714 1.74979 14.0191 1.23066 14.7664 1.23066ZM12.2598 3.45425C12.2903 3.46537 12.3219 3.47378 12.3545 3.48002C13.6313 3.84359 14.4521 4.58031 14.9524 5.40066C14.9804 5.45785 15.6279 6.42712 15.6279 7.79421C15.6279 8.85094 14.8984 9.70834 13.9931 10.2744C11.8112 11.5872 8.8541 11.4281 7.00909 10.2755C6.11736 9.73332 5.3724 8.84819 5.3724 7.79417C5.3724 7.1249 5.54182 6.27234 5.99704 5.48628C6.01611 5.45945 6.0331 5.43086 6.04791 5.40062C6.54821 4.58027 7.36894 3.84355 8.64583 3.48002C8.67836 3.47378 8.71003 3.46537 8.74047 3.45425C9.80946 3.17026 11.1786 3.16702 12.2598 3.45425ZM4.55196 2.95358C4.55196 2.01968 5.32219 1.23066 6.23386 1.23066C6.9812 1.23066 7.62889 1.74979 7.84143 2.45434C6.82257 2.83355 5.93936 3.46377 5.284 4.34234C4.83362 4.03418 4.55196 3.51878 4.55196 2.95358ZM2.23721 13.948C2.05729 13.508 2.269 13.0037 2.70913 12.8236C5.37441 11.7337 5.21212 11.7891 5.36038 11.7667C4.9982 12.4619 4.71941 13.1977 4.53813 13.9391L3.3613 14.4202C2.92728 14.5982 2.42038 14.3962 2.23721 13.948ZM5.14403 19.4467C4.37901 18.7985 4.02179 17.4448 4.39595 16.4876C4.48325 16.2642 4.68914 15.8745 5.08693 15.7739C5.76342 15.6029 6.56515 16.3679 6.83733 17.4445C7.01639 18.1529 6.92967 18.8514 6.65675 19.2951C6.63563 19.3211 6.61696 19.3494 6.6001 19.3791C6.21831 19.9048 5.6447 19.871 5.14403 19.4467ZM8.00962 19.2441C8.58758 17.3378 7.46037 14.8979 5.66099 14.5584C5.85318 13.584 6.27742 12.5255 6.87524 11.6106C9.04173 12.7024 11.9553 12.704 14.125 11.6106C14.7064 12.5004 15.1416 13.5553 15.3393 14.5584C13.5396 14.8979 12.4128 17.3379 12.9907 19.2441C11.6808 19.4572 9.33253 19.4593 8.00962 19.2441ZM16.6595 18.0757C16.3108 19.4548 15.0778 20.3122 14.4001 19.3791C14.3833 19.3494 14.3647 19.3211 14.3435 19.2951C14.0706 18.8513 13.9839 18.1528 14.163 17.4445C14.4209 16.4241 15.2038 15.5946 15.9134 15.7739C16.3111 15.8744 16.517 16.2642 16.6043 16.4876C16.9017 17.2483 16.6595 18.0798 16.6595 18.0757ZM18.7629 13.9481C18.5806 14.3942 18.0753 14.5991 17.6382 14.4198L16.4622 13.9391C16.281 13.198 16.0021 12.4619 15.6397 11.7663C15.7866 11.788 15.6417 11.7402 18.2911 12.8236C18.7312 13.0037 18.943 13.508 18.7629 13.9481Z" fill="#009EE0"/>
<path d="M8.71004 5.31864C8.36169 5.21481 8.00254 5.42673 7.92776 5.78711C7.86421 6.1248 8.0758 6.44083 8.41099 6.51074C8.74938 6.57407 9.0648 6.36228 9.13462 6.0275C9.19131 5.72455 9.02965 5.42279 8.71004 5.31864Z" fill="#009EE0"/>
<path d="M11.8657 6.02746C11.9348 6.36039 12.2493 6.57437 12.5894 6.5107C12.9223 6.44129 13.1363 6.12739 13.0726 5.78707C12.9956 5.41791 12.6273 5.21604 12.2907 5.3186C11.9735 5.41972 11.8084 5.72283 11.8657 6.02746Z" fill="#009EE0"/>
<path d="M10.0648 8.96774C10.305 9.20804 10.6947 9.20809 10.935 8.96774L11.5913 8.31139C11.9777 7.92505 11.704 7.26099 11.1562 7.26099H9.84355C9.29722 7.26099 9.02114 7.9241 9.40847 8.31139L10.0648 8.96774Z" fill="#009EE0"/>
</g>
<defs>
<clipPath id="clip0">
<rect width="21" height="21" fill="white"/>
</clipPath>
</defs>
</svg>
