<svg width="60" height="60" viewBox="0 0 60 60" fill="none" xmlns="http://www.w3.org/2000/svg">
<path d="M30 1.32532C29.8135 1.32532 29.6347 1.3994 29.5028 1.53126C29.371 1.66312 29.2969 1.84196 29.2969 2.02844V9.21204C29.2969 9.39852 29.371 9.57736 29.5028 9.70922C29.6347 9.84108 29.8135 9.91516 30 9.91516C30.1865 9.91516 30.3653 9.84108 30.4972 9.70922C30.629 9.57736 30.7031 9.39852 30.7031 9.21204V2.02844C30.7031 1.84196 30.629 1.66312 30.4972 1.53126C30.3653 1.3994 30.1865 1.32532 30 1.32532Z" fill="black"/>
<path d="M30 1.32532C29.8135 1.32532 29.6347 1.3994 29.5028 1.53126C29.371 1.66312 29.2969 1.84196 29.2969 2.02844V9.21204C29.2969 9.39852 29.371 9.57736 29.5028 9.70922C29.6347 9.84108 29.8135 9.91516 30 9.91516C30.1865 9.91516 30.3653 9.84108 30.4972 9.70922C30.629 9.57736 30.7031 9.39852 30.7031 9.21204V2.02844C30.7031 1.84196 30.629 1.66312 30.4972 1.53126C30.3653 1.3994 30.1865 1.32532 30 1.32532Z" fill="#009EE0" fill-opacity="0.8"/>
<path d="M43.0693 11.618L41.143 13.5438C41.0777 13.6091 41.0259 13.6866 40.9905 13.772C40.9552 13.8573 40.937 13.9487 40.937 14.041C40.937 14.1334 40.9552 14.2248 40.9905 14.3101C41.0259 14.3954 41.0776 14.4729 41.1429 14.5382C41.2082 14.6035 41.2857 14.6553 41.371 14.6907C41.4563 14.726 41.5478 14.7442 41.6401 14.7442C41.7324 14.7442 41.8239 14.726 41.9092 14.6907C41.9945 14.6554 42.072 14.6036 42.1373 14.5383L44.0635 12.6124C44.1936 12.4802 44.2662 12.302 44.2655 12.1165C44.2647 11.931 44.1907 11.7533 44.0596 11.6221C43.9285 11.491 43.7508 11.4169 43.5653 11.4161C43.3798 11.4154 43.2015 11.4879 43.0693 11.618Z" fill="black"/>
<path d="M43.0693 11.618L41.143 13.5438C41.0777 13.6091 41.0259 13.6866 40.9905 13.772C40.9552 13.8573 40.937 13.9487 40.937 14.041C40.937 14.1334 40.9552 14.2248 40.9905 14.3101C41.0259 14.3954 41.0776 14.4729 41.1429 14.5382C41.2082 14.6035 41.2857 14.6553 41.371 14.6907C41.4563 14.726 41.5478 14.7442 41.6401 14.7442C41.7324 14.7442 41.8239 14.726 41.9092 14.6907C41.9945 14.6554 42.072 14.6036 42.1373 14.5383L44.0635 12.6124C44.1936 12.4802 44.2662 12.302 44.2655 12.1165C44.2647 11.931 44.1907 11.7533 44.0596 11.6221C43.9285 11.491 43.7508 11.4169 43.5653 11.4161C43.3798 11.4154 43.2015 11.4879 43.0693 11.618Z" fill="#009EE0" fill-opacity="0.8"/>
<path d="M15.8964 11.618C15.7645 11.7499 15.6904 11.9287 15.6904 12.1152C15.6904 12.3017 15.7645 12.4805 15.8964 12.6124L17.8227 14.5382C17.8878 14.6044 17.9653 14.657 18.0509 14.693C18.1364 14.7291 18.2282 14.7478 18.3211 14.7482C18.4139 14.7485 18.5059 14.7305 18.5917 14.6952C18.6775 14.6598 18.7555 14.6078 18.8211 14.5422C18.8867 14.4765 18.9387 14.3986 18.974 14.3127C19.0094 14.2269 19.0274 14.1349 19.027 14.0421C19.0266 13.9493 19.0078 13.8575 18.9718 13.7719C18.9357 13.6864 18.8831 13.6089 18.8169 13.5438L16.8908 11.6179C16.8255 11.5526 16.748 11.5008 16.6627 11.4655C16.5773 11.4302 16.4859 11.412 16.3936 11.412C16.3012 11.412 16.2098 11.4302 16.1245 11.4656C16.0392 11.5009 15.9616 11.5527 15.8964 11.618Z" fill="black"/>
<path d="M15.8964 11.618C15.7645 11.7499 15.6904 11.9287 15.6904 12.1152C15.6904 12.3017 15.7645 12.4805 15.8964 12.6124L17.8227 14.5382C17.8878 14.6044 17.9653 14.657 18.0509 14.693C18.1364 14.7291 18.2282 14.7478 18.3211 14.7482C18.4139 14.7485 18.5059 14.7305 18.5917 14.6952C18.6775 14.6598 18.7555 14.6078 18.8211 14.5422C18.8867 14.4765 18.9387 14.3986 18.974 14.3127C19.0094 14.2269 19.0274 14.1349 19.027 14.0421C19.0266 13.9493 19.0078 13.8575 18.9718 13.7719C18.9357 13.6864 18.8831 13.6089 18.8169 13.5438L16.8908 11.6179C16.8255 11.5526 16.748 11.5008 16.6627 11.4655C16.5773 11.4302 16.4859 11.412 16.3936 11.412C16.3012 11.412 16.2098 11.4302 16.1245 11.4656C16.0392 11.5009 15.9616 11.5527 15.8964 11.618Z" fill="#009EE0" fill-opacity="0.8"/>
<path d="M20.3013 4.94774C20.1323 5.02659 20.0016 5.16934 19.9379 5.34458C19.8741 5.51982 19.8826 5.71321 19.9615 5.88219L22.3738 11.0541C22.4128 11.1378 22.4679 11.213 22.536 11.2754C22.6041 11.3378 22.6838 11.3862 22.7706 11.4177C22.8574 11.4493 22.9495 11.4635 23.0418 11.4595C23.1341 11.4554 23.2246 11.4333 23.3083 11.3942C23.392 11.3552 23.4672 11.3 23.5296 11.232C23.592 11.1639 23.6403 11.0842 23.6719 10.9974C23.7035 10.9106 23.7177 10.8184 23.7136 10.7262C23.7096 10.6339 23.6874 10.5433 23.6484 10.4596L21.2357 5.28781C21.1967 5.20412 21.1416 5.12894 21.0735 5.06656C21.0054 5.00417 20.9257 4.95581 20.839 4.92423C20.7522 4.89265 20.66 4.87847 20.5678 4.88251C20.4755 4.88654 20.385 4.9087 20.3013 4.94774Z" fill="black"/>
<path d="M20.3013 4.94774C20.1323 5.02659 20.0016 5.16934 19.9379 5.34458C19.8741 5.51982 19.8826 5.71321 19.9615 5.88219L22.3738 11.0541C22.4128 11.1378 22.4679 11.213 22.536 11.2754C22.6041 11.3378 22.6838 11.3862 22.7706 11.4177C22.8574 11.4493 22.9495 11.4635 23.0418 11.4595C23.1341 11.4554 23.2246 11.4333 23.3083 11.3942C23.392 11.3552 23.4672 11.3 23.5296 11.232C23.592 11.1639 23.6403 11.0842 23.6719 10.9974C23.7035 10.9106 23.7177 10.8184 23.7136 10.7262C23.7096 10.6339 23.6874 10.5433 23.6484 10.4596L21.2357 5.28781C21.1967 5.20412 21.1416 5.12894 21.0735 5.06656C21.0054 5.00417 20.9257 4.95581 20.839 4.92423C20.7522 4.89265 20.66 4.87847 20.5678 4.88251C20.4755 4.88654 20.385 4.9087 20.3013 4.94774Z" fill="#009EE0" fill-opacity="0.8"/>
<path d="M38.7243 5.28776L36.312 10.4596C36.2332 10.6286 36.2247 10.822 36.2885 10.9972C36.3522 11.1725 36.483 11.3152 36.652 11.3941C36.821 11.4729 37.0144 11.4814 37.1896 11.4176C37.3649 11.3538 37.5076 11.2231 37.5864 11.0541L39.9987 5.88272C40.0386 5.79893 40.0616 5.70806 40.0662 5.61537C40.0708 5.52268 40.057 5.42999 40.0256 5.34265C39.9942 5.25531 39.9458 5.17505 39.8833 5.10649C39.8207 5.03794 39.7452 4.98245 39.6611 4.94322C39.577 4.90399 39.4859 4.8818 39.3932 4.87793C39.3005 4.87406 39.2079 4.88859 39.1208 4.92067C39.0337 4.95276 38.9539 5.00176 38.8858 5.06487C38.8178 5.12797 38.7629 5.20393 38.7243 5.28835V5.28776Z" fill="black"/>
<path d="M38.7243 5.28776L36.312 10.4596C36.2332 10.6286 36.2247 10.822 36.2885 10.9972C36.3522 11.1725 36.483 11.3152 36.652 11.3941C36.821 11.4729 37.0144 11.4814 37.1896 11.4176C37.3649 11.3538 37.5076 11.2231 37.5864 11.0541L39.9987 5.88272C40.0386 5.79893 40.0616 5.70806 40.0662 5.61537C40.0708 5.52268 40.057 5.42999 40.0256 5.34265C39.9942 5.25531 39.9458 5.17505 39.8833 5.10649C39.8207 5.03794 39.7452 4.98245 39.6611 4.94322C39.577 4.90399 39.4859 4.8818 39.3932 4.87793C39.3005 4.87406 39.2079 4.88859 39.1208 4.92067C39.0337 4.95276 38.9539 5.00176 38.8858 5.06487C38.8178 5.12797 38.7629 5.20393 38.7243 5.28835V5.28776Z" fill="#009EE0" fill-opacity="0.8"/>
<path d="M9.5642 16.957L14.7374 19.3687C14.8212 19.4085 14.9121 19.4313 15.0047 19.4359C15.0974 19.4404 15.19 19.4266 15.2773 19.3952C15.3646 19.3638 15.4448 19.3154 15.5133 19.2528C15.5818 19.1903 15.6373 19.1148 15.6765 19.0307C15.7157 18.9466 15.7378 18.8556 15.7417 18.7629C15.7456 18.6702 15.731 18.5777 15.699 18.4906C15.6669 18.4036 15.618 18.3237 15.5549 18.2557C15.4918 18.1876 15.4159 18.1327 15.3316 18.0942L10.1585 15.6824C9.98945 15.6036 9.79605 15.5952 9.62082 15.659C9.44559 15.7228 9.30287 15.8536 9.22407 16.0226C9.14527 16.1916 9.13683 16.385 9.20062 16.5602C9.26441 16.7355 9.39519 16.8782 9.5642 16.957Z" fill="black"/>
<path d="M9.5642 16.957L14.7374 19.3687C14.8212 19.4085 14.9121 19.4313 15.0047 19.4359C15.0974 19.4404 15.19 19.4266 15.2773 19.3952C15.3646 19.3638 15.4448 19.3154 15.5133 19.2528C15.5818 19.1903 15.6373 19.1148 15.6765 19.0307C15.7157 18.9466 15.7378 18.8556 15.7417 18.7629C15.7456 18.6702 15.731 18.5777 15.699 18.4906C15.6669 18.4036 15.618 18.3237 15.5549 18.2557C15.4918 18.1876 15.4159 18.1327 15.3316 18.0942L10.1585 15.6824C9.98945 15.6036 9.79605 15.5952 9.62082 15.659C9.44559 15.7228 9.30287 15.8536 9.22407 16.0226C9.14527 16.1916 9.13683 16.385 9.20062 16.5602C9.26441 16.7355 9.39519 16.8782 9.5642 16.957Z" fill="#009EE0" fill-opacity="0.8"/>
<path d="M44.2881 19.0284C44.3271 19.1121 44.3822 19.1873 44.4502 19.2497C44.5183 19.3121 44.598 19.3605 44.6848 19.392C44.7716 19.4236 44.8637 19.4377 44.956 19.4337C45.0482 19.4296 45.1388 19.4073 45.2224 19.3682L50.3957 16.9565C50.5633 16.8769 50.6927 16.7342 50.7555 16.5596C50.8184 16.3849 50.8096 16.1925 50.7312 16.0243C50.6528 15.8561 50.5111 15.7257 50.3369 15.6616C50.1628 15.5975 49.9703 15.6048 49.8015 15.682L44.6283 18.0938C44.5446 18.1328 44.4694 18.1879 44.407 18.256C44.3446 18.3241 44.2962 18.4038 44.2646 18.4906C44.233 18.5774 44.2188 18.6696 44.2228 18.7618C44.2269 18.8541 44.249 18.9447 44.2881 19.0284Z" fill="black"/>
<path d="M44.2881 19.0284C44.3271 19.1121 44.3822 19.1873 44.4502 19.2497C44.5183 19.3121 44.598 19.3605 44.6848 19.392C44.7716 19.4236 44.8637 19.4377 44.956 19.4337C45.0482 19.4296 45.1388 19.4073 45.2224 19.3682L50.3957 16.9565C50.5633 16.8769 50.6927 16.7342 50.7555 16.5596C50.8184 16.3849 50.8096 16.1925 50.7312 16.0243C50.6528 15.8561 50.5111 15.7257 50.3369 15.6616C50.1628 15.5975 49.9703 15.6048 49.8015 15.682L44.6283 18.0938C44.5446 18.1328 44.4694 18.1879 44.407 18.256C44.3446 18.3241 44.2962 18.4038 44.2646 18.4906C44.233 18.5774 44.2188 18.6696 44.2228 18.7618C44.2269 18.8541 44.249 18.9447 44.2881 19.0284Z" fill="#009EE0" fill-opacity="0.8"/>
<path d="M25.6034 48.161L25.5 46.4219C25.2697 44.7627 24.5846 43.1996 23.5207 41.9058C22.4568 40.6119 21.0555 39.6377 19.4721 39.091L18.9254 38.9008C18.1699 38.6379 17.4836 38.2075 16.9179 37.6419L14.2633 34.988L13.3676 31.9155C13.1507 31.103 12.6913 30.3759 12.0506 29.8311C11.41 29.2863 10.6185 28.9497 9.78165 28.8662L9.63634 28.3817C9.6347 28.3762 9.63294 28.3706 9.63106 28.365C9.20638 27.0674 7.79813 26.2304 6.35942 26.3196L6.31806 26.1817C6.04296 25.2579 5.42216 24.4758 4.58492 23.9983C3.74767 23.5207 2.75849 23.3845 1.82333 23.618C1.64938 23.6611 1.49847 23.7691 1.40146 23.9198C1.30445 24.0705 1.26865 24.2526 1.30138 24.4288L4.06102 39.2421C4.25762 40.325 4.65777 41.3609 5.24028 42.2947C5.95206 43.4253 6.88403 44.4011 7.98071 45.164L14.3406 49.5449C14.353 49.5533 14.3656 49.5614 14.3784 49.5691C14.8236 49.8346 15.1557 50.2543 15.3115 50.7486L15.7948 57.2784C15.805 57.4165 15.8557 57.5485 15.9406 57.6578C16.0255 57.7671 16.1408 57.849 16.2721 57.8931L16.4029 57.937C19.2663 58.9062 22.3658 58.9277 25.2424 57.9984L25.5445 57.8961C25.6845 57.8497 25.8058 57.7596 25.8907 57.639C25.9756 57.5184 26.0194 57.3738 26.0159 57.2264V53.5717C26.0062 51.8784 25.8745 50.188 25.6216 48.5136C25.605 48.397 25.6103 48.2784 25.6034 48.161ZM12.0113 32.287L12.299 33.293C11.8835 33.0714 11.4356 32.9172 10.9719 32.8359L10.2424 30.4036C10.667 30.5521 11.0495 30.8008 11.3575 31.1287C11.6654 31.4566 11.8897 31.8539 12.0113 32.287ZM8.29243 28.7948L9.49946 32.8207C9.12164 32.8786 8.75286 32.9849 8.40224 33.1371L6.78446 27.7383C7.43872 27.8102 8.08618 28.1792 8.29243 28.7951V28.7948ZM24.6096 56.7122C22.1777 57.4627 19.5756 57.4599 17.1454 56.7041L16.7 50.5686C16.698 50.5216 16.6912 50.4749 16.6798 50.4293C16.439 49.5712 15.881 48.8368 15.1187 48.375L8.77888 44.0074C7.29551 42.9744 6.1776 41.4979 5.58563 39.7899L2.82153 24.9148C3.30909 24.9342 3.77835 25.1056 4.16362 25.405C4.54889 25.7045 4.83086 26.1169 4.97005 26.5846L7.1754 33.9356C7.12852 33.979 7.08204 34.0235 7.03595 34.0692C6.98014 34.1236 6.93418 34.1873 6.90013 34.2574C6.83397 34.3942 6.81369 34.5486 6.84229 34.6979C6.8709 34.8471 6.94687 34.9831 7.05891 35.0857L10.2451 37.9955C11.0034 38.6882 11.709 39.4366 12.3559 40.2343C12.4737 40.3761 12.6424 40.4659 12.8257 40.4845C13.0091 40.5031 13.1924 40.449 13.3362 40.3338C13.4801 40.2186 13.573 40.0515 13.5949 39.8686C13.6168 39.6856 13.566 39.5013 13.4534 39.3554C12.7609 38.5009 12.0054 37.6993 11.1934 36.9574L8.61751 34.6046C9.20206 34.255 9.88653 34.1103 10.5626 34.1934C11.2386 34.2765 11.8676 34.5828 12.35 35.0637L15.9231 38.6359C16.6389 39.3515 17.5073 39.8961 18.4632 40.2289L19.01 40.4192C20.3446 40.8799 21.5262 41.6997 22.4248 42.7885C23.3235 43.8773 23.9044 45.1929 24.1036 46.5906L24.1999 48.2498C24.2125 48.4664 24.2453 48.8195 24.2745 49.0344C24.4897 50.5374 24.6017 52.0534 24.6096 53.5717V56.7122Z" fill="black"/>
<path d="M25.6034 48.161L25.5 46.4219C25.2697 44.7627 24.5846 43.1996 23.5207 41.9058C22.4568 40.6119 21.0555 39.6377 19.4721 39.091L18.9254 38.9008C18.1699 38.6379 17.4836 38.2075 16.9179 37.6419L14.2633 34.988L13.3676 31.9155C13.1507 31.103 12.6913 30.3759 12.0506 29.8311C11.41 29.2863 10.6185 28.9497 9.78165 28.8662L9.63634 28.3817C9.6347 28.3762 9.63294 28.3706 9.63106 28.365C9.20638 27.0674 7.79813 26.2304 6.35942 26.3196L6.31806 26.1817C6.04296 25.2579 5.42216 24.4758 4.58492 23.9983C3.74767 23.5207 2.75849 23.3845 1.82333 23.618C1.64938 23.6611 1.49847 23.7691 1.40146 23.9198C1.30445 24.0705 1.26865 24.2526 1.30138 24.4288L4.06102 39.2421C4.25762 40.325 4.65777 41.3609 5.24028 42.2947C5.95206 43.4253 6.88403 44.4011 7.98071 45.164L14.3406 49.5449C14.353 49.5533 14.3656 49.5614 14.3784 49.5691C14.8236 49.8346 15.1557 50.2543 15.3115 50.7486L15.7948 57.2784C15.805 57.4165 15.8557 57.5485 15.9406 57.6578C16.0255 57.7671 16.1408 57.849 16.2721 57.8931L16.4029 57.937C19.2663 58.9062 22.3658 58.9277 25.2424 57.9984L25.5445 57.8961C25.6845 57.8497 25.8058 57.7596 25.8907 57.639C25.9756 57.5184 26.0194 57.3738 26.0159 57.2264V53.5717C26.0062 51.8784 25.8745 50.188 25.6216 48.5136C25.605 48.397 25.6103 48.2784 25.6034 48.161ZM12.0113 32.287L12.299 33.293C11.8835 33.0714 11.4356 32.9172 10.9719 32.8359L10.2424 30.4036C10.667 30.5521 11.0495 30.8008 11.3575 31.1287C11.6654 31.4566 11.8897 31.8539 12.0113 32.287ZM8.29243 28.7948L9.49946 32.8207C9.12164 32.8786 8.75286 32.9849 8.40224 33.1371L6.78446 27.7383C7.43872 27.8102 8.08618 28.1792 8.29243 28.7951V28.7948ZM24.6096 56.7122C22.1777 57.4627 19.5756 57.4599 17.1454 56.7041L16.7 50.5686C16.698 50.5216 16.6912 50.4749 16.6798 50.4293C16.439 49.5712 15.881 48.8368 15.1187 48.375L8.77888 44.0074C7.29551 42.9744 6.1776 41.4979 5.58563 39.7899L2.82153 24.9148C3.30909 24.9342 3.77835 25.1056 4.16362 25.405C4.54889 25.7045 4.83086 26.1169 4.97005 26.5846L7.1754 33.9356C7.12852 33.979 7.08204 34.0235 7.03595 34.0692C6.98014 34.1236 6.93418 34.1873 6.90013 34.2574C6.83397 34.3942 6.81369 34.5486 6.84229 34.6979C6.8709 34.8471 6.94687 34.9831 7.05891 35.0857L10.2451 37.9955C11.0034 38.6882 11.709 39.4366 12.3559 40.2343C12.4737 40.3761 12.6424 40.4659 12.8257 40.4845C13.0091 40.5031 13.1924 40.449 13.3362 40.3338C13.4801 40.2186 13.573 40.0515 13.5949 39.8686C13.6168 39.6856 13.566 39.5013 13.4534 39.3554C12.7609 38.5009 12.0054 37.6993 11.1934 36.9574L8.61751 34.6046C9.20206 34.255 9.88653 34.1103 10.5626 34.1934C11.2386 34.2765 11.8676 34.5828 12.35 35.0637L15.9231 38.6359C16.6389 39.3515 17.5073 39.8961 18.4632 40.2289L19.01 40.4192C20.3446 40.8799 21.5262 41.6997 22.4248 42.7885C23.3235 43.8773 23.9044 45.1929 24.1036 46.5906L24.1999 48.2498C24.2125 48.4664 24.2453 48.8195 24.2745 49.0344C24.4897 50.5374 24.6017 52.0534 24.6096 53.5717V56.7122Z" fill="#009EE0" fill-opacity="0.8"/>
<path d="M58.1773 23.618C57.2421 23.3845 56.253 23.5207 55.4158 23.9982C54.5786 24.4758 53.9578 25.2578 53.6828 26.1816L53.6415 26.3196C52.2026 26.2299 50.7939 27.0672 50.3689 28.365C50.3671 28.3706 50.3653 28.3767 50.3637 28.3818L50.2183 28.8662C49.3815 28.9497 48.59 29.2863 47.9494 29.8311C47.3087 30.3759 46.8493 31.103 46.6324 31.9156L45.7301 34.988L43.0793 37.6419C42.5134 38.2066 41.8279 38.6369 41.0733 38.9009L40.5273 39.0911C38.944 39.6377 37.5428 40.612 36.479 41.9058C35.4152 43.1997 34.7302 44.7628 34.5 46.422L34.397 48.161C34.3901 48.2782 34.3954 48.397 34.3787 48.5135C34.1259 50.1879 33.9941 51.8783 33.9844 53.5717V57.2264C33.9842 57.3747 34.0305 57.5192 34.1167 57.6399C34.2028 57.7605 34.3246 57.8511 34.4648 57.8991C37.3609 58.8774 40.4952 58.8964 43.403 57.9531L43.5794 57.8945C43.7094 57.8519 43.8241 57.7724 43.9094 57.6656C43.9948 57.5587 44.0471 57.4293 44.0599 57.2932L44.6871 50.755C44.8418 50.2578 45.1747 49.8353 45.6219 49.5686C45.6348 49.5608 45.6473 49.5527 45.6596 49.5443L52.0212 45.1623C53.3266 44.2534 54.3957 43.0454 55.1392 41.6391C55.5118 40.9236 55.774 40.1559 55.9167 39.3619L58.6992 24.4288C58.7319 24.2526 58.6961 24.0705 58.5991 23.9198C58.5021 23.7691 58.3512 23.6611 58.1773 23.618ZM51.7078 28.7951C51.9138 28.1789 52.5625 27.8097 53.2172 27.7378L51.6 33.1376C51.2489 32.9852 50.8796 32.8789 50.5012 32.8212L51.7078 28.7951ZM47.989 32.2873C48.1105 31.8542 48.3348 31.4568 48.6427 31.1288C48.9507 30.8009 49.3332 30.5521 49.7578 30.4036L49.0283 32.8369C48.5656 32.9182 48.1187 33.0722 47.7041 33.2931L47.989 32.2873ZM54.4139 39.7896C53.8221 41.497 52.7046 42.973 51.2218 44.0059L44.8794 48.375C44.1166 48.8368 43.5579 49.5714 43.3166 50.4299C43.305 50.4705 43.2972 50.512 43.2932 50.554L42.7203 56.698C40.3308 57.4173 37.7831 57.4224 35.3906 56.7129V53.5717C35.4005 51.9449 35.5275 50.3209 35.7707 48.7123C35.7928 48.557 35.8002 48.3989 35.8092 48.2425L35.9009 46.5901C36.0997 45.1927 36.6802 43.8773 37.5785 42.7885C38.4768 41.6997 39.658 40.8799 40.9922 40.4192L41.5378 40.229C42.4929 39.8951 43.3606 39.3508 44.077 38.6364L47.6503 35.0637C48.1326 34.5827 48.7616 34.2764 49.4376 34.1932C50.1137 34.1101 50.7981 34.2549 51.3826 34.6047L48.8066 36.957C47.9947 37.6989 47.2393 38.5005 46.5469 39.3551C46.4343 39.501 46.3835 39.6852 46.4054 39.8682C46.4273 40.0512 46.5202 40.2183 46.664 40.3335C46.8078 40.4487 46.9912 40.5028 47.1745 40.4842C47.3578 40.4656 47.5266 40.3757 47.6443 40.234C48.2913 39.4362 48.9968 38.6879 49.7551 37.9951L52.9309 35.0954C53.0068 35.0284 53.0678 34.9461 53.1099 34.854C53.1679 34.7238 53.1851 34.5791 53.1592 34.4389C53.1333 34.2988 53.0655 34.1697 52.9648 34.0689C52.9191 34.023 52.8725 33.9784 52.8252 33.9352L55.0305 26.584C55.1697 26.1163 55.4516 25.7039 55.8369 25.4045C56.2221 25.1051 56.6914 24.9337 57.1789 24.9143L54.4139 39.7896Z" fill="black"/>
<path d="M58.1773 23.618C57.2421 23.3845 56.253 23.5207 55.4158 23.9982C54.5786 24.4758 53.9578 25.2578 53.6828 26.1816L53.6415 26.3196C52.2026 26.2299 50.7939 27.0672 50.3689 28.365C50.3671 28.3706 50.3653 28.3767 50.3637 28.3818L50.2183 28.8662C49.3815 28.9497 48.59 29.2863 47.9494 29.8311C47.3087 30.3759 46.8493 31.103 46.6324 31.9156L45.7301 34.988L43.0793 37.6419C42.5134 38.2066 41.8279 38.6369 41.0733 38.9009L40.5273 39.0911C38.944 39.6377 37.5428 40.612 36.479 41.9058C35.4152 43.1997 34.7302 44.7628 34.5 46.422L34.397 48.161C34.3901 48.2782 34.3954 48.397 34.3787 48.5135C34.1259 50.1879 33.9941 51.8783 33.9844 53.5717V57.2264C33.9842 57.3747 34.0305 57.5192 34.1167 57.6399C34.2028 57.7605 34.3246 57.8511 34.4648 57.8991C37.3609 58.8774 40.4952 58.8964 43.403 57.9531L43.5794 57.8945C43.7094 57.8519 43.8241 57.7724 43.9094 57.6656C43.9948 57.5587 44.0471 57.4293 44.0599 57.2932L44.6871 50.755C44.8418 50.2578 45.1747 49.8353 45.6219 49.5686C45.6348 49.5608 45.6473 49.5527 45.6596 49.5443L52.0212 45.1623C53.3266 44.2534 54.3957 43.0454 55.1392 41.6391C55.5118 40.9236 55.774 40.1559 55.9167 39.3619L58.6992 24.4288C58.7319 24.2526 58.6961 24.0705 58.5991 23.9198C58.5021 23.7691 58.3512 23.6611 58.1773 23.618ZM51.7078 28.7951C51.9138 28.1789 52.5625 27.8097 53.2172 27.7378L51.6 33.1376C51.2489 32.9852 50.8796 32.8789 50.5012 32.8212L51.7078 28.7951ZM47.989 32.2873C48.1105 31.8542 48.3348 31.4568 48.6427 31.1288C48.9507 30.8009 49.3332 30.5521 49.7578 30.4036L49.0283 32.8369C48.5656 32.9182 48.1187 33.0722 47.7041 33.2931L47.989 32.2873ZM54.4139 39.7896C53.8221 41.497 52.7046 42.973 51.2218 44.0059L44.8794 48.375C44.1166 48.8368 43.5579 49.5714 43.3166 50.4299C43.305 50.4705 43.2972 50.512 43.2932 50.554L42.7203 56.698C40.3308 57.4173 37.7831 57.4224 35.3906 56.7129V53.5717C35.4005 51.9449 35.5275 50.3209 35.7707 48.7123C35.7928 48.557 35.8002 48.3989 35.8092 48.2425L35.9009 46.5901C36.0997 45.1927 36.6802 43.8773 37.5785 42.7885C38.4768 41.6997 39.658 40.8799 40.9922 40.4192L41.5378 40.229C42.4929 39.8951 43.3606 39.3508 44.077 38.6364L47.6503 35.0637C48.1326 34.5827 48.7616 34.2764 49.4376 34.1932C50.1137 34.1101 50.7981 34.2549 51.3826 34.6047L48.8066 36.957C47.9947 37.6989 47.2393 38.5005 46.5469 39.3551C46.4343 39.501 46.3835 39.6852 46.4054 39.8682C46.4273 40.0512 46.5202 40.2183 46.664 40.3335C46.8078 40.4487 46.9912 40.5028 47.1745 40.4842C47.3578 40.4656 47.5266 40.3757 47.6443 40.234C48.2913 39.4362 48.9968 38.6879 49.7551 37.9951L52.9309 35.0954C53.0068 35.0284 53.0678 34.9461 53.1099 34.854C53.1679 34.7238 53.1851 34.5791 53.1592 34.4389C53.1333 34.2988 53.0655 34.1697 52.9648 34.0689C52.9191 34.023 52.8725 33.9784 52.8252 33.9352L55.0305 26.584C55.1697 26.1163 55.4516 25.7039 55.8369 25.4045C56.2221 25.1051 56.6914 24.9337 57.1789 24.9143L54.4139 39.7896Z" fill="#009EE0" fill-opacity="0.8"/>
<path d="M38.3218 13.5571C37.7012 12.9979 36.9499 12.6039 36.137 12.4114C35.3241 12.2189 34.4759 12.2341 33.6704 12.4556L31.9561 12.9228C30.6623 13.2754 29.2976 13.2751 28.004 12.9218L26.2931 12.4544C25.5241 12.2449 24.7162 12.2222 23.9366 12.3881C23.157 12.5539 22.4283 12.9036 21.8112 13.4081C21.1941 13.9125 20.7064 14.557 20.3887 15.288C20.0711 16.019 19.9326 16.8153 19.9849 17.6106C20.0349 18.3984 20.1442 19.1812 20.3119 19.9525C20.3467 20.1101 20.4343 20.2511 20.5602 20.3521C20.6861 20.4531 20.8428 20.5081 21.0042 20.5079C21.11 20.5078 21.2145 20.4839 21.3099 20.4381C21.4053 20.3922 21.4892 20.3255 21.5555 20.2429C21.6217 20.1603 21.6685 20.0639 21.6925 19.9608C21.7165 19.8577 21.717 19.7506 21.6941 19.6472C21.5408 18.9472 21.4409 18.2366 21.3954 17.5214C21.3569 16.9594 21.4512 16.3961 21.6707 15.8772C21.8902 15.3583 22.2286 14.8983 22.6588 14.5345C23.1168 14.1554 23.6601 13.8933 24.2419 13.7709C24.8237 13.6484 25.4266 13.6691 25.9986 13.8313L27.6344 14.2785C29.1703 14.698 30.7906 14.6984 32.3267 14.2796L34.0406 13.8123C34.5935 13.6624 35.1742 13.6466 35.7345 13.7663C36.2947 13.8861 36.8183 14.1379 37.2615 14.5008C37.7048 14.8638 38.055 15.3273 38.283 15.8529C38.511 16.3784 38.6101 16.9509 38.5722 17.5225C38.4829 19.1999 38.0815 20.8459 37.3886 22.3761C37.3808 22.3932 37.3111 22.514 37.3046 22.5314C36.3426 24.6781 35.8595 26.7401 35.8595 28.8336V31.252C35.8641 31.3825 35.8424 31.5126 35.7958 31.6346C35.7491 31.7565 35.6784 31.8679 35.5878 31.962C35.4973 32.0561 35.3887 32.1311 35.2687 32.1824C35.1486 32.2337 35.0194 32.2604 34.8888 32.2608C34.6205 32.261 34.3613 32.1636 34.1594 31.9868C33.7826 31.6726 33.4778 31.281 33.2656 30.8385C33.0534 30.3961 32.9389 29.9132 32.9298 29.4227V28.0943C32.9356 27.6937 32.8607 27.296 32.7095 26.925C32.5583 26.554 32.334 26.2172 32.0498 25.9347C31.7717 25.6574 31.4408 25.4387 31.0766 25.2915C30.7125 25.1444 30.3225 25.0719 29.9298 25.0782H29.925C28.2488 25.0782 26.836 26.4087 26.836 28.1071V29.3024C26.8417 30.2317 26.4951 31.1287 25.866 31.8127C25.5941 32.104 25.3459 32.2606 25.0066 32.2606C24.8753 32.2606 24.7454 32.2344 24.6244 32.1834C24.5035 32.1324 24.3939 32.0576 24.3023 31.9636C24.2107 31.8696 24.1388 31.7582 24.0909 31.636C24.0431 31.5138 24.0201 31.3832 24.0235 31.252V28.8336C24.0311 27.3769 23.8263 25.9269 23.4156 24.5294C23.3719 24.3831 23.2822 24.2548 23.1597 24.1636C23.0372 24.0724 22.8886 24.0233 22.7359 24.0235H22.7294C22.6187 24.0237 22.5096 24.0499 22.4109 24.1C22.3121 24.15 22.2265 24.2225 22.1608 24.3116C22.0951 24.4008 22.0513 24.5041 22.0328 24.6132C22.0143 24.7224 22.0216 24.8343 22.0542 24.9401C22.4339 26.2028 22.6235 27.515 22.6167 28.8336V31.252C22.6134 31.717 22.7454 32.1729 22.9966 32.5643C23.2478 32.9557 23.6073 33.2655 24.0315 33.4562C24.4556 33.6469 24.926 33.7102 25.3855 33.6383C25.8449 33.5665 26.2736 33.3626 26.6192 33.0515C27.1357 32.5997 27.5482 32.0413 27.8284 31.4149C28.1086 30.7885 28.2498 30.1088 28.2423 29.4227V28.1071C28.2423 27.1829 29.0252 26.4844 29.9265 26.4844H29.9291C30.1373 26.4785 30.3446 26.5149 30.5383 26.5915C30.7321 26.668 30.9083 26.7831 31.0563 26.9297C31.2092 27.0819 31.3295 27.2637 31.4098 27.4639C31.4902 27.6642 31.5288 27.8787 31.5235 28.0943V29.4227C31.5235 30.7946 32.1658 32.1172 33.2485 33.0515C33.6983 33.4483 34.2776 33.6673 34.8774 33.6671C35.5143 33.6634 36.1237 33.4069 36.5716 32.954C37.0194 32.5011 37.2691 31.8889 37.2657 31.252V28.8336C37.2657 26.9282 37.6876 25.1031 38.5794 23.1244C38.5858 23.11 38.6279 23.0324 38.6334 23.0178C39.4016 21.3104 39.8549 19.4784 39.9717 17.6098C40.0227 16.8533 39.9006 16.0952 39.6147 15.393C39.3288 14.6907 38.8866 14.0629 38.3218 13.5571Z" fill="black"/>
<path d="M38.3218 13.5571C37.7012 12.9979 36.9499 12.6039 36.137 12.4114C35.3241 12.2189 34.4759 12.2341 33.6704 12.4556L31.9561 12.9228C30.6623 13.2754 29.2976 13.2751 28.004 12.9218L26.2931 12.4544C25.5241 12.2449 24.7162 12.2222 23.9366 12.3881C23.157 12.5539 22.4283 12.9036 21.8112 13.4081C21.1941 13.9125 20.7064 14.557 20.3887 15.288C20.0711 16.019 19.9326 16.8153 19.9849 17.6106C20.0349 18.3984 20.1442 19.1812 20.3119 19.9525C20.3467 20.1101 20.4343 20.2511 20.5602 20.3521C20.6861 20.4531 20.8428 20.5081 21.0042 20.5079C21.11 20.5078 21.2145 20.4839 21.3099 20.4381C21.4053 20.3922 21.4892 20.3255 21.5555 20.2429C21.6217 20.1603 21.6685 20.0639 21.6925 19.9608C21.7165 19.8577 21.717 19.7506 21.6941 19.6472C21.5408 18.9472 21.4409 18.2366 21.3954 17.5214C21.3569 16.9594 21.4512 16.3961 21.6707 15.8772C21.8902 15.3583 22.2286 14.8983 22.6588 14.5345C23.1168 14.1554 23.6601 13.8933 24.2419 13.7709C24.8237 13.6484 25.4266 13.6691 25.9986 13.8313L27.6344 14.2785C29.1703 14.698 30.7906 14.6984 32.3267 14.2796L34.0406 13.8123C34.5935 13.6624 35.1742 13.6466 35.7345 13.7663C36.2947 13.8861 36.8183 14.1379 37.2615 14.5008C37.7048 14.8638 38.055 15.3273 38.283 15.8529C38.511 16.3784 38.6101 16.9509 38.5722 17.5225C38.4829 19.1999 38.0815 20.8459 37.3886 22.3761C37.3808 22.3932 37.3111 22.514 37.3046 22.5314C36.3426 24.6781 35.8595 26.7401 35.8595 28.8336V31.252C35.8641 31.3825 35.8424 31.5126 35.7958 31.6346C35.7491 31.7565 35.6784 31.8679 35.5878 31.962C35.4973 32.0561 35.3887 32.1311 35.2687 32.1824C35.1486 32.2337 35.0194 32.2604 34.8888 32.2608C34.6205 32.261 34.3613 32.1636 34.1594 31.9868C33.7826 31.6726 33.4778 31.281 33.2656 30.8385C33.0534 30.3961 32.9389 29.9132 32.9298 29.4227V28.0943C32.9356 27.6937 32.8607 27.296 32.7095 26.925C32.5583 26.554 32.334 26.2172 32.0498 25.9347C31.7717 25.6574 31.4408 25.4387 31.0766 25.2915C30.7125 25.1444 30.3225 25.0719 29.9298 25.0782H29.925C28.2488 25.0782 26.836 26.4087 26.836 28.1071V29.3024C26.8417 30.2317 26.4951 31.1287 25.866 31.8127C25.5941 32.104 25.3459 32.2606 25.0066 32.2606C24.8753 32.2606 24.7454 32.2344 24.6244 32.1834C24.5035 32.1324 24.3939 32.0576 24.3023 31.9636C24.2107 31.8696 24.1388 31.7582 24.0909 31.636C24.0431 31.5138 24.0201 31.3832 24.0235 31.252V28.8336C24.0311 27.3769 23.8263 25.9269 23.4156 24.5294C23.3719 24.3831 23.2822 24.2548 23.1597 24.1636C23.0372 24.0724 22.8886 24.0233 22.7359 24.0235H22.7294C22.6187 24.0237 22.5096 24.0499 22.4109 24.1C22.3121 24.15 22.2265 24.2225 22.1608 24.3116C22.0951 24.4008 22.0513 24.5041 22.0328 24.6132C22.0143 24.7224 22.0216 24.8343 22.0542 24.9401C22.4339 26.2028 22.6235 27.515 22.6167 28.8336V31.252C22.6134 31.717 22.7454 32.1729 22.9966 32.5643C23.2478 32.9557 23.6073 33.2655 24.0315 33.4562C24.4556 33.6469 24.926 33.7102 25.3855 33.6383C25.8449 33.5665 26.2736 33.3626 26.6192 33.0515C27.1357 32.5997 27.5482 32.0413 27.8284 31.4149C28.1086 30.7885 28.2498 30.1088 28.2423 29.4227V28.1071C28.2423 27.1829 29.0252 26.4844 29.9265 26.4844H29.9291C30.1373 26.4785 30.3446 26.5149 30.5383 26.5915C30.7321 26.668 30.9083 26.7831 31.0563 26.9297C31.2092 27.0819 31.3295 27.2637 31.4098 27.4639C31.4902 27.6642 31.5288 27.8787 31.5235 28.0943V29.4227C31.5235 30.7946 32.1658 32.1172 33.2485 33.0515C33.6983 33.4483 34.2776 33.6673 34.8774 33.6671C35.5143 33.6634 36.1237 33.4069 36.5716 32.954C37.0194 32.5011 37.2691 31.8889 37.2657 31.252V28.8336C37.2657 26.9282 37.6876 25.1031 38.5794 23.1244C38.5858 23.11 38.6279 23.0324 38.6334 23.0178C39.4016 21.3104 39.8549 19.4784 39.9717 17.6098C40.0227 16.8533 39.9006 16.0952 39.6147 15.393C39.3288 14.6907 38.8866 14.0629 38.3218 13.5571Z" fill="#009EE0" fill-opacity="0.8"/>
</svg>
