<svg width="15" height="19" viewBox="0 0 15 19" fill="none" xmlns="http://www.w3.org/2000/svg">
<path d="M14.2432 8.66968C13.833 7.81503 13.2367 7.04795 12.4916 6.41641L11.8767 5.89417C11.8559 5.87692 11.8307 5.86468 11.8036 5.85852C11.7764 5.85237 11.748 5.85248 11.7209 5.85885C11.6938 5.86523 11.6687 5.87766 11.648 5.89508C11.6273 5.91249 11.6115 5.93434 11.6021 5.95871L11.3274 6.68829C11.1562 7.14598 10.8414 7.61346 10.3956 8.07311C10.366 8.10245 10.3322 8.11028 10.309 8.11223C10.2857 8.11419 10.2498 8.11028 10.2181 8.08289C10.1885 8.05942 10.1737 8.02421 10.1758 7.98901C10.254 6.81151 9.87369 5.48341 9.0412 4.03795C8.35239 2.83699 7.39523 1.90008 6.19932 1.24679L5.32668 0.771492C5.21258 0.708902 5.06679 0.791052 5.07313 0.914278L5.11961 1.85314C5.15131 2.4947 5.07102 3.06193 4.88085 3.53332C4.64843 4.11033 4.31459 4.64626 3.88778 5.12743C3.59075 5.46183 3.2541 5.76429 2.88414 6.02913C1.99313 6.66318 1.26863 7.47563 0.764878 8.40563C0.26237 9.34373 0.000613088 10.3766 0 11.4237C0 12.3469 0.196502 13.2408 0.58528 14.0838C0.960675 14.8955 1.50241 15.6321 2.18054 16.253C2.86513 16.8789 3.65958 17.3718 4.5449 17.7141C5.46191 18.0701 6.43385 18.25 7.43749 18.25C8.44113 18.25 9.41308 18.0701 10.3301 17.716C11.2132 17.3757 12.0163 16.8795 12.6944 16.2549C13.379 15.629 13.9157 14.8975 14.2897 14.0857C14.6779 13.245 14.877 12.3399 14.875 11.4256C14.875 10.4711 14.6637 9.544 14.2432 8.66968ZM11.6845 15.3063C10.5498 16.3468 9.04331 16.918 7.43749 16.918C5.83167 16.918 4.32516 16.3468 3.19052 15.3063C2.0601 14.2677 1.43679 12.8907 1.43679 11.4256C1.43679 10.5748 1.64385 9.75915 2.05165 9.00024C2.44888 8.25893 3.0405 7.59586 3.75889 7.08535C4.21705 6.76104 4.63261 6.38817 4.99707 5.97436C5.5253 5.37779 5.93943 4.71276 6.22679 3.99884C6.34466 3.70434 6.43031 3.39964 6.48245 3.08931C6.99166 3.52354 7.41848 4.04773 7.77556 4.66191C8.48128 5.88634 8.80667 6.97582 8.74328 7.90294C8.72814 8.1213 8.76666 8.33999 8.85596 8.54258C8.94525 8.74517 9.083 8.92639 9.25883 9.07261C9.41121 9.20003 9.58943 9.29816 9.78312 9.36128C9.97682 9.42441 10.1821 9.45128 10.3871 9.44033C10.8034 9.42077 11.1858 9.2506 11.4647 8.96308C11.7457 8.67164 11.9887 8.37433 12.1916 8.07116C12.4874 8.42127 12.7346 8.80269 12.9311 9.21344C13.267 9.91368 13.4382 10.6589 13.4382 11.4256C13.4382 12.8907 12.8149 14.2696 11.6845 15.3063Z" fill="#009EE0"/>
</svg>
