<svg width="203" height="57" viewBox="0 0 203 57" fill="none" xmlns="http://www.w3.org/2000/svg">
<path d="M26.8328 31.742C26.8328 31.742 26.5995 41.3964 39.4323 45.2083C35.6991 31.4926 26.8328 31.742 26.8328 31.742Z" fill="#1C6CA2"/>
<path d="M19.5331 24.0114C19.5331 24.0114 19.7664 14.3927 6.93359 10.5452C10.6668 24.2608 19.5331 24.0114 19.5331 24.0114Z" fill="#1C6CA2"/>
<path d="M23.1995 33.9507C23.1995 33.9507 16.6664 40.5769 23.1995 52.9744C29.6659 40.5057 23.1995 33.9507 23.1995 33.9507Z" fill="#1C6CA2"/>
<path d="M23.1664 22.9781C23.1664 22.9781 29.6995 16.3518 23.1664 3.95435C16.7 16.4587 23.1664 22.9781 23.1664 22.9781Z" fill="#1C6CA2"/>
<path d="M28.333 28.4286C28.333 28.4286 34.5327 35.4111 46.1323 28.4286C34.4327 21.553 28.333 28.4286 28.333 28.4286Z" fill="#1C6CA2"/>
<path d="M18.0331 28.4998C18.0331 28.4998 11.8334 21.5173 0.233887 28.4998C11.9334 35.3755 18.0331 28.4998 18.0331 28.4998Z" fill="#1C6CA2"/>
<path d="M26.7991 23.9758C26.7991 23.9758 35.7987 24.2251 39.3986 10.5095C26.5658 14.4639 26.7991 23.9758 26.7991 23.9758Z" fill="#1C6CA2"/>
<path d="M19.5663 31.7774C19.5663 31.7774 10.5333 31.528 6.9668 45.2437C19.7996 41.2537 19.5663 31.7774 19.5663 31.7774Z" fill="#1C6CA2"/>
<path d="M36.7658 38.6531C32.5993 31.5638 26.8329 31.7063 26.8329 31.7063C26.8329 31.7063 26.6662 38.0119 33.3993 42.4294C34.6992 41.3963 35.8325 40.1138 36.7658 38.6531Z" fill="#2180B3"/>
<path d="M19.5329 24.011C19.5329 24.011 19.6663 18.2398 13.7998 13.8579C12.3666 14.9267 11.0666 16.2448 10 17.7054C14.1332 24.1535 19.5329 24.011 19.5329 24.011Z" fill="#2180B3"/>
<path d="M23.1999 33.9507C23.1999 33.9507 19.1001 38.1188 20.6333 45.9919C21.4666 46.1344 22.2999 46.2057 23.1666 46.2057C24.0332 46.2057 24.8665 46.1344 25.6998 45.9919C27.2664 38.0832 23.1999 33.9507 23.1999 33.9507Z" fill="#2180B3"/>
<path d="M23.1661 22.9779C23.1661 22.9779 27.266 18.8098 25.7327 10.9367C24.8994 10.7942 24.0661 10.7229 23.1995 10.7229C22.3328 10.7229 21.4995 10.7942 20.6662 10.9367C19.0996 18.8454 23.1661 22.9779 23.1661 22.9779Z" fill="#2180B3"/>
<path d="M28.333 28.4286C28.333 28.4286 32.2328 32.8105 39.5992 31.1717C39.7325 30.2811 39.7992 29.3905 39.7992 28.4642C39.7992 27.538 39.7325 26.6474 39.5992 25.7567C32.1662 24.118 28.333 28.4286 28.333 28.4286Z" fill="#2180B3"/>
<path d="M18.0331 28.4999C18.0331 28.4999 14.1332 24.118 6.76689 25.7568C6.63356 26.6474 6.56689 27.538 6.56689 28.4643C6.56689 29.3905 6.63356 30.2812 6.76689 31.1718C14.1999 32.8105 18.0331 28.4999 18.0331 28.4999Z" fill="#2180B3"/>
<path d="M26.7996 23.9754C26.7996 23.9754 32.266 24.1179 36.3658 17.7054C35.2992 16.2092 34.0326 14.891 32.566 13.8579C26.6662 18.2398 26.7996 23.9754 26.7996 23.9754Z" fill="#2180B3"/>
<path d="M19.5663 31.7773C19.5663 31.7773 13.7333 31.5991 9.6001 38.6529C10.5334 40.0779 11.7 41.3604 12.9666 42.4648C19.733 37.976 19.5663 31.7773 19.5663 31.7773Z" fill="#2180B3"/>
<path d="M32.9661 34.1644C29.7663 31.635 26.8664 31.7419 26.8664 31.7419C26.8664 31.7419 26.7997 34.9837 29.233 38.475C30.7662 37.4062 32.0662 35.91 32.9661 34.1644Z" fill="#299FC0"/>
<path d="M19.533 24.0112C19.533 24.0112 19.5997 21.2681 17.6997 18.1331C16.1665 19.0593 14.8665 20.3774 13.8999 21.9449C16.8998 24.0824 19.533 24.0112 19.533 24.0112Z" fill="#299FC0"/>
<path d="M23.1999 33.9507C23.1999 33.9507 21.1666 36.0169 20.5 40.0069C21.3666 40.2207 22.2333 40.3632 23.1666 40.3632C24.0998 40.3632 24.9998 40.2207 25.8664 40.0069C25.2331 36.0169 23.1999 33.9507 23.1999 33.9507Z" fill="#299FC0"/>
<path d="M23.1666 22.9782C23.1666 22.9782 25.1998 20.9119 25.8664 16.9219C24.9998 16.7082 24.0998 16.5657 23.1999 16.5657C22.2666 16.5657 21.3666 16.7082 20.5 16.9219C21.1333 20.9119 23.1666 22.9782 23.1666 22.9782Z" fill="#299FC0"/>
<path d="M33.9661 25.5786C30.2329 26.2555 28.333 28.4286 28.333 28.4286C28.333 28.4286 30.2663 30.6017 33.9994 31.3142C34.1994 30.388 34.3328 29.4617 34.3328 28.4642C34.3328 27.4667 34.1994 26.5049 33.9661 25.5786Z" fill="#299FC0"/>
<path d="M18.0334 28.4999C18.0334 28.4999 16.1002 26.3268 12.367 25.6143C12.167 26.5405 12.0337 27.4668 12.0337 28.4643C12.0337 29.4618 12.167 30.4236 12.367 31.3499C16.1335 30.6374 18.0334 28.4999 18.0334 28.4999Z" fill="#299FC0"/>
<path d="M28.6661 18.0977C26.7661 21.2327 26.8328 23.9401 26.8328 23.9401C26.8328 23.9401 29.4994 24.0114 32.4992 21.8739C31.4993 20.342 30.1993 19.0239 28.6661 18.0977Z" fill="#299FC0"/>
<path d="M19.5662 31.7776C19.5662 31.7776 16.633 31.7063 13.4331 34.2001C14.3331 35.9457 15.633 37.4063 17.1663 38.4751C19.6328 34.9838 19.5662 31.7776 19.5662 31.7776Z" fill="#299FC0"/>
<path d="M120.562 27.5735C120.562 29.1767 121.062 30.4948 122.029 31.5992C123.029 32.6679 124.228 33.2379 125.662 33.2379C126.962 33.2379 128.128 32.7035 129.128 31.5992C130.128 30.4948 130.628 29.2479 130.628 27.7873C130.628 26.2554 130.128 24.9017 129.128 23.7973C128.128 22.6929 126.962 22.1229 125.595 22.1229C124.195 22.1229 122.995 22.6573 122.029 23.6904C121.062 24.7592 120.562 26.0417 120.562 27.5735ZM130.828 36.6579V34.0217C130.095 34.841 129.295 35.4467 128.395 35.8385C127.495 36.266 126.562 36.4442 125.528 36.4442C123.162 36.4442 121.195 35.5892 119.629 33.9148C118.062 32.2404 117.295 30.1029 117.295 27.5735C117.295 26.3979 117.495 25.2579 117.895 24.1892C118.295 23.1204 118.829 22.1942 119.562 21.3748C120.362 20.4842 121.229 19.8429 122.162 19.4154C123.095 18.9879 124.162 18.7742 125.362 18.7742C126.428 18.7742 127.428 18.9879 128.328 19.3798C129.228 19.8073 130.062 20.4129 130.795 21.2323V19.2017H133.928V36.5867H130.828" fill="#1C6CA2"/>
<path d="M155.694 27.5735C155.694 29.1767 156.194 30.4948 157.16 31.5992C158.16 32.6679 159.36 33.2379 160.794 33.2379C162.093 33.2379 163.26 32.7035 164.26 31.5992C165.26 30.4948 165.76 29.2479 165.76 27.7873C165.76 26.2554 165.26 24.9017 164.26 23.7973C163.26 22.6929 162.093 22.1229 160.727 22.1229C159.327 22.1229 158.127 22.6573 157.16 23.6904C156.16 24.7592 155.694 26.0417 155.694 27.5735ZM164.06 44.2104C160.627 45.9204 155.127 43.1417 155.127 43.1417L156.46 39.8998C156.46 39.8998 159.094 41.7879 162.76 40.826C166.26 39.3298 165.96 36.0879 165.96 36.0879V34.0217C165.227 34.841 164.427 35.4467 163.527 35.8385C162.627 36.266 161.694 36.4442 160.66 36.4442C158.294 36.4442 156.327 35.5892 154.76 33.9148C153.194 32.2404 152.427 30.1029 152.427 27.5735C152.427 26.3979 152.627 25.2579 153.027 24.1892C153.427 23.1204 153.961 22.1942 154.694 21.3748C155.494 20.4842 156.36 19.8429 157.294 19.4154C158.227 18.9879 159.294 18.7742 160.494 18.7742C161.56 18.7742 162.56 18.9879 163.46 19.3798C164.36 19.7717 165.193 20.4129 165.927 21.2323V19.2017H169.06V36.0167C169.06 39.5792 167.493 42.4648 164.06 44.2104Z" fill="#1C6CA2"/>
<path d="M176.493 36.6226H173.493V19.1307H176.259V21.0545C176.859 20.3063 177.592 19.7363 178.292 19.3801C178.992 19.0238 179.826 18.8457 180.726 18.8457C182.792 18.8457 184.392 19.487 185.492 20.8051C186.592 22.1232 187.159 23.9757 187.159 26.3982V36.6226H184.092V27.0751C184.092 25.2938 183.792 23.9401 183.159 23.0851C182.526 22.2301 181.592 21.767 180.292 21.767C178.892 21.767 178.092 22.2657 177.459 23.2988C176.826 24.332 176.493 26.0063 176.493 28.3576V36.6226Z" fill="#1C6CA2"/>
<path d="M68.0975 36.6226H65.0977V19.1307H67.8642V21.0545C68.4642 20.3063 69.1975 19.7363 69.8975 19.3801C70.5974 19.0238 71.4307 18.8457 72.3307 18.8457C74.3973 18.8457 75.9972 19.487 77.0971 20.8051C78.1971 22.1232 78.7637 23.9757 78.7637 26.3982V36.6226H75.6972V27.0751C75.6972 25.2938 75.3972 23.9401 74.7639 23.0851C74.1306 22.2301 73.1973 21.767 71.8974 21.767C70.4974 21.767 69.6975 22.2657 69.0642 23.2988C68.4308 24.332 68.0975 26.0063 68.0975 28.3576V36.6226Z" fill="#299FC0"/>
<path d="M146.461 19.0593H149.894V36.6225H146.461V19.0593Z" fill="#1C6CA2"/>
<path d="M145.794 13.5731C145.794 12.1481 146.861 11.0081 148.194 11.0081C149.494 11.0081 150.594 12.1481 150.594 13.5731C150.594 14.9981 149.528 16.1381 148.194 16.1381C146.861 16.1381 145.794 14.9981 145.794 13.5731Z" fill="#1C6CA2"/>
<path d="M138.428 11.2219H141.861V36.6226H138.428V11.2219Z" fill="#1C6CA2"/>
<path d="M97.6968 19.0593H101.13V36.6225H97.6968V19.0593Z" fill="#299FC0"/>
<path d="M97.0303 13.5731C97.0303 12.1481 98.0969 11.0081 99.4302 11.0081C100.763 11.0081 101.83 12.1481 101.83 13.5731C101.83 14.9981 100.763 16.1381 99.4302 16.1381C98.0969 16.1381 97.0303 14.9981 97.0303 13.5731Z" fill="#299FC0"/>
<path d="M57.0645 19.0593H60.4976V36.6225H57.0645V19.0593Z" fill="#299FC0"/>
<path d="M56.3647 13.5731C56.3647 12.1481 57.4314 11.0081 58.7646 11.0081C60.0646 11.0081 61.1645 12.1481 61.1645 13.5731C61.1645 14.9981 60.0979 16.1381 58.7646 16.1381C57.4314 16.1381 56.3647 14.9981 56.3647 13.5731Z" fill="#299FC0"/>
<path d="M79.7637 19.0593H83.6635L87.7967 28.6781L92.2965 19.0593H96.1963L87.73 36.6225L79.7637 19.0593Z" fill="#299FC0"/>
<path d="M110.362 26.2555C109.129 25.828 107.529 25.1511 107.529 24.1536C107.529 23.0492 108.229 22.408 109.596 22.1942C110.762 22.0161 112.196 22.7642 112.529 23.1205L114.195 20.3417C112.996 19.5223 111.029 18.7386 109.096 19.0236C106.096 19.4511 104.229 21.4461 104.229 24.1536C104.229 27.5736 108.029 28.8561 109.262 29.2836C111.229 29.9605 111.929 30.5305 111.929 31.4567C111.929 33.238 109.729 33.3805 109.062 33.3805C107.796 33.3805 106.029 32.5255 105.429 32.2048L103.796 34.9836C104.096 35.1617 106.696 36.6223 109.062 36.6223C111.996 36.6223 115.195 35.0192 115.195 31.4923C115.229 27.9298 111.696 26.7186 110.362 26.2555Z" fill="#299FC0"/>
<path d="M199.592 22.693C199.592 24.403 198.292 25.7924 196.692 25.7924C195.092 25.7924 193.792 24.403 193.792 22.693C193.792 20.983 195.092 19.5936 196.692 19.5936C198.292 19.5936 199.592 20.983 199.592 22.693ZM196.692 18.9167C194.759 18.9167 193.159 20.5911 193.159 22.693C193.159 24.7592 194.726 26.4692 196.692 26.4692C198.626 26.4692 200.226 24.7949 200.226 22.693C200.226 20.5911 198.626 18.9167 196.692 18.9167Z" fill="#1C6CA2"/>
<path d="M195.892 22.4436H196.459C197.059 22.4436 197.426 22.1586 197.426 21.7311C197.426 21.268 197.026 21.0542 196.426 21.0542C196.159 21.0542 195.959 21.0899 195.892 21.0899V22.4436ZM195.326 20.7692C195.592 20.7336 196.026 20.698 196.392 20.698C196.992 20.698 197.359 20.8049 197.626 21.0186C197.826 21.1611 197.959 21.4461 197.959 21.7311C197.959 22.2299 197.592 22.5505 197.159 22.693C197.492 22.7999 197.692 23.0493 197.792 23.4411C197.926 23.9755 198.026 24.3317 198.126 24.4742H197.559C197.492 24.3674 197.392 24.0467 197.292 23.5836C197.159 23.0849 196.926 22.8711 196.426 22.8711H195.892V24.4742H195.326V20.7692Z" fill="#1C6CA2"/>
<path d="M195.979 1.29395L196.13 5.42627L192.165 4.01855L191.514 6.24365L195.57 7.46973L192.921 10.6484L194.783 12.0259L197.129 8.6958L199.491 12.0259L201.353 10.6484L198.704 7.46973L202.76 6.24365L202.109 4.01855L198.144 5.42627L198.295 1.29395H195.979Z" fill="black"/>
<path d="M195.979 1.29395L196.13 5.42627L192.165 4.01855L191.514 6.24365L195.57 7.46973L192.921 10.6484L194.783 12.0259L197.129 8.6958L199.491 12.0259L201.353 10.6484L198.704 7.46973L202.76 6.24365L202.109 4.01855L198.144 5.42627L198.295 1.29395H195.979Z" fill="#009EE0" fill-opacity="0.6"/>
</svg>
