<svg width="46" height="46" viewBox="0 0 46 46" fill="none" xmlns="http://www.w3.org/2000/svg">
<g clip-path="url(#clip0)">
<path d="M45.0416 22.0416H22.0683L27.3555 19.8508C27.8441 19.6486 28.0762 19.0871 27.874 18.5986C27.67 18.1082 27.1066 17.8779 26.6218 18.0801L21.3338 20.2713L29.4481 12.1578C29.8225 11.7835 29.8225 11.177 29.4481 10.8027C29.0737 10.4283 28.4673 10.4283 28.093 10.8027L19.9795 18.9153L22.1689 13.6272C22.371 13.1378 22.1389 12.5771 21.6504 12.375C21.1618 12.1737 20.6022 12.4059 20.3981 12.8935L18.2082 18.183V6.70836C18.2084 6.17864 17.7797 5.75 17.25 5.75C16.7203 5.75 16.2916 6.17864 16.2916 6.70836V18.1831L14.1017 12.8936C13.8995 12.406 13.3436 12.1748 12.8495 12.3751C12.3609 12.5772 12.1288 13.1379 12.331 13.6273L14.5203 18.9153L6.40703 10.8028C6.03265 10.4284 5.4262 10.4284 5.05191 10.8028C4.67754 11.1772 4.67754 11.7836 5.05191 12.1579L13.1662 20.2714L7.87822 18.0802C7.39154 17.878 6.83001 18.1083 6.62598 18.5986C6.42383 19.0872 6.65589 19.6487 7.14446 19.8509L12.4317 22.0417H0.958363C0.428645 22.0416 0 22.4703 0 23C0 23.5297 0.428645 23.9584 0.958363 23.9584H12.4317L7.14446 26.1492C6.65589 26.3514 6.42383 26.9129 6.62598 27.4014C6.77943 27.7702 7.13512 27.9929 7.5113 27.9929C7.63483 27.9929 7.75837 27.9695 7.87813 27.9198L13.1661 25.7286L5.05182 33.8421C4.67745 34.2165 4.67745 34.8229 5.05182 35.1972C5.23897 35.3843 5.48424 35.478 5.72943 35.478C5.97461 35.478 6.21979 35.3843 6.40703 35.1972L14.5205 27.0847L12.3311 32.3727C12.129 32.8621 12.3611 33.4228 12.8496 33.6249C12.9694 33.6745 13.0948 33.698 13.2165 33.698C13.5927 33.698 13.9483 33.4752 14.1018 33.1065L16.2917 27.817V39.2917C16.2917 39.8214 16.7204 40.2501 17.2501 40.2501C17.7798 40.2501 18.2085 39.8214 18.2085 39.2917V27.817L20.3984 33.1065C20.5518 33.4752 20.9075 33.698 21.2837 33.698C21.4054 33.698 21.5308 33.6746 21.6505 33.6249C22.1391 33.4228 22.3712 32.8621 22.169 32.3727L19.9797 27.0847L28.0932 35.1972C28.2803 35.3843 28.5256 35.478 28.7708 35.478C29.0159 35.478 29.2611 35.3843 29.4484 35.1972C29.8227 34.8228 29.8227 34.2164 29.4484 33.8421L21.3341 25.7286L26.6221 27.9198C26.7418 27.9694 26.8653 27.9929 26.9889 27.9929C27.3651 27.9929 27.7208 27.7702 27.8742 27.4014C28.0764 26.9129 27.8443 26.3514 27.3557 26.1492L22.0685 23.9584H45.0418C45.5715 23.9584 46.0002 23.5297 46.0002 23C46.0002 22.4703 45.5714 22.0416 45.0416 22.0416ZM17.25 24.9166C17.9506 24.9166 18.5377 24.5205 18.8721 23.9583H19.9485C19.5515 25.0714 18.4977 25.875 17.25 25.875C15.6646 25.875 14.375 24.5854 14.375 23C14.375 21.4146 15.6646 20.125 17.25 20.125C18.4977 20.125 19.5515 20.9286 19.9485 22.0416H18.8721C18.5378 21.4794 17.9506 21.0833 17.25 21.0833C16.1924 21.0833 15.3334 21.9433 15.3334 22.9999C15.3334 24.0565 16.1924 24.9166 17.25 24.9166Z" fill="black"/>
<path d="M45.0416 22.0416H22.0683L27.3555 19.8508C27.8441 19.6486 28.0762 19.0871 27.874 18.5986C27.67 18.1082 27.1066 17.8779 26.6218 18.0801L21.3338 20.2713L29.4481 12.1578C29.8225 11.7835 29.8225 11.177 29.4481 10.8027C29.0737 10.4283 28.4673 10.4283 28.093 10.8027L19.9795 18.9153L22.1689 13.6272C22.371 13.1378 22.1389 12.5771 21.6504 12.375C21.1618 12.1737 20.6022 12.4059 20.3981 12.8935L18.2082 18.183V6.70836C18.2084 6.17864 17.7797 5.75 17.25 5.75C16.7203 5.75 16.2916 6.17864 16.2916 6.70836V18.1831L14.1017 12.8936C13.8995 12.406 13.3436 12.1748 12.8495 12.3751C12.3609 12.5772 12.1288 13.1379 12.331 13.6273L14.5203 18.9153L6.40703 10.8028C6.03265 10.4284 5.4262 10.4284 5.05191 10.8028C4.67754 11.1772 4.67754 11.7836 5.05191 12.1579L13.1662 20.2714L7.87822 18.0802C7.39154 17.878 6.83001 18.1083 6.62598 18.5986C6.42383 19.0872 6.65589 19.6487 7.14446 19.8509L12.4317 22.0417H0.958363C0.428645 22.0416 0 22.4703 0 23C0 23.5297 0.428645 23.9584 0.958363 23.9584H12.4317L7.14446 26.1492C6.65589 26.3514 6.42383 26.9129 6.62598 27.4014C6.77943 27.7702 7.13512 27.9929 7.5113 27.9929C7.63483 27.9929 7.75837 27.9695 7.87813 27.9198L13.1661 25.7286L5.05182 33.8421C4.67745 34.2165 4.67745 34.8229 5.05182 35.1972C5.23897 35.3843 5.48424 35.478 5.72943 35.478C5.97461 35.478 6.21979 35.3843 6.40703 35.1972L14.5205 27.0847L12.3311 32.3727C12.129 32.8621 12.3611 33.4228 12.8496 33.6249C12.9694 33.6745 13.0948 33.698 13.2165 33.698C13.5927 33.698 13.9483 33.4752 14.1018 33.1065L16.2917 27.817V39.2917C16.2917 39.8214 16.7204 40.2501 17.2501 40.2501C17.7798 40.2501 18.2085 39.8214 18.2085 39.2917V27.817L20.3984 33.1065C20.5518 33.4752 20.9075 33.698 21.2837 33.698C21.4054 33.698 21.5308 33.6746 21.6505 33.6249C22.1391 33.4228 22.3712 32.8621 22.169 32.3727L19.9797 27.0847L28.0932 35.1972C28.2803 35.3843 28.5256 35.478 28.7708 35.478C29.0159 35.478 29.2611 35.3843 29.4484 35.1972C29.8227 34.8228 29.8227 34.2164 29.4484 33.8421L21.3341 25.7286L26.6221 27.9198C26.7418 27.9694 26.8653 27.9929 26.9889 27.9929C27.3651 27.9929 27.7208 27.7702 27.8742 27.4014C28.0764 26.9129 27.8443 26.3514 27.3557 26.1492L22.0685 23.9584H45.0418C45.5715 23.9584 46.0002 23.5297 46.0002 23C46.0002 22.4703 45.5714 22.0416 45.0416 22.0416ZM17.25 24.9166C17.9506 24.9166 18.5377 24.5205 18.8721 23.9583H19.9485C19.5515 25.0714 18.4977 25.875 17.25 25.875C15.6646 25.875 14.375 24.5854 14.375 23C14.375 21.4146 15.6646 20.125 17.25 20.125C18.4977 20.125 19.5515 20.9286 19.9485 22.0416H18.8721C18.5378 21.4794 17.9506 21.0833 17.25 21.0833C16.1924 21.0833 15.3334 21.9433 15.3334 22.9999C15.3334 24.0565 16.1924 24.9166 17.25 24.9166Z" fill="#009EE0" fill-opacity="0.8"/>
<path d="M45.0416 22.0416H22.0683L27.3555 19.8508C27.8441 19.6486 28.0762 19.0871 27.874 18.5986C27.67 18.1082 27.1066 17.8779 26.6218 18.0801L21.3338 20.2713L29.4481 12.1578C29.8225 11.7835 29.8225 11.177 29.4481 10.8027C29.0737 10.4283 28.4673 10.4283 28.093 10.8027L19.9795 18.9153L22.1689 13.6272C22.371 13.1378 22.1389 12.5771 21.6504 12.375C21.1618 12.1737 20.6022 12.4059 20.3981 12.8935L18.2082 18.183V6.70836C18.2084 6.17864 17.7797 5.75 17.25 5.75C16.7203 5.75 16.2916 6.17864 16.2916 6.70836V18.1831L14.1017 12.8936C13.8995 12.406 13.3436 12.1748 12.8495 12.3751C12.3609 12.5772 12.1288 13.1379 12.331 13.6273L14.5203 18.9153L6.40703 10.8028C6.03265 10.4284 5.4262 10.4284 5.05191 10.8028C4.67754 11.1772 4.67754 11.7836 5.05191 12.1579L13.1662 20.2714L7.87822 18.0802C7.39154 17.878 6.83001 18.1083 6.62598 18.5986C6.42383 19.0872 6.65589 19.6487 7.14446 19.8509L12.4317 22.0417H0.958363C0.428645 22.0416 0 22.4703 0 23C0 23.5297 0.428645 23.9584 0.958363 23.9584H12.4317L7.14446 26.1492C6.65589 26.3514 6.42383 26.9129 6.62598 27.4014C6.77943 27.7702 7.13512 27.9929 7.5113 27.9929C7.63483 27.9929 7.75837 27.9695 7.87813 27.9198L13.1661 25.7286L5.05182 33.8421C4.67745 34.2165 4.67745 34.8229 5.05182 35.1972C5.23897 35.3843 5.48424 35.478 5.72943 35.478C5.97461 35.478 6.21979 35.3843 6.40703 35.1972L14.5205 27.0847L12.3311 32.3727C12.129 32.8621 12.3611 33.4228 12.8496 33.6249C12.9694 33.6745 13.0948 33.698 13.2165 33.698C13.5927 33.698 13.9483 33.4752 14.1018 33.1065L16.2917 27.817V39.2917C16.2917 39.8214 16.7204 40.2501 17.2501 40.2501C17.7798 40.2501 18.2085 39.8214 18.2085 39.2917V27.817L20.3984 33.1065C20.5518 33.4752 20.9075 33.698 21.2837 33.698C21.4054 33.698 21.5308 33.6746 21.6505 33.6249C22.1391 33.4228 22.3712 32.8621 22.169 32.3727L19.9797 27.0847L28.0932 35.1972C28.2803 35.3843 28.5256 35.478 28.7708 35.478C29.0159 35.478 29.2611 35.3843 29.4484 35.1972C29.8227 34.8228 29.8227 34.2164 29.4484 33.8421L21.3341 25.7286L26.6221 27.9198C26.7418 27.9694 26.8653 27.9929 26.9889 27.9929C27.3651 27.9929 27.7208 27.7702 27.8742 27.4014C28.0764 26.9129 27.8443 26.3514 27.3557 26.1492L22.0685 23.9584H45.0418C45.5715 23.9584 46.0002 23.5297 46.0002 23C46.0002 22.4703 45.5714 22.0416 45.0416 22.0416ZM17.25 24.9166C17.9506 24.9166 18.5377 24.5205 18.8721 23.9583H19.9485C19.5515 25.0714 18.4977 25.875 17.25 25.875C15.6646 25.875 14.375 24.5854 14.375 23C14.375 21.4146 15.6646 20.125 17.25 20.125C18.4977 20.125 19.5515 20.9286 19.9485 22.0416H18.8721C18.5378 21.4794 17.9506 21.0833 17.25 21.0833C16.1924 21.0833 15.3334 21.9433 15.3334 22.9999C15.3334 24.0565 16.1924 24.9166 17.25 24.9166Z" stroke="#EEF2F5" stroke-width="0.3"/>
</g>
<defs>
<clipPath id="clip0">
<rect width="46" height="46" fill="white"/>
</clipPath>
</defs>
</svg>
