<svg xmlns="http://www.w3.org/2000/svg" viewBox="0 0 107.05 31.8"><defs><style>.cls-1{fill:#545556;}.cls-2{fill:#009fe3;}</style></defs><title>Темный</title><g id="Слой_2" data-name="Слой 2"><g id="Слой_1-2" data-name="Слой 1"><polygon class="cls-1" points="22.61 2.48 21.95 2.48 15.38 18.19 16.66 18.19 22.28 4.75 27.9 18.19 29.18 18.19 22.61 2.48"/><path class="cls-1" d="M90.45,10.23H84.88l.48-1.15h5.09Zm-6.78-6.6H92.3V2.48H82.45V18.2H92.58V17.05H83.67Z"/><path class="cls-1" d="M77.62,2.48V18.2H76.4v-8H68.07l.48-1.15H76.4V2.48Zm-12,15.72h1.22V2.48H65.64Z"/><path class="cls-1" d="M105.81,3.68a4.65,4.65,0,0,0-3.38-1.2h-5.3V18.2h1.22V3.63h4a3.47,3.47,0,0,1,2.55.87,3,3,0,0,1,.88,2.26A3,3,0,0,1,104.94,9a3.55,3.55,0,0,1-2.56.86H100L99.56,11h2.87a4.7,4.7,0,0,0,3.38-1.2,4.11,4.11,0,0,0,1.24-3.09A4.06,4.06,0,0,0,105.81,3.68Z"/><polygon class="cls-1" points="58.09 0 52.03 0 51.55 1.15 57.62 1.15 58.09 0"/><polygon class="cls-1" points="59.94 2.46 50.05 15.65 50.05 2.48 48.83 2.48 48.83 18.19 49.7 18.19 59.59 5 59.59 18.19 60.81 18.19 60.81 2.46 59.94 2.46"/><path class="cls-1" d="M11.8,4.61A7.78,7.78,0,0,0,6.1,2.23,7.81,7.81,0,0,0,.38,4.61,3.83,3.83,0,0,0,0,5.06L.52,6.28h0a6.19,6.19,0,0,1,.7-.84,6.81,6.81,0,0,1,4.88-2,6.63,6.63,0,0,1,4.86,2,6.59,6.59,0,0,1,2,4.87,6.59,6.59,0,0,1-2,4.88,6.63,6.63,0,0,1-4.86,2,6.7,6.7,0,0,1-4.88-2C1,15,.54,14.38.51,14.35L0,15.57A3.54,3.54,0,0,0,.38,16,8,8,0,0,0,6.1,18.42,7.78,7.78,0,0,0,11.8,16a7.84,7.84,0,0,0,2.38-5.72A7.84,7.84,0,0,0,11.8,4.61Z"/><path class="cls-2" d="M28.08,31.36a3.15,3.15,0,1,1,2.39-5.17l.2-.46a3.59,3.59,0,1,0,0,5l-.19-.47A3.14,3.14,0,0,1,28.08,31.36Z"/><path class="cls-2" d="M82.25,30.22a3.15,3.15,0,1,1,0-4l.19-.46a3.58,3.58,0,1,0,0,5Z"/><rect class="cls-2" x="38.14" y="20.86" width="0.44" height="10.73"/><path class="cls-2" d="M46.67,24.72h.44v6.87h-.44Zm-.11-3a.47.47,0,0,0-.14.33.48.48,0,0,0,.14.34.45.45,0,0,0,.33.14.48.48,0,0,0,.48-.48.47.47,0,0,0-.14-.33A.48.48,0,0,0,46.56,21.72Z"/><path class="cls-2" d="M68.16,24.72h.44v6.87h-.44Zm-.11-3a.47.47,0,0,0-.14.33.48.48,0,0,0,.14.34.45.45,0,0,0,.33.14.49.49,0,0,0,.34-.14.47.47,0,0,0,.13-.34.46.46,0,0,0-.13-.33A.48.48,0,0,0,68.05,21.72Z"/><path class="cls-2" d="M57.62,24.61a2.71,2.71,0,0,0-2.23,1.19V24.72H55v6.87h.44V27a2.26,2.26,0,0,1,4.5.28v4.34h.44V27.25A2.71,2.71,0,0,0,57.62,24.61Z"/><polygon class="cls-2" points="6.1 7.61 5.47 9.8 3.28 10.43 5.47 11.05 6.1 13.24 6.72 11.05 16.25 10.43 6.72 9.8 6.1 7.61"/><polygon class="cls-1" points="38.69 2.48 38.03 2.48 31.46 18.19 32.74 18.19 38.36 4.75 41.37 11.94 36.56 11.94 36.08 13.09 41.85 13.09 43.98 18.19 45.26 18.19 38.69 2.48"/><path class="cls-1" d="M77.62,2.48V18.2H76.4v-8H68.07l.48-1.15H76.4V2.48Zm-12,15.72h1.22V2.48H65.64Z"/></g></g></svg>