<svg width="33" height="48" viewBox="0 0 33 48" fill="none" xmlns="http://www.w3.org/2000/svg">
<path d="M30.8478 16.7663C30.8478 19.4924 30.1424 22.0271 28.9348 24.2152L22.6098 35.3586L16.5001 46.1433L10.3903 35.3586L4.07733 24.2152C2.84582 22.0271 2.15234 19.4924 2.15234 16.7663C2.15234 8.54024 8.57296 1.88049 16.5001 1.88049C24.4272 1.88049 30.8478 8.54024 30.8478 16.7663ZM23.674 16.2282C23.674 12.2707 20.4577 9.05437 16.5001 9.05437C12.5425 9.05437 9.32622 12.2707 9.32622 16.2282C9.32622 20.1858 12.5425 23.4021 16.5001 23.4021C20.4577 23.4021 23.674 20.1858 23.674 16.2282Z" fill="white"/>
<path d="M30.8478 16.7663C30.8478 19.4924 30.1424 22.0271 28.9348 24.2152L22.6098 35.3586L16.5001 46.1433L10.3903 35.3586L4.07733 24.2152C2.84582 22.0271 2.15234 19.4924 2.15234 16.7663C2.15234 8.54024 8.57296 1.88049 16.5001 1.88049C24.4272 1.88049 30.8478 8.54024 30.8478 16.7663ZM23.674 16.2282C23.674 12.2707 20.4577 9.05437 16.5001 9.05437C12.5425 9.05437 9.32622 12.2707 9.32622 16.2282C9.32622 20.1858 12.5425 23.4021 16.5001 23.4021C20.4577 23.4021 23.674 20.1858 23.674 16.2282Z" fill="#009EE0" fill-opacity="0.2"/>
<path fill-rule="evenodd" clip-rule="evenodd" d="M24.6643 34.163L29.9825 24.7927C31.3312 22.3488 32.0438 19.5737 32.0438 16.7664C32.0438 7.89946 25.0708 0.684937 16.5004 0.684937C7.93004 0.684937 0.957031 7.89946 0.957031 16.7664C0.957031 19.6072 1.67681 22.3859 3.03746 24.8047L8.33895 34.163L9.69362 36.5543L15.4602 46.7328C15.8847 47.4813 17.1162 47.4813 17.5406 46.7328L23.3072 36.5543L24.6643 34.163ZM16.5004 3.07623C9.24884 3.07623 3.34832 9.21826 3.34832 16.7664C3.34832 19.1971 3.96169 21.5705 5.12027 23.6294L11.4297 34.768C11.4297 34.768 11.4309 34.768 11.4309 34.7692L16.5004 43.7174L21.57 34.7692V34.768L27.8949 23.6246C29.0427 21.5466 29.6525 19.1708 29.6525 16.7664C29.6525 9.21826 23.752 3.07623 16.5004 3.07623Z" fill="#009EE0"/>
<path d="M16.5004 24.5978C21.1144 24.5978 24.8699 20.8435 24.8699 16.2283C24.8699 11.6131 21.1144 7.85876 16.5004 7.85876C11.8864 7.85876 8.13086 11.6131 8.13086 16.2283C8.13086 20.8435 11.8864 24.5978 16.5004 24.5978ZM16.5004 10.2501C19.7968 10.2501 22.4786 12.9319 22.4786 16.2283C22.4786 19.5247 19.7968 22.2065 16.5004 22.2065C13.204 22.2065 10.5222 19.5247 10.5222 16.2283C10.5222 12.9319 13.204 10.2501 16.5004 10.2501Z" fill="#009EE0"/>
</svg>
