<svg width="21" height="21" viewBox="0 0 21 21" fill="none" xmlns="http://www.w3.org/2000/svg">
<path d="M15.9784 7.73786C15.9784 8.77873 15.7091 9.74655 15.248 10.582L12.833 14.8367L10.5002 18.9545L8.16739 14.8367L5.75697 10.582C5.28675 9.74655 5.02197 8.77873 5.02197 7.73786C5.02197 4.59701 7.47348 2.0542 10.5002 2.0542C13.5269 2.0542 15.9784 4.59701 15.9784 7.73786ZM13.2393 7.53243C13.2393 6.02135 12.0113 4.79331 10.5002 4.79331C8.98913 4.79331 7.76109 6.02135 7.76109 7.53243C7.76109 9.04351 8.98913 10.2715 10.5002 10.2715C12.0113 10.2715 13.2393 9.04351 13.2393 7.53243Z" fill="white"/>
<path d="M15.9784 7.73786C15.9784 8.77873 15.7091 9.74655 15.248 10.582L12.833 14.8367L10.5002 18.9545L8.16739 14.8367L5.75697 10.582C5.28675 9.74655 5.02197 8.77873 5.02197 7.73786C5.02197 4.59701 7.47348 2.0542 10.5002 2.0542C13.5269 2.0542 15.9784 4.59701 15.9784 7.73786ZM13.2393 7.53243C13.2393 6.02135 12.0113 4.79331 10.5002 4.79331C8.98913 4.79331 7.76109 6.02135 7.76109 7.53243C7.76109 9.04351 8.98913 10.2715 10.5002 10.2715C12.0113 10.2715 13.2393 9.04351 13.2393 7.53243Z" fill="#009EE0" fill-opacity="0.2"/>
<path fill-rule="evenodd" clip-rule="evenodd" d="M13.6173 14.3802L15.6479 10.8025C16.1628 9.86933 16.4349 8.80975 16.4349 7.73784C16.4349 4.35229 13.7725 1.59766 10.5002 1.59766C7.22785 1.59766 4.56543 4.35229 4.56543 7.73784C4.56543 8.82253 4.84025 9.88348 5.35977 10.807L7.38398 14.3802L7.90122 15.2932L10.103 19.1796C10.2651 19.4654 10.7353 19.4654 10.8974 19.1796L13.0991 15.2932L13.6173 14.3802ZM10.5002 2.51069C7.73139 2.51069 5.47847 4.85583 5.47847 7.73784C5.47847 8.66594 5.71266 9.57213 6.15503 10.3583L8.56408 14.6112C8.56408 14.6112 8.56454 14.6112 8.56454 14.6116L10.5002 18.0282L12.4358 14.6116V14.6112L14.8508 10.3564C15.2891 9.563 15.5219 8.6559 15.5219 7.73784C15.5219 4.85583 13.269 2.51069 10.5002 2.51069Z" fill="#009EE0"/>
<path d="M10.5003 10.7282C12.262 10.7282 13.696 9.29471 13.696 7.53255C13.696 5.77038 12.262 4.33691 10.5003 4.33691C8.73861 4.33691 7.30469 5.77038 7.30469 7.53255C7.30469 9.29471 8.73861 10.7282 10.5003 10.7282ZM10.5003 5.24995C11.7589 5.24995 12.7829 6.27393 12.7829 7.53255C12.7829 8.79117 11.7589 9.81515 10.5003 9.81515C9.2417 9.81515 8.21773 8.79117 8.21773 7.53255C8.21773 6.27393 9.2417 5.24995 10.5003 5.24995Z" fill="#009EE0"/>
</svg>
