<svg width="40" height="32" viewBox="0 0 40 32" fill="none" xmlns="http://www.w3.org/2000/svg">
<path d="M38.112 6.16686L38.1117 6.22194L38.1174 6.27672C38.1256 6.35575 38.1321 6.43515 38.1369 6.51484L38.1458 6.84427V25.3359V25.6846C38.1458 28.4307 35.9197 30.6569 33.1735 30.6569H33.1599L33.1464 30.6573L32.8015 30.6667L6.51977 30.6667L6.51823 30.6667L6.16135 30.6661C3.41851 30.6619 1.19724 28.4372 1.19724 25.6944V25.6808L1.19687 25.6672L1.1875 25.3223V6.83073V6.83066C1.18749 6.63841 1.19786 6.44722 1.21831 6.25784L1.22409 6.20431V6.15048C1.22409 3.58423 3.30668 1.50506 5.87292 1.50927L6.15817 1.50974L6.17258 1.50976L6.18698 1.50937L6.53181 1.5H32.8151H33.4729C36.0459 1.5 38.1273 3.59394 38.112 6.16686Z" stroke="#54575A" stroke-width="2"/>
</svg>
