<svg width="24" height="25" viewBox="0 0 24 25" fill="none" xmlns="http://www.w3.org/2000/svg">
<path d="M2 6.5C2 6.23478 2.12511 5.98043 2.34781 5.79289C2.57051 5.60536 2.87256 5.5 3.1875 5.5H19.8125C20.1274 5.5 20.4295 5.60536 20.6522 5.79289C20.8749 5.98043 21 6.23478 21 6.5C21 6.76522 20.8749 7.01957 20.6522 7.20711C20.4295 7.39464 20.1274 7.5 19.8125 7.5H3.1875C2.87256 7.5 2.57051 7.39464 2.34781 7.20711C2.12511 7.01957 2 6.76522 2 6.5Z" fill="#009EE0"/>
<path d="M2 18.5C2 18.2348 2.12511 17.9804 2.34781 17.7929C2.57051 17.6054 2.87256 17.5 3.1875 17.5H19.8125C20.1274 17.5 20.4295 17.6054 20.6522 17.7929C20.8749 17.9804 21 18.2348 21 18.5C21 18.7652 20.8749 19.0196 20.6522 19.2071C20.4295 19.3946 20.1274 19.5 19.8125 19.5H3.1875C2.87256 19.5 2.57051 19.3946 2.34781 19.2071C2.12511 19.0196 2 18.7652 2 18.5Z" fill="#009EE0"/>
<path d="M3.2 11.5C2.88174 11.5 2.57652 11.6054 2.35147 11.7929C2.12643 11.9804 2 12.2348 2 12.5C2 12.7652 2.12643 13.0196 2.35147 13.2071C2.57652 13.3946 2.88174 13.5 3.2 13.5H12.8C13.1183 13.5 13.4235 13.3946 13.6485 13.2071C13.8736 13.0196 14 12.7652 14 12.5C14 12.2348 13.8736 11.9804 13.6485 11.7929C13.4235 11.6054 13.1183 11.5 12.8 11.5H3.2Z" fill="#009EE0"/>
</svg>
