<svg width="200" height="19" viewBox="0 0 200 19" fill="none" xmlns="http://www.w3.org/2000/svg">
<g clip-path="url(#clip0)">
<path fill-rule="evenodd" clip-rule="evenodd" d="M39.4715 1.98698C36.9397 2.79713 36.2077 3.68568 36.1137 6.76948C36.0666 8.45511 35.9592 13.4597 36.248 14.8644C37.1143 18.876 44.7905 19.0132 48.6453 17.9025C51.1234 17.1838 51.6069 16.1646 51.6539 13.1919C51.7009 10.9966 51.6539 9.03004 51.7009 7.37709C51.7009 4.11036 50.9421 2.10458 47.282 1.70604C44.9784 1.43817 41.5131 1.34017 39.4648 1.98698H39.4715ZM48.6855 13.8778V6.50813C48.746 4.43703 45.5761 4.7049 43.9845 4.7049C42.2385 4.7049 39.1895 4.5285 39.1895 6.50813V13.8778C39.1895 14.9102 40.5326 15.2956 42.0571 15.4002C43.4551 15.4475 44.8548 15.4082 46.2478 15.2826C47.6715 15.1781 48.5982 14.7926 48.6587 13.8648L48.6855 13.8778Z" fill="#EC2327"/>
<path fill-rule="evenodd" clip-rule="evenodd" d="M20.3578 1.56691C24.0649 1.56691 28.233 1.32054 30.5237 1.77333C32.8145 2.22612 34.0141 3.62445 34.0141 6.43442C34.0141 11.0955 32.4959 12.4272 29.1276 12.7669C29.0306 12.7741 28.9331 12.7741 28.8361 12.7669C26.8436 12.9333 24.2141 12.7669 20.8864 12.7669V16.9418C20.8864 17.3551 20.7193 17.7514 20.4219 18.0437C20.1245 18.3358 19.7211 18.5 19.3005 18.5C18.8799 18.5 18.4765 18.3358 18.1791 18.0437C17.8817 17.7514 17.7146 17.3551 17.7146 16.9418V14.2784C17.6536 12.3207 17.7146 10.0035 17.7146 8.06581C17.7146 6.4877 17.7756 4.79638 17.7146 3.21826C17.6868 3.03635 17.6957 2.85082 17.7409 2.67231C17.7861 2.49379 17.8668 2.32581 17.9783 2.17797C18.0897 2.03013 18.2298 1.90535 18.3903 1.81078C18.5509 1.7162 18.729 1.6537 18.9142 1.62684C19.3899 1.55983 19.8712 1.53975 20.351 1.56691H20.3578ZM28.9039 4.70981H20.8931V9.69053H27.9415C29.9748 9.69053 31.0185 9.55733 31.1065 7.28008C31.1947 5.0028 30.5101 4.75643 28.9039 4.70981Z" fill="#EC2327"/>
<path d="M15.6461 16.9342V10.3808V7.4696C15.6595 4.15114 14.8695 2.11466 11.2073 1.70736C8.911 1.44696 5.4296 1.32677 3.37425 1.99447C0.856954 2.80906 0.120509 3.71046 0.0267798 6.84864C0.0267798 8.05717 -0.0334747 10.9417 0.0267798 13.0382V16.9175C0.0276571 17.1227 0.0690481 17.3257 0.14859 17.515C0.228131 17.7042 0.344265 17.876 0.490361 18.0204C0.636457 18.1649 0.809654 18.2792 1.00006 18.3569C1.19047 18.4346 1.39436 18.4741 1.60009 18.4732C2.01505 18.4733 2.41322 18.3098 2.70788 18.0185C3.00255 17.727 3.16988 17.3314 3.17341 16.9175V10.6212V10.501V6.58156C3.17341 4.57179 6.23299 4.75206 7.98708 4.75206C9.547 4.75206 12.6334 4.48499 12.5731 6.58156V15.8091V16.9443C12.574 17.1495 12.6154 17.3524 12.6949 17.5416C12.7745 17.7309 12.8906 17.9026 13.0367 18.0471C13.1828 18.1916 13.356 18.3059 13.5464 18.3836C13.7368 18.4613 13.9407 18.5009 14.1465 18.5C14.5602 18.5 14.9569 18.3361 15.2495 18.0443C15.542 17.7526 15.6461 17.3468 15.6461 16.9342Z" fill="#EC2327"/>
<path fill-rule="evenodd" clip-rule="evenodd" d="M53.7422 16.94C53.744 16.5232 53.9117 16.124 54.209 15.8293C54.5063 15.5346 54.909 15.3683 55.3294 15.3665H56.383L63.252 2.35072C63.4005 2.07136 63.6293 1.84203 63.9096 1.69183C64.1897 1.54162 64.5086 1.47733 64.8257 1.5071C65.14 1.47875 65.4556 1.54386 65.7323 1.69412C66.009 1.84438 66.2342 2.07297 66.3792 2.35072L73.2482 15.3665H73.9236C74.344 15.3683 74.7467 15.5346 75.044 15.8293C75.3413 16.124 75.5091 16.5232 75.5109 16.94C75.51 17.1457 75.4683 17.3492 75.388 17.539C75.3077 17.7288 75.1906 17.901 75.0432 18.0459C74.8958 18.1907 74.721 18.3054 74.529 18.3833C74.3369 18.4612 74.1312 18.5009 73.9236 18.5H55.3294C55.1218 18.5009 54.9161 18.4612 54.724 18.3833C54.532 18.3054 54.3573 18.1907 54.2098 18.0459C54.0624 17.901 53.9453 17.7288 53.865 17.539C53.7848 17.3492 53.743 17.1457 53.7422 16.94ZM64.8257 6.1537L59.956 15.3665H69.6753L64.8257 6.1537Z" fill="#117DC1"/>
<path fill-rule="evenodd" clip-rule="evenodd" d="M96.9891 1.55932C97.2175 1.56019 97.4444 1.60133 97.6552 1.68038C97.8667 1.75944 98.0583 1.87487 98.2191 2.02008C98.3806 2.16528 98.5083 2.33743 98.5952 2.52667C98.6814 2.71592 98.726 2.91858 98.7244 3.12305V7.71445L108.12 1.78556C108.499 1.54883 108.967 1.45391 109.424 1.52104C109.88 1.58818 110.289 1.81206 110.564 2.14489C110.696 2.31298 110.791 2.50286 110.841 2.70364C110.892 2.90441 110.898 3.11215 110.858 3.31492C110.819 3.51769 110.735 3.71151 110.611 3.88526C110.488 4.05902 110.328 4.20929 110.139 4.32746L101.198 9.99682L110.139 15.6662C110.518 15.906 110.776 16.2703 110.855 16.6792C110.935 17.0883 110.83 17.5088 110.564 17.8488C110.29 18.1823 109.882 18.4078 109.426 18.4773C108.97 18.5469 108.501 18.4551 108.12 18.2214L98.7244 12.2859V16.9438C98.7244 17.1471 98.6798 17.3484 98.5921 17.5362C98.5052 17.7238 98.3767 17.8944 98.216 18.0378C98.0544 18.1812 97.8629 18.2948 97.6529 18.372C97.4421 18.4492 97.2167 18.4885 96.9891 18.4876C96.5283 18.4877 96.086 18.3256 95.7583 18.0366C95.4306 17.7477 95.2437 17.3551 95.2383 16.9438V3.12305C95.2421 2.7094 95.4275 2.31367 95.7552 2.02117C96.0829 1.72866 96.526 1.56279 96.9891 1.55932Z" fill="#117DC1"/>
<path fill-rule="evenodd" clip-rule="evenodd" d="M122.437 4.63228V16.9472C122.433 17.3592 122.255 17.753 121.94 18.0437C121.626 18.3343 121.2 18.4982 120.756 18.5C120.536 18.5009 120.317 18.4613 120.113 18.3837C119.909 18.306 119.723 18.1919 119.567 18.0476C119.411 17.9033 119.287 17.7318 119.203 17.543C119.118 17.3542 119.074 17.1517 119.074 16.9472V4.63228H114.622C114.174 4.63229 113.745 4.46843 113.427 4.17635C113.11 3.88428 112.93 3.48765 112.926 3.07283C112.93 2.65678 113.109 2.25875 113.427 1.96454C113.743 1.67033 114.173 1.5035 114.622 1.5H126.89C127.112 1.50088 127.331 1.54226 127.536 1.62177C127.74 1.70129 127.926 1.81739 128.082 1.96344C128.238 2.10949 128.362 2.28264 128.446 2.47298C128.53 2.66333 128.573 2.86716 128.572 3.07283C128.572 3.48643 128.395 3.88307 128.08 4.17553C127.764 4.46799 127.337 4.63228 126.89 4.63228H122.437Z" fill="#117DC1"/>
<path fill-rule="evenodd" clip-rule="evenodd" d="M187.744 8.32671H194.15C196.412 8.32671 197.27 8.40019 197.27 6.54322C197.27 5.20726 196.753 4.63949 194.15 4.63949H187.744V8.32671ZM187.744 15.3738H195.822C196.989 15.1334 197.27 14.5723 197.27 13.5903C197.27 11.7334 196.412 11.8135 194.15 11.8135H187.744V15.3872V15.3738ZM195.973 18.5C192.622 18.5 189.245 18.5 185.894 18.5C185.489 18.5018 185.099 18.3397 184.81 18.0493C184.521 17.7588 184.357 17.3637 184.354 16.9503V3.06974C184.355 2.65511 184.517 2.25786 184.804 1.96405C185.092 1.67023 185.481 1.50351 185.888 1.5C188.734 1.5 191.71 1.5 194.51 1.5C197.31 1.5 199.992 2.60216 199.992 5.922C200.037 7.00582 199.893 8.08914 199.566 9.12162C199.497 9.30078 199.41 9.473 199.31 9.63598C199.232 9.78491 199.197 9.95373 199.212 10.122C199.226 10.2904 199.287 10.4509 199.389 10.5845C199.473 10.7558 199.547 10.932 199.611 11.1122C199.901 12.1063 200.03 13.1419 199.992 14.1782C199.97 15.278 199.544 16.3295 198.799 17.1257C198.054 17.9219 197.044 18.4051 195.966 18.48L195.973 18.5Z" fill="#117DC1"/>
<path fill-rule="evenodd" clip-rule="evenodd" d="M80.9674 1.98698C78.4359 2.79713 77.7036 3.68568 77.6097 6.76948C77.5628 8.45511 77.4551 13.4597 77.7444 14.8644C78.6105 18.876 86.2936 19.0132 90.1482 17.9025C92.6198 17.1838 93.1028 16.1646 93.1498 13.1919C93.1974 10.9966 93.1497 9.03004 93.1974 7.37709C93.1974 4.11036 92.4382 2.10458 88.7782 1.70604C86.4744 1.43817 83.009 1.34017 80.9613 1.98698H80.9674ZM90.1821 13.8778V6.50813C90.2421 4.43703 87.0721 4.7049 85.4805 4.7049C83.7344 4.7049 80.6859 4.5285 80.6859 6.50813V13.8778C80.6859 14.9102 82.029 15.2956 83.5536 15.4002C84.9513 15.4472 86.3513 15.408 87.7436 15.2826C89.1674 15.1781 90.0944 14.7926 90.1551 13.8648L90.1821 13.8778Z" fill="#117DC1"/>
<path fill-rule="evenodd" clip-rule="evenodd" d="M134.032 1.98698C131.508 2.79713 130.761 3.68568 130.667 6.76948C130.62 8.45511 130.519 13.4597 130.822 14.8644C131.669 18.876 139.381 19.0132 143.229 17.9025C145.705 17.1838 146.197 16.1646 146.258 13.1919C146.258 10.9966 146.258 9.03004 146.258 7.37709C146.291 4.11036 145.497 2.10458 141.837 1.70604C139.535 1.43817 136.07 1.34017 134.005 1.98698H134.032ZM143.25 13.8778V6.50813C143.31 4.43703 140.128 4.7049 138.539 4.7049C136.797 4.7049 133.735 4.5285 133.735 6.50813V13.8778C133.735 14.9102 135.081 15.2956 136.629 15.4002C138.022 15.4473 139.419 15.4081 140.807 15.2826C142.241 15.1781 143.162 14.7926 143.229 13.8648L143.25 13.8778Z" fill="#117DC1"/>
<path fill-rule="evenodd" clip-rule="evenodd" d="M170.079 1.98698C167.54 2.79713 166.814 3.68568 166.72 6.76948C166.68 8.45511 166.572 13.4597 166.862 14.8644C167.728 18.876 175.407 19.0132 179.263 17.9025C181.742 17.1838 182.226 16.1646 182.273 13.1919C182.313 10.9966 182.273 9.03004 182.313 7.37709C182.313 4.11036 181.554 2.10458 177.899 1.70604C175.588 1.43817 172.128 1.34017 170.079 1.98698ZM179.324 13.8778V6.50813C179.384 4.43703 176.206 4.7049 174.621 4.7049C172.874 4.7049 169.817 4.5285 169.817 6.50813V13.8778C169.817 14.9102 171.161 15.2956 172.692 15.4002C174.089 15.4475 175.487 15.4083 176.878 15.2826C178.309 15.1781 179.236 14.7926 179.297 13.8648L179.324 13.8778Z" fill="#117DC1"/>
<path fill-rule="evenodd" clip-rule="evenodd" d="M151.18 1.55012C154.896 1.55012 158.831 1.33691 161.119 1.78997C163.407 2.24303 164.626 3.6422 164.626 6.45386C164.626 11.1177 163.11 12.4503 159.745 12.7967C159.648 12.8036 159.55 12.8036 159.453 12.7967C157.423 12.9633 154.816 12.8301 151.512 12.8301V16.941C151.512 17.3544 151.345 17.751 151.048 18.0434C150.751 18.3358 150.348 18.5 149.928 18.5C149.508 18.5 149.105 18.3358 148.808 18.0434C148.51 17.751 148.343 17.3544 148.343 16.941V14.2759C148.27 12.317 148.303 9.99837 148.343 8.0529C148.343 6.47385 148.391 4.78818 148.343 3.20913C148.287 2.84073 148.382 2.4654 148.606 2.16558C148.831 1.86576 149.168 1.66597 149.542 1.61008C150.013 1.54663 150.489 1.52654 150.963 1.55011L151.18 1.55012ZM159.467 4.72156H151.506V9.70523H158.533C160.564 9.70523 161.62 9.57197 161.715 7.30002C161.81 5.02804 161.113 4.7682 159.46 4.72156H159.467Z" fill="#117DC1"/>
</g>
<defs>
<clipPath id="clip0">
<rect width="200" height="18" fill="white" transform="translate(0 0.5)"/>
</clipPath>
</defs>
</svg>
