<svg width="72" height="42" viewBox="0 0 72 42" fill="none" xmlns="http://www.w3.org/2000/svg">
<path d="M12.3631 12.7798L12.762 12.666L12.8776 12.2675L15.6488 2.71243L18.3752 12.2645L18.5202 12.7724L19.0473 12.807L60.4461 15.5215L19.0481 18.1929L18.5203 18.227L18.3752 18.7355L15.6488 28.2876L12.8776 18.7325L12.7615 18.332L12.36 18.2193L2.75362 15.5218L12.3631 12.7798Z" stroke="#FAFAFA" stroke-width="1.5"/>
<path d="M31.7933 32.3333L32.1919 32.2182L32.3062 31.8193L33.4738 27.7435L34.622 31.8163L34.7657 32.3261L35.2942 32.3611L52.587 33.5091L35.295 34.6388L34.7659 34.6734L34.622 35.1837L33.4738 39.2565L32.3062 35.1807L32.1914 34.7798L31.7903 34.6658L27.7224 33.5093L31.7933 32.3333Z" stroke="#FAFAFA" stroke-width="1.5"/>
</svg>
