<svg width="43" height="43" viewBox="0 0 43 43" fill="none" xmlns="http://www.w3.org/2000/svg">
<path d="M9.70985 13.7565V13.5242H8.32275V13.7565C8.32275 14.1539 8.33316 14.5513 8.35327 14.9466L9.73898 14.8759C9.72025 14.5035 9.70985 14.131 9.70985 13.7565Z" fill="black"/>
<path d="M9.70985 13.7565V13.5242H8.32275V13.7565C8.32275 14.1539 8.33316 14.5513 8.35327 14.9466L9.73898 14.8759C9.72025 14.5035 9.70985 14.131 9.70985 13.7565Z" fill="#009EE0" fill-opacity="0.8"/>
<path d="M9.84927 16.2194L8.47119 16.3768C8.8679 19.8702 10.0858 23.2845 11.9923 26.2494L13.1589 25.499C11.3668 22.7117 10.2231 19.5026 9.84927 16.2194Z" fill="black"/>
<path d="M9.84927 16.2194L8.47119 16.3768C8.8679 19.8702 10.0858 23.2845 11.9923 26.2494L13.1589 25.499C11.3668 22.7117 10.2231 19.5026 9.84927 16.2194Z" fill="#009EE0" fill-opacity="0.8"/>
<path d="M25.5648 6.73572C24.3636 7.54717 22.9578 7.97578 21.4999 7.97578C20.0421 7.97578 18.637 7.54717 17.4357 6.73641L16.6597 7.88631C18.0912 8.85243 19.7647 9.36288 21.4999 9.36288C23.2352 9.36288 24.9087 8.85243 26.3409 7.88562L25.5648 6.73572Z" fill="black"/>
<path d="M25.5648 6.73572C24.3636 7.54717 22.9578 7.97578 21.4999 7.97578C20.0421 7.97578 18.637 7.54717 17.4357 6.73641L16.6597 7.88631C18.0912 8.85243 19.7647 9.36288 21.4999 9.36288C23.2352 9.36288 24.9087 8.85243 26.3409 7.88562L25.5648 6.73572Z" fill="#009EE0" fill-opacity="0.8"/>
<path fill-rule="evenodd" clip-rule="evenodd" d="M36.817 8.66936C35.5034 5.40205 32.2881 3.12097 28.6449 3.12097C26.9249 3.12097 25.3075 3.58634 23.9676 4.46576C22.4841 5.44228 20.5165 5.44228 19.0323 4.46576C17.6931 3.58634 16.0757 3.12097 14.355 3.12097C9.49879 3.12097 5.54834 7.07142 5.54834 11.9276V13.7565C5.54834 18.7293 6.97011 23.5675 9.659 27.7503C11.1057 30.0008 12.1683 32.4581 12.8174 35.0533L13.572 38.073C13.8369 39.1369 14.7878 39.879 15.8836 39.879C17.073 39.879 18.0648 39.0253 18.2403 37.849L19.7959 27.4749C19.9242 26.6253 20.6406 26.0081 21.5 26.0081C22.3593 26.0081 23.0757 26.6253 23.2033 27.4749L24.7589 37.849C24.9351 39.0253 25.9269 39.879 27.1163 39.879C28.2121 39.879 29.163 39.1369 29.4279 38.073L30.1832 35.0533C30.8323 32.4574 31.8956 30.0001 33.3423 27.7503C34.9229 25.2909 36.079 22.5445 36.7552 19.694C38.1594 14.2492 37.3815 10.0756 36.817 8.66936ZM28.8377 34.7176C29.5236 31.9754 30.6458 29.3787 32.1751 26.9998C34.1142 23.9829 35.3848 20.5103 35.8529 16.9538C36.2859 14.7039 36.1383 12.2111 36.0104 11.2459L35.9812 10.7944C35.4611 7.23441 32.3041 4.50807 28.6449 4.50807C27.1961 4.50807 25.8423 4.89438 24.7291 5.62538C23.7581 6.26413 22.6707 6.58871 21.5 6.58871C20.3292 6.58871 19.2418 6.26413 18.2701 5.62538C17.1576 4.89438 15.8038 4.50807 14.355 4.50807C10.2638 4.50807 6.93544 7.83641 6.93544 11.9276V13.7565C6.93544 18.4623 8.28023 23.0418 10.8242 26.9998C12.3534 29.378 13.4763 31.9747 14.1615 34.7176L14.9168 37.7374C15.0285 38.1819 15.4259 38.4919 15.8836 38.4919C16.3809 38.4919 16.7956 38.1348 16.8684 37.643L18.4241 27.2689C18.6543 25.7341 19.9485 24.621 21.5 24.621C23.0514 24.621 24.3456 25.7341 24.5758 27.2689L26.1315 37.643C26.205 38.1348 26.619 38.4919 27.1163 38.4919C27.5741 38.4919 27.9715 38.1819 28.0817 37.7374L28.8377 34.7176Z" fill="black"/>
<path fill-rule="evenodd" clip-rule="evenodd" d="M36.817 8.66936C35.5034 5.40205 32.2881 3.12097 28.6449 3.12097C26.9249 3.12097 25.3075 3.58634 23.9676 4.46576C22.4841 5.44228 20.5165 5.44228 19.0323 4.46576C17.6931 3.58634 16.0757 3.12097 14.355 3.12097C9.49879 3.12097 5.54834 7.07142 5.54834 11.9276V13.7565C5.54834 18.7293 6.97011 23.5675 9.659 27.7503C11.1057 30.0008 12.1683 32.4581 12.8174 35.0533L13.572 38.073C13.8369 39.1369 14.7878 39.879 15.8836 39.879C17.073 39.879 18.0648 39.0253 18.2403 37.849L19.7959 27.4749C19.9242 26.6253 20.6406 26.0081 21.5 26.0081C22.3593 26.0081 23.0757 26.6253 23.2033 27.4749L24.7589 37.849C24.9351 39.0253 25.9269 39.879 27.1163 39.879C28.2121 39.879 29.163 39.1369 29.4279 38.073L30.1832 35.0533C30.8323 32.4574 31.8956 30.0001 33.3423 27.7503C34.9229 25.2909 36.079 22.5445 36.7552 19.694C38.1594 14.2492 37.3815 10.0756 36.817 8.66936ZM28.8377 34.7176C29.5236 31.9754 30.6458 29.3787 32.1751 26.9998C34.1142 23.9829 35.3848 20.5103 35.8529 16.9538C36.2859 14.7039 36.1383 12.2111 36.0104 11.2459L35.9812 10.7944C35.4611 7.23441 32.3041 4.50807 28.6449 4.50807C27.1961 4.50807 25.8423 4.89438 24.7291 5.62538C23.7581 6.26413 22.6707 6.58871 21.5 6.58871C20.3292 6.58871 19.2418 6.26413 18.2701 5.62538C17.1576 4.89438 15.8038 4.50807 14.355 4.50807C10.2638 4.50807 6.93544 7.83641 6.93544 11.9276V13.7565C6.93544 18.4623 8.28023 23.0418 10.8242 26.9998C12.3534 29.378 13.4763 31.9747 14.1615 34.7176L14.9168 37.7374C15.0285 38.1819 15.4259 38.4919 15.8836 38.4919C16.3809 38.4919 16.7956 38.1348 16.8684 37.643L18.4241 27.2689C18.6543 25.7341 19.9485 24.621 21.5 24.621C23.0514 24.621 24.3456 25.7341 24.5758 27.2689L26.1315 37.643C26.205 38.1348 26.619 38.4919 27.1163 38.4919C27.5741 38.4919 27.9715 38.1819 28.0817 37.7374L28.8377 34.7176Z" fill="#009EE0" fill-opacity="0.8"/>
<path d="M11.5001 32C15.254 30.8889 22.086 25.8889 19.3832 14.7778L11.5001 12L3.61678 14.7778C0.913992 25.8889 7.74623 30.8889 11.5001 32Z" fill="#EEF2F5"/>
<path d="M11.5001 32C15.254 30.8889 22.086 25.8889 19.3832 14.7778L11.5001 12L3.61678 14.7778C0.913992 25.8889 7.74623 30.8889 11.5001 32Z" stroke="black" stroke-width="1.2"/>
<path d="M11.5001 32C15.254 30.8889 22.086 25.8889 19.3832 14.7778L11.5001 12L3.61678 14.7778C0.913992 25.8889 7.74623 30.8889 11.5001 32Z" stroke="#009EE0" stroke-opacity="0.8" stroke-width="1.2"/>
<path d="M11.5214 17.5555V25.3333M15.3875 21.4444H7.50439" stroke="black" stroke-width="1.2"/>
<path d="M11.5214 17.5555V25.3333M15.3875 21.4444H7.50439" stroke="#009EE0" stroke-opacity="0.8" stroke-width="1.2"/>
</svg>
