<svg width="43" height="43" viewBox="0 0 43 43" fill="none" xmlns="http://www.w3.org/2000/svg">
<path d="M9.70985 13.7565V13.5242H8.32275V13.7565C8.32275 14.1539 8.33316 14.5513 8.35327 14.9466L9.73898 14.8759C9.72025 14.5035 9.70985 14.131 9.70985 13.7565Z" fill="black"/>
<path d="M9.70985 13.7565V13.5242H8.32275V13.7565C8.32275 14.1539 8.33316 14.5513 8.35327 14.9466L9.73898 14.8759C9.72025 14.5035 9.70985 14.131 9.70985 13.7565Z" fill="#009EE0" fill-opacity="0.8"/>
<path d="M9.84927 16.2194L8.47119 16.3768C8.8679 19.8702 10.0858 23.2845 11.9923 26.2494L13.1589 25.499C11.3668 22.7117 10.2231 19.5026 9.84927 16.2194Z" fill="black"/>
<path d="M9.84927 16.2194L8.47119 16.3768C8.8679 19.8702 10.0858 23.2845 11.9923 26.2494L13.1589 25.499C11.3668 22.7117 10.2231 19.5026 9.84927 16.2194Z" fill="#009EE0" fill-opacity="0.8"/>
<path d="M25.5648 6.73572C24.3636 7.54717 22.9578 7.97578 21.4999 7.97578C20.0421 7.97578 18.637 7.54717 17.4357 6.73641L16.6597 7.88631C18.0912 8.85243 19.7647 9.36288 21.4999 9.36288C23.2352 9.36288 24.9087 8.85243 26.3409 7.88562L25.5648 6.73572Z" fill="black"/>
<path d="M25.5648 6.73572C24.3636 7.54717 22.9578 7.97578 21.4999 7.97578C20.0421 7.97578 18.637 7.54717 17.4357 6.73641L16.6597 7.88631C18.0912 8.85243 19.7647 9.36288 21.4999 9.36288C23.2352 9.36288 24.9087 8.85243 26.3409 7.88562L25.5648 6.73572Z" fill="#009EE0" fill-opacity="0.8"/>
<path d="M6.24194 26.7017H4.85484C4.85484 29.3781 2.6764 31.5565 0 31.5565V32.9436C2.6764 32.9436 4.85484 35.122 4.85484 37.7984H6.24194C6.24194 35.122 8.42037 32.9436 11.0968 32.9436V31.5565C8.42037 31.5565 6.24194 29.3781 6.24194 26.7017ZM5.54839 34.9514C4.95194 33.7932 4.00524 32.8465 2.84702 32.25C4.00524 31.6536 4.95194 30.7069 5.54839 29.5487C6.14484 30.7069 7.09153 31.6536 8.24976 32.25C7.09153 32.8465 6.14484 33.7932 5.54839 34.9514Z" fill="black"/>
<path d="M6.24194 26.7017H4.85484C4.85484 29.3781 2.6764 31.5565 0 31.5565V32.9436C2.6764 32.9436 4.85484 35.122 4.85484 37.7984H6.24194C6.24194 35.122 8.42037 32.9436 11.0968 32.9436V31.5565C8.42037 31.5565 6.24194 29.3781 6.24194 26.7017ZM5.54839 34.9514C4.95194 33.7932 4.00524 32.8465 2.84702 32.25C4.00524 31.6536 4.95194 30.7069 5.54839 29.5487C6.14484 30.7069 7.09153 31.6536 8.24976 32.25C7.09153 32.8465 6.14484 33.7932 5.54839 34.9514Z" fill="#009EE0" fill-opacity="0.8"/>
<path d="M38.1451 8.66936H36.817C35.5034 5.40205 32.2881 3.12097 28.6449 3.12097C26.9249 3.12097 25.3075 3.58634 23.9676 4.46576C22.4841 5.44228 20.5165 5.44228 19.0323 4.46576C17.6931 3.58634 16.0757 3.12097 14.355 3.12097C9.49879 3.12097 5.54834 7.07142 5.54834 11.9276V13.7565C5.54834 18.7293 6.97011 23.5675 9.659 27.7503C11.1057 30.0008 12.1683 32.4581 12.8174 35.0533L13.572 38.073C13.8369 39.1369 14.7878 39.879 15.8836 39.879C17.073 39.879 18.0648 39.0253 18.2403 37.849L19.7959 27.4749C19.9242 26.6253 20.6406 26.0081 21.5 26.0081C22.3593 26.0081 23.0757 26.6253 23.2033 27.4749L24.7589 37.849C24.9351 39.0253 25.9269 39.879 27.1163 39.879C28.2121 39.879 29.163 39.1369 29.4279 38.073L30.1832 35.0533C30.8323 32.4574 31.8956 30.0001 33.3423 27.7503C34.9229 25.2909 36.079 22.5445 36.7552 19.694C36.7546 19.7183 36.758 19.7419 36.758 19.7661H38.1451C38.1451 17.0897 40.3236 14.9113 43 14.9113V13.5242C40.3236 13.5242 38.1451 11.3458 38.1451 8.66936ZM32.1751 26.9998C30.6458 29.3787 29.5236 31.9754 28.8377 34.7176L28.0817 37.7374C27.9715 38.1819 27.5741 38.4919 27.1163 38.4919C26.619 38.4919 26.205 38.1348 26.1315 37.643L24.5758 27.2689C24.3456 25.7341 23.0514 24.621 21.5 24.621C19.9485 24.621 18.6543 25.7341 18.4241 27.2689L16.8684 37.643C16.7956 38.1348 16.3809 38.4919 15.8836 38.4919C15.4259 38.4919 15.0285 38.1819 14.9168 37.7374L14.1615 34.7176C13.4763 31.9747 12.3534 29.378 10.8242 26.9998C8.28023 23.0418 6.93544 18.4623 6.93544 13.7565V11.9276C6.93544 7.83641 10.2638 4.50807 14.355 4.50807C15.8038 4.50807 17.1576 4.89437 18.2701 5.62538C19.2418 6.26413 20.3292 6.58871 21.5 6.58871C22.6707 6.58871 23.7581 6.26413 24.7291 5.62538C25.8423 4.89437 27.1961 4.50807 28.6449 4.50807C32.3041 4.50807 35.4611 7.23441 35.9812 10.7944L36.0104 11.2459C35.1504 12.6115 33.6329 13.5242 31.9032 13.5242V14.9113C33.5316 14.9113 34.9721 15.72 35.8529 16.9538C35.3848 20.5103 34.1142 23.9829 32.1751 26.9998ZM37.4516 16.9191C36.8551 15.7609 35.9084 14.8142 34.7502 14.2177C35.9084 13.6213 36.8551 12.6746 37.4516 11.5164C38.048 12.6746 38.9947 13.6213 40.1529 14.2177C38.9947 14.8142 38.048 15.7609 37.4516 16.9191Z" fill="black"/>
<path d="M38.1451 8.66936H36.817C35.5034 5.40205 32.2881 3.12097 28.6449 3.12097C26.9249 3.12097 25.3075 3.58634 23.9676 4.46576C22.4841 5.44228 20.5165 5.44228 19.0323 4.46576C17.6931 3.58634 16.0757 3.12097 14.355 3.12097C9.49879 3.12097 5.54834 7.07142 5.54834 11.9276V13.7565C5.54834 18.7293 6.97011 23.5675 9.659 27.7503C11.1057 30.0008 12.1683 32.4581 12.8174 35.0533L13.572 38.073C13.8369 39.1369 14.7878 39.879 15.8836 39.879C17.073 39.879 18.0648 39.0253 18.2403 37.849L19.7959 27.4749C19.9242 26.6253 20.6406 26.0081 21.5 26.0081C22.3593 26.0081 23.0757 26.6253 23.2033 27.4749L24.7589 37.849C24.9351 39.0253 25.9269 39.879 27.1163 39.879C28.2121 39.879 29.163 39.1369 29.4279 38.073L30.1832 35.0533C30.8323 32.4574 31.8956 30.0001 33.3423 27.7503C34.9229 25.2909 36.079 22.5445 36.7552 19.694C36.7546 19.7183 36.758 19.7419 36.758 19.7661H38.1451C38.1451 17.0897 40.3236 14.9113 43 14.9113V13.5242C40.3236 13.5242 38.1451 11.3458 38.1451 8.66936ZM32.1751 26.9998C30.6458 29.3787 29.5236 31.9754 28.8377 34.7176L28.0817 37.7374C27.9715 38.1819 27.5741 38.4919 27.1163 38.4919C26.619 38.4919 26.205 38.1348 26.1315 37.643L24.5758 27.2689C24.3456 25.7341 23.0514 24.621 21.5 24.621C19.9485 24.621 18.6543 25.7341 18.4241 27.2689L16.8684 37.643C16.7956 38.1348 16.3809 38.4919 15.8836 38.4919C15.4259 38.4919 15.0285 38.1819 14.9168 37.7374L14.1615 34.7176C13.4763 31.9747 12.3534 29.378 10.8242 26.9998C8.28023 23.0418 6.93544 18.4623 6.93544 13.7565V11.9276C6.93544 7.83641 10.2638 4.50807 14.355 4.50807C15.8038 4.50807 17.1576 4.89437 18.2701 5.62538C19.2418 6.26413 20.3292 6.58871 21.5 6.58871C22.6707 6.58871 23.7581 6.26413 24.7291 5.62538C25.8423 4.89437 27.1961 4.50807 28.6449 4.50807C32.3041 4.50807 35.4611 7.23441 35.9812 10.7944L36.0104 11.2459C35.1504 12.6115 33.6329 13.5242 31.9032 13.5242V14.9113C33.5316 14.9113 34.9721 15.72 35.8529 16.9538C35.3848 20.5103 34.1142 23.9829 32.1751 26.9998ZM37.4516 16.9191C36.8551 15.7609 35.9084 14.8142 34.7502 14.2177C35.9084 13.6213 36.8551 12.6746 37.4516 11.5164C38.048 12.6746 38.9947 13.6213 40.1529 14.2177C38.9947 14.8142 38.048 15.7609 37.4516 16.9191Z" fill="#009EE0" fill-opacity="0.8"/>
</svg>
