<svg xmlns="http://www.w3.org/2000/svg" viewBox="0 0 2938.67 3102.81"><defs><style>.cls-1{fill:#fff;}</style></defs><title>Б_Паттерн</title><g id="Слой_2" data-name="Слой 2"><g id="ГМГCГДБ__2" data-name="ГМГCГДБ[_2"><path class="cls-1" d="M1210.45,3102.81q-18,0-35.43-.87c-51.4-2.57-99-10.67-145.68-24.76-194.2-58.69-468.08-173.89-670-389.4a309.67,309.67,0,0,1-62.3-98c-13.3-33.07-21.95-69.45-26.43-111.2-8.32-77.46-.62-162.18,6.83-244.11,9.3-102.41,18.93-208.31-2.61-301.07-22.7-97.81-80.1-192.28-135.61-283.64-42.41-69.81-86.26-142-112.75-213.45-14.26-38.47-22.56-73.83-25.4-108.11-3.17-38.43.56-74.57,11.41-110.48,12.08-40,29.69-77.51,53.83-114.83,21.54-33.31,47.88-65.73,80.52-99.09,60.69-62,132.08-116.25,207.66-173.64C418.06,781.88,483.77,732,542.43,677c98.11-91.9,189.71-159.14,288.26-211.61,95.62-50.9,198.56-88.17,324-117.28,99.39-23.09,206.25-92,319.38-165,165.89-107,337.43-217.65,485.06-173,33.49,10.12,63.78,28.4,92.61,55.9,25.65,24.46,49.56,55.71,73.08,95.54,43.64,73.91,79.36,167.12,113.9,257.26,49.47,129.09,100.62,262.58,176.2,343.27,61.19,65.32,133.47,122.19,203.37,177.2,70.64,55.58,137.35,108.08,192.73,168,29.77,32.23,53.4,63.56,72.21,95.77,21.07,36.06,35.68,72.4,44.67,111.07,9.42,40.56,12.63,81.45,9.79,125-2.52,38.82-9.82,78.92-22.31,122.58-23.2,81.08-61.43,162.79-98.39,241.8-35.81,76.54-72.84,155.68-96.89,235.28-34.53,114.26-80.62,209.15-145,298.61-67.91,94.32-153.88,179.1-236.68,256.67h0c-28.26,26.46-55.23,52.44-81.31,77.56-75.33,72.54-146.47,141.05-223,195.85-84.68,60.66-168.31,99.18-263.17,121.22-52.29,12.15-105.3,26.58-156.56,40.53-96.27,26.21-195.83,53.31-293.28,65.92A857.8,857.8,0,0,1,1210.45,3102.81Zm677.86-3100c-129.48,0-273.12,92.65-412.77,182.72-113.34,73.1-220.39,142.15-320.25,165.35-125.17,29.06-227.91,66.24-323.31,117C733.65,520.21,642.24,587.31,544.31,679c-58.76,55.05-124.53,105-188.14,153.28-75.49,57.33-146.8,111.47-207.35,173.37-32.51,33.23-58.74,65.51-80.19,98.66-24,37.1-41.49,74.44-53.5,114.14C4.38,1254.05.69,1289.86,3.83,1328c2.82,34,11.07,69.14,25.24,107.38,26.39,71.2,70.18,143.27,112.52,213,55.62,91.55,113.13,186.21,135.94,284.45,21.63,93.18,12,199.31,2.66,301.94-7.43,81.8-15.11,166.38-6.83,243.57,4.46,41.49,13,77.63,26.25,110.47a307.45,307.45,0,0,0,61.75,97.17c201.49,215.07,474.9,330,668.78,388.64,46.41,14,93.84,22.09,145,24.65,45.64,2.28,93.25.1,145.56-6.67,97.27-12.6,196.73-39.67,292.92-65.85,51.29-14,104.32-28.39,156.65-40.55,94.51-22,177.82-60.35,262.2-120.79,76.33-54.68,147.41-123.13,222.66-195.6,26.09-25.12,53.07-51.1,81.34-77.58l.94,1-.94-1c82.69-77.47,168.56-162.14,236.33-256.27,64.22-89.21,110.18-183.83,144.63-297.8,24.11-79.78,61.18-159,97-235.64,36.93-78.92,75.1-160.52,98.24-241.4,12.44-43.46,19.71-83.37,22.22-122,2.81-43.29-.37-83.93-9.73-124.21-37.12-159.7-169-263.48-308.63-373.35-70-55.07-142.34-112-203.67-177.48-76-81.08-127.21-214.83-176.77-344.17-34.5-90-70.18-183.13-113.7-256.84-23.39-39.61-47.14-70.67-72.6-94.95-28.52-27.19-58.45-45.27-91.51-55.25A240.4,240.4,0,0,0,1888.31,2.76ZM1232.89,3022.63c-57.68,0-111.27-7.26-162-21.83-184.08-52.87-444.11-158.06-637.5-358.88a292.63,292.63,0,0,1-60.09-91.74c-13-31.06-21.62-65.29-26.39-104.65-8.86-73-2.69-153.08,3.27-230.52,7.45-96.79,15.16-196.87-6.37-284.13-22.69-92-78.09-180.44-131.67-266-40.94-65.35-83.28-132.92-109.2-200-14-36.14-22.27-69.41-25.39-101.73-3.49-36.26-.44-70.43,9.34-104.47C107.53,1187,147,1122.29,211,1055c56.49-59.36,123.17-111.45,193.76-166.6C464.1,842,525.48,794.08,580.14,741.46c91.42-88,177-152.69,269.36-203.49,89.6-49.29,186.3-85.81,304.3-114.92,93.51-23.08,193.48-89.52,299.31-159.86C1608.32,160,1768.83,53.35,1908.79,93.57c31.75,9.11,60.59,26,88.17,51.57,24.54,22.76,47.51,52,70.23,89.26,42.16,69.2,77.08,156.72,110.86,241.36,48.37,121.21,98.38,246.54,170.76,321.71,58.6,60.86,127.56,113.6,194.25,164.61,67.4,51.55,131.06,100.25,184.12,156.13,60.09,63.29,96,124.86,113,193.76,17.58,71.24,14.76,147.75-8.61,233.91-20.85,76.84-55.87,154.47-89.74,229.53-32.81,72.71-66.73,147.89-88.39,223.33-31.13,108.31-73.4,198.48-133,283.77-62.88,89.92-142.94,171.06-220.08,245.36h0c-26.33,25.34-51.46,50.21-75.75,74.26-70.16,69.45-136.43,135-207.93,187.77-79.15,58.36-157.6,95.81-246.87,117.86-49.19,12.14-99,26.45-147.25,40.28-90.53,26-184.16,52.86-276,66A799.58,799.58,0,0,1,1232.89,3022.63Zm612.45-2935c-123.13,0-258.83,90.19-390.71,177.85-106,70.47-206.19,137-300.17,160.24-117.77,29-214.25,65.48-303.63,114.66C758.69,591.06,673.28,655.58,582,743.44c-54.75,52.72-116.19,100.71-175.6,147.13C335.92,945.66,269.32,997.69,213,1056.9c-63.72,66.95-102.93,131.32-123.4,202.56a272.94,272.94,0,0,0-9.25,103.44c3.1,32.07,11.34,65.11,25.21,101,25.83,66.87,68.1,134.32,109,199.56,53.69,85.69,109.21,174.31,132,266.75,21.64,87.69,13.91,188,6.44,285-5.95,77.3-12.11,157.24-3.29,230,4.75,39.11,13.32,73.1,26.21,103.91A289.94,289.94,0,0,0,435.4,2640c193,200.38,452.52,305.36,636.28,358.14,82.12,23.6,171.91,27.91,274.49,13.19,91.65-13.14,185.18-40,275.63-65.95,48.23-13.84,98.1-28.16,147.34-40.31,88.91-22,167-59.26,245.9-117.4,71.34-52.6,137.54-118.13,207.63-187.51,24.3-24.06,49.43-48.93,75.77-74.29,77-74.2,157-155.23,219.74-245,59.46-85,101.61-174.94,132.64-282.95,21.72-75.63,55.69-150.9,88.53-223.7,33.83-75,68.8-152.49,89.59-229.12,23.25-85.7,26.07-161.76,8.6-232.53-37.11-150.23-162.93-246.47-296.15-348.36-66.77-51.08-135.81-103.89-194.56-164.89-72.75-75.56-122.87-201.15-171.34-322.6-33.73-84.53-68.61-171.95-110.65-240.95-22.59-37.08-45.4-66.09-69.75-88.67-27.26-25.29-55.74-41.95-87.06-50.95A225.85,225.85,0,0,0,1845.34,87.63Zm454.05,2439.25h0ZM1253.54,2946.74c-51.12,0-98.91-6.18-144.36-18.56-174.46-47.53-421.28-143.45-606.44-330.5a276.43,276.43,0,0,1-57.93-85.85c-12.66-29.15-21.26-61.36-26.28-98.45-9.31-68.81-4.52-144.48.1-217.65,5.78-91.45,11.76-186-9.69-268.1-22.62-86.54-76.06-169.28-127.74-249.3-39.49-61.15-80.33-124.39-105.67-187.4-13.65-33.94-21.93-65.25-25.29-95.73a260.42,260.42,0,0,1,7.46-98.75c18.52-68,54.9-129.57,114.48-193.92,52.55-56.77,114.82-106.8,180.74-159.78,55.43-44.54,112.74-90.6,163.64-141C701.72,717.5,781.68,655.35,868.2,606.19c83.94-47.69,174.74-83.42,285.76-112.43,88-23,181.44-87,280.42-154.77,145.19-99.4,295.32-202.19,428-166,30.1,8.19,57.55,23.75,83.93,47.55,23.46,21.17,45.52,48.44,67.46,83.36,40.69,64.78,74.8,146.94,107.78,226.4C2168.76,644,2217.6,761.69,2286.88,831.7c56.1,56.67,121.88,105.56,185.49,152.84,64.29,47.79,125,92.93,175.82,145,57.56,59,92.27,116.64,109.23,181.47,17.52,67,15.86,139.29-5.09,220.94-18.69,72.81-50.74,146.54-81.73,217.84-30,69-61.07,140.45-80.53,211.94-28,102.65-66.72,188.32-121.91,269.6-58.19,85.7-132.71,163.34-204.57,234.47-24.52,24.26-47.91,48.06-70.53,71.08-65.33,66.47-127,129.25-193.84,179.94-74,56.13-147.53,92.5-231.52,114.47-46.28,12.1-93.14,26.25-138.47,39.94-85.12,25.7-173.15,52.28-259.66,65.91C1328.94,2943.53,1290.37,2946.74,1253.54,2946.74ZM1805.62,168.31c-117.07,0-245.2,87.72-369.69,173-99.18,67.9-192.86,132-281.28,155.16C1043.87,525.37,953.28,561,869.55,608.58c-86.3,49-166.08,111-251,195.15-51,50.48-108.38,96.58-163.86,141.16-65.84,52.91-128,102.89-180.45,159.51-59.26,64-95.44,125.27-113.84,192.77A257.72,257.72,0,0,0,153,1394.9c3.34,30.23,11.55,61.3,25.11,95,25.24,62.77,66,125.89,105.43,186.94,51.8,80.2,105.36,163.13,128.09,250.1,21.56,82.51,15.57,177.29,9.78,269-4.62,73-9.39,148.57-.12,217.11,5,36.84,13.51,68.81,26.07,97.72a273.71,273.71,0,0,0,57.36,85c184.73,186.63,431.08,282.35,605.21,329.78,77.81,21.21,162.61,24.12,259.24,8.89,86.33-13.6,174.26-40.15,259.3-65.83,45.35-13.69,92.24-27.85,138.56-40,83.63-21.88,156.89-58.1,230.56-114,66.65-50.57,128.28-113.28,193.54-179.68,22.63-23,46-46.83,70.56-71.11,71.76-71,146.17-148.55,204.23-234,55-81,93.63-166.44,121.52-268.79,19.52-71.67,50.61-143.17,80.66-212.31,31-71.2,63-144.83,81.59-217.42,20.83-81.18,22.5-153,5.1-219.57-37-141.3-157-230.5-284-324.94-63.69-47.34-129.55-96.3-185.8-153.12-69.67-70.39-118.6-188.29-165.93-302.31-32.94-79.35-67-161.4-107.57-226-21.8-34.7-43.71-61.78-67-82.78-26-23.5-53.14-38.86-82.81-46.94A212,212,0,0,0,1805.62,168.31Zm457,2296.5h0Zm-989.9,410c-45.21,0-87.75-5.23-128.38-15.7-165.3-42.6-399.54-129.94-576.75-304.12-44.23-43.49-71-100.05-81.9-172.91-9.68-64.84-6.15-136.33-2.73-205.46,4.26-86.39,8.68-175.73-12.63-252.91-22.47-81.39-74-158.79-123.8-233.65-38.07-57.21-77.44-116.37-102.19-175.53-13.33-31.86-21.54-61.32-25.11-90a245.6,245.6,0,0,1,5.76-93.34c16.6-64.39,50.14-123,105.55-184.56,48.88-54.27,107-102.31,168.55-153.17,51.74-42.76,105.23-87,152.63-135.19,79.29-80.66,154-140.37,235-187.9,78.62-46.11,163.87-81,268.29-109.84,82.71-22.84,170.12-84.47,262.67-149.72,135.76-95.72,276.16-194.7,401.89-162.28,28.53,7.35,54.66,21.68,79.87,43.81,22.43,19.69,43.61,45.14,64.78,77.82,39.25,60.63,72.51,137.74,104.68,212.32,46.05,106.77,93.66,217.18,160,282.35,53.69,52.77,116.41,98.06,177.06,141.86,121.55,87.78,236.35,170.69,273.33,304.49,17.42,63.06,16.78,131.31-1.94,208.66-16.69,69-46,139-74.32,206.69-27.44,65.57-55.81,133.37-73.26,201.09-25.08,97.27-60.53,178.64-111.58,256.09-53.82,81.66-123.15,155.91-190.06,224-22.83,23.23-44.6,46-65.65,68-60.81,63.59-118.24,123.66-180.65,172.38-69.1,53.94-138.08,89.23-217.08,111.06-43.52,12-87.58,26-130.18,39.5-80,25.37-162.77,51.6-244.26,65.59C1349,2871.28,1310,2874.83,1272.73,2874.83ZM1769,245c-111.32,0-232.24,85.25-349.69,168.06-92.74,65.39-180.34,127.15-263.51,150.12-104.19,28.76-189.23,63.58-267.64,109.57-80.82,47.4-155.32,107-234.43,187.45-47.49,48.31-101.05,92.57-152.84,135.38-61.46,50.79-119.52,98.77-168.25,152.89-55.11,61.19-88.45,119.47-104.94,183.41a242.85,242.85,0,0,0-5.69,92.31c3.54,28.48,11.69,57.7,24.92,89.33,24.64,58.92,63.94,118,101.94,175.07C398.77,1763.6,450.4,1841.18,473,1923c21.43,77.61,17,167.16,12.72,253.77-3.41,69-6.93,140.35,2.71,204.92,5.18,34.71,13.64,64.76,25.87,91.89a258.33,258.33,0,0,0,55.23,79.47C746.3,2726.8,980.07,2814,1145,2856.46c73.71,19,153.77,20.65,244.78,5,81.3-14,164-40.16,243.89-65.5,42.63-13.52,86.71-27.49,130.28-39.53,78.64-21.73,147.31-56.86,216.12-110.58,62.25-48.6,119.62-108.59,180.35-172.11,21.06-22,42.83-44.8,65.68-68l1,1-1-1c66.81-68,136-142.11,189.72-223.57,50.88-77.19,86.22-158.3,111.22-255.27,17.49-67.91,45.91-135.8,73.38-201.46,28.29-67.61,57.55-137.51,74.19-206.28,18.61-76.88,19.25-144.68,2-207.27-36.72-132.88-151.15-215.51-272.29-303-60.74-43.86-123.54-89.21-177.38-142.13-66.68-65.55-114.4-176.21-160.56-283.22-32.12-74.47-65.33-151.48-104.46-211.91-21-32.47-42.05-57.74-64.28-77.25-24.89-21.84-50.64-36-78.74-43.22A199.09,199.09,0,0,0,1769,245ZM1290.53,2806.7a479.12,479.12,0,0,1-113.88-13.21C1020.06,2755.42,797.81,2676,628.26,2513.9c-42.33-40.49-68.35-93.55-79.57-162.2-10-61.09-7.57-128.61-5.25-193.92,2.91-81.59,5.92-166-15.2-238.54-22.26-76.51-71.88-148.9-119.87-218.91-36.68-53.51-74.62-108.84-98.75-164.37-27.05-62.26-33.8-118.82-20.65-172.91,14.84-61,45.75-116.8,97.26-175.61,45.43-51.86,99.68-98,157.11-146.78,48.28-41,98.21-83.46,142.31-129.58,73.8-77.17,143.52-134.5,219.4-180.42,73.62-44.55,153.64-78.6,251.84-107.17,77.76-22.63,159.47-81.94,246-144.72,126.93-92.13,258.17-187.39,377.31-158.41,27,6.57,51.9,19.76,76,40.34,21.43,18.29,41.77,42.05,62.17,72.63,37.85,56.72,70.24,129.08,101.57,199.06,44.85,100.18,91.23,203.77,154.64,264.42,51.36,49.1,111.15,91,169,131.6,115.88,81.28,225.34,158.06,262,283.9,17.26,59.31,17.55,123.75.88,197-14.86,65.33-41.61,131.8-67.48,196.08-25,62.24-50.95,126.6-66.54,190.75-22.41,92.14-54.82,169.42-102,243.2-49.74,77.78-114.23,148.77-176.5,213.9h0c-21.25,22.22-41.5,44-61.09,65-56.57,60.82-110,118.27-168.28,165.07-64.54,51.82-129.2,86-203.5,107.67-40.92,11.91-82.32,25.66-122.36,39-75.21,25-153,50.82-229.72,65.08C1367.24,2802.83,1327.94,2806.7,1290.53,2806.7ZM1735.14,317.82c-105.85,0-219.91,82.78-330.67,163.17-86.7,62.93-168.59,122.37-246.81,145.14-98,28.5-177.78,62.46-251.19,106.88-75.66,45.79-145.2,103-218.83,180-44.2,46.22-94.18,88.7-142.52,129.78-57.35,48.74-111.52,94.78-156.82,146.49-51.21,58.46-81.92,113.9-96.66,174.45-13.18,54.23-6.67,108.62,20.51,171.16,24,55.29,61.88,110.51,98.49,163.92,48.11,70.18,97.86,142.75,120.25,219.7,21.23,73,18.22,157.59,15.3,239.4-2.32,65.17-4.72,132.56,5.21,193.38,11.12,68,36.88,120.59,78.76,160.65,169.11,161.7,390.88,240.92,547.14,278.91,69.82,17,145.4,17.49,231.09,1.56,76.56-14.22,154.23-40,229.35-65,40.07-13.3,81.49-27.07,122.47-39,73.94-21.52,138.29-55.58,202.54-107.17,58.12-46.67,111.49-104,168-164.79,19.59-21.06,39.85-42.84,61.11-65.07h0c62.18-65,126.56-135.9,176.18-213.48,47-73.51,79.31-150.53,101.65-242.37,15.64-64.34,41.58-128.79,66.66-191.13,25.83-64.18,52.53-130.54,67.35-195.66,16.56-72.8,16.28-136.79-.84-195.64-36.38-124.91-145.45-201.42-260.92-282.42C2284,990,2224.15,948,2172.64,898.79c-63.8-61-110.29-164.86-155.25-265.28-31.28-69.87-63.63-142.13-101.35-198.66-20.26-30.36-40.43-53.94-61.66-72.06-23.76-20.29-48.25-33.3-74.86-39.76A187.22,187.22,0,0,0,1735.14,317.82Zm457.7,2034.49h0ZM1307,2742.16a449.4,449.4,0,0,1-100.7-11c-148.32-33.9-359.15-106-521.31-256.82-40.49-37.68-65.75-87.43-77.23-152.11-10.22-57.54-8.82-121.31-7.48-183,1.69-77,3.43-156.72-17.43-224.94-22-71.92-69.78-139.6-116-205-35.33-50-71.86-101.78-95.35-153.89-26.35-58.43-33.47-111.75-21.75-163,13.22-57.79,41.67-110.87,89.54-167.06,42.22-49.55,92.83-93.77,146.41-140.6,45-39.35,91.61-80.05,132.64-124.15C787,886.71,852.09,831.69,923.13,787.36c68.92-43,144-76.2,236.34-104.44,73.1-22.37,149.45-79.4,230.28-139.79C1508.37,454.52,1631,362.88,1743.91,388.7c25.61,5.85,49.26,18,72.28,37.1,20.47,17,40,39.16,59.64,67.77,36.46,53.05,68,120.94,98.46,186.59,43.63,94,88.75,191.15,149.39,247.56,49.1,45.68,106.08,84.49,161.18,122,110.45,75.23,214.77,146.29,251,264.62,17.06,55.77,18.17,116.61,3.39,186-13.19,61.87-37.57,125-61.16,186-22.83,59.08-46.44,120.16-60.32,180.91-20,87.27-49.56,160.65-93.15,230.91-46,74.07-105.9,141.92-163.84,204.2h0c-19.76,21.25-38.59,42.06-56.81,62.19-52.61,58.14-102.3,113.06-156.71,158-60.25,49.76-120.85,82.9-190.71,104.28-38.48,11.78-77.38,25.3-115,38.37-70.66,24.57-143.74,50-216,64.42C1383.75,2738,1344.41,2742.16,1307,2742.16ZM1704,387c-100.64,0-208.17,80.33-312.57,158.32-81,60.53-157.56,117.7-231.11,140.21-92.09,28.17-167,61.26-235.7,104.14-70.82,44.2-135.71,99.08-204.21,172.7-41.13,44.21-87.75,84.95-132.84,124.36-53.5,46.75-104,90.91-146.12,140.3-47.57,55.84-75.84,108.55-89,165.89-11.74,51.34-4.88,102.58,21.57,161.25,23.39,51.86,59.84,103.5,95.09,153.43,46.33,65.63,94.24,133.49,116.37,205.84,21,68.64,19.24,148.53,17.55,225.8-1.34,61.54-2.73,125.18,7.43,182.45,11.38,64.07,36.37,113.32,76.41,150.58,161.71,150.43,372.06,222.32,520,256.15,66.1,15.11,137.45,14.61,218.11-1.52,72.08-14.43,145.06-39.79,215.64-64.32,37.64-13.09,76.57-26.61,115.09-38.41,69.51-21.27,129.81-54.25,189.77-103.77,54.25-44.81,103.88-99.66,156.42-157.73,18.22-20.13,37.06-41,56.84-62.21h0c57.85-62.18,117.69-129.91,163.52-203.78,43.42-70,72.91-143.1,92.79-230.08,13.93-60.93,37.58-122.11,60.45-181.28,23.54-60.91,47.89-123.9,61-185.55,14.68-68.92,13.59-129.31-3.33-184.62C2497.29,1197.76,2393.35,1127,2283.31,1052c-55.18-37.59-112.25-76.45-161.51-122.28-61-56.78-106.26-154.2-150-248.41-30.44-65.55-61.91-133.33-98.24-186.19-19.51-28.4-38.85-50.38-59.12-67.21-22.69-18.84-46-30.79-71.15-36.54A175.61,175.61,0,0,0,1704,387Zm455.83,1914.4h0ZM1322.23,2681a421.39,421.39,0,0,1-88.76-9.16C1093,2641.78,893.07,2576.48,738,2436.19c-38.72-35.05-63.22-81.7-74.9-142.62-10.4-54.18-9.91-114.4-9.43-172.64.59-72.75,1.2-148-19.38-212.08-21.7-67.59-67.67-130.85-112.13-192-34-46.77-69.14-95.14-92-144-25.64-54.83-33.05-105.07-22.65-153.61,11.73-54.74,37.91-105.22,82.37-158.89,39.21-47.32,86.41-89.73,136.38-134.62,42-37.73,85.43-76.75,123.58-118.91,63.87-70.56,124.57-123.35,191.06-166.12,64.5-41.5,135-73.8,221.75-101.66,68.69-22.06,140-76.88,215.52-134.92,110.84-85.19,225.45-173.29,332.36-150.39,45.25,9.69,86.44,41.52,125.93,97.31,35.11,49.62,65.75,113.29,95.37,174.87,42.4,88.13,86.25,179.26,144.2,231.71,46.94,42.48,101.23,78.37,153.72,113.08,105.24,69.58,204.65,135.31,240.4,246.56,16.83,52.43,18.67,109.86,5.61,175.57-11.64,58.57-33.84,118.44-55.31,176.34-20.79,56.06-42.28,114-54.6,171.53-17.7,82.65-44.69,152.3-84.93,219.2-42.41,70.51-98.12,135.34-152,194.89-18.38,20.31-35.88,40.19-52.81,59.43-48.91,55.57-95.1,108.06-145.89,151.18-56.23,47.76-113,79.83-178.69,100.93-36.16,11.62-72.7,24.88-108,37.71-66.39,24.1-135,49-203.06,63.61C1398.68,2676.55,1359.48,2681,1322.23,2681Zm353-2228.27c-95.69,0-197,77.89-295.38,153.49-75.71,58.19-147.21,113.16-216.36,135.36-86.55,27.79-156.81,60-221.11,101.35-66.27,42.64-126.8,95.28-190.5,165.66-38.25,42.26-81.73,81.33-123.78,119.11-98.92,88.86-192.34,172.79-217.9,292-10.41,48.6-3.28,96.86,22.45,151.87,22.75,48.65,57.82,96.91,91.74,143.59C569,1776.56,615.11,1840,636.94,1908c20.71,64.53,20.1,140,19.51,212.94-.48,58.1-1,118.19,9.38,172.11,11.56,60.3,35.78,106.45,74,141.09,154.58,139.89,354.05,205,494.16,235,62.58,13.41,129.91,12,205.83-4.27,67.85-14.55,136.4-39.43,202.7-63.5,35.37-12.84,71.93-26.12,108.14-37.75,65.32-21,121.81-52.89,177.75-100.4,50.63-43,96.76-95.42,145.61-150.91,16.93-19.24,34.44-39.14,52.84-59.46h0c53.79-59.44,109.4-124.15,151.69-194.46,40.07-66.63,67-136,84.6-218.35,12.35-57.71,33.88-115.77,54.7-171.92,21.43-57.8,43.6-117.56,55.19-175.92,13-65.23,11.16-122.21-5.53-174.18-35.45-110.34-134.47-175.81-239.29-245.12-52.58-34.77-107-70.71-154.05-113.33C2015.86,906.78,1971.9,815.41,1929.38,727c-29.57-61.48-60.16-125-95.13-174.47-39.07-55.2-79.72-86.67-124.27-96.21A165.21,165.21,0,0,0,1675.26,452.75ZM2127.93,2253.8Zm-791.66,369.31a395.45,395.45,0,0,1-77.93-7.54c-133-26.57-322.57-85.62-470.74-216-37-32.6-60.76-76.33-72.58-133.69-10.51-51-10.83-107.87-11.14-162.86-.39-68.66-.79-139.67-21-199.9-21.35-63.51-65.56-122.62-108.32-179.78-32.7-43.72-66.51-88.92-88.72-134.78-24.92-51.44-32.57-98.78-23.38-144.75,10.37-51.83,34.42-99.84,75.7-151.08,36.4-45.18,80.41-85.82,127-128.85,39.16-36.16,79.64-73.55,115.11-113.84,59.37-67.44,116-118.06,178.2-159.3,60.35-40,126.45-71.41,208-98.84,64.54-21.71,131.14-74.38,201.65-130.14,103.53-81.87,210.59-166.52,311.83-146.28,42.86,8.56,82.18,38.08,120.18,90.25,33.79,46.38,63.54,106.09,92.3,163.83,41.17,82.63,83.73,168.07,139.1,216.82,44.86,39.48,96.56,72.66,146.56,104.74,100.26,64.32,195,125.08,230.15,229.66,16.57,49.28,19.05,103.47,7.58,165.68-10.23,55.44-30.41,112.24-49.93,167.18-18.89,53.18-38.43,108.17-49.3,162.61-15.65,78.26-40.22,144.36-77.33,208-39.13,67.12-90.87,129-141,186h0c-17.08,19.41-33.35,38.41-49.08,56.78-45.45,53.09-88.37,103.24-135.75,144.61-52.47,45.81-105.65,76.83-167.38,97.6-34,11.43-68.3,24.43-101.49,37-62.36,23.62-126.84,48-190.86,62.69C1412.14,2618.37,1373.23,2623.11,1336.27,2623.11Zm312.58-2108c-91,0-186.43,75.48-279,148.72-70.71,55.91-137.49,108.73-202.49,130.59C1086,821.82,1020.08,853.12,959.94,893c-62,41.1-118.45,91.57-177.66,158.82-35.56,40.4-76.1,77.83-115.3,114-92.2,85.15-179.29,165.58-201.86,278.45-9.2,46-1.84,91.43,23.15,143,22.1,45.62,55.83,90.72,88.45,134.33C619.61,1779,664,1838.27,685.45,1902.2c20.39,60.65,20.79,131.88,21.18,200.77.31,54.85.62,111.56,11.08,162.32,11.7,56.75,35.15,100,71.71,132.18,147.71,130,336.83,188.9,469.46,215.4,59.24,11.85,122.76,9.66,194.2-6.69,63.85-14.62,128.23-39,190.5-62.58,33.22-12.57,67.56-25.58,101.59-37,61.38-20.65,114.27-51.49,166.45-97.06,47.23-41.24,90.09-91.32,135.47-144.33,15.74-18.38,32-37.39,49.11-56.81h0c50-56.81,101.65-118.6,140.65-185.52,37-63.4,61.43-129.23,77-207.18,10.92-54.63,30.49-109.72,49.41-163,19.48-54.83,39.63-111.53,49.81-166.76,11.39-61.73,9-115.48-7.48-164.31-34.89-103.66-129.19-164.16-229-228.22-50.09-32.14-101.88-65.36-146.89-105-55.78-49.1-98.47-134.79-139.75-217.66-28.71-57.64-58.41-117.24-92.06-163.43-37.58-51.59-76.34-80.75-118.49-89.17A154.83,154.83,0,0,0,1648.85,515.16Zm448.38,1694.12h0Zm-748,359a372.14,372.14,0,0,1-68.11-6.14c-125.87-23.36-305.62-76.64-447.19-197.83C798.53,2334,775.55,2293,763.64,2239,753.06,2191,752,2137.3,751,2085.4c-1.25-64.81-2.55-131.82-22.45-188.4-21-59.66-63.47-114.88-104.56-168.27-31.44-40.85-63.94-83.08-85.51-126.08-24.2-48.24-32-92.85-24-136.38,20-107.68,101.47-185,187.72-266.9,36.48-34.64,74.21-70.46,107.16-108.94,55.17-64.44,108-113,166.16-152.69,56.45-38.56,118.44-69.07,195.08-96,60.63-21.33,122.81-71.9,188.64-125.45,96.68-78.63,196.64-159.94,292.51-142.14,40.59,7.53,78.09,34.89,114.66,83.66,32.5,43.34,61.35,99.32,89.25,153.45,39.93,77.46,81.21,157.55,134.1,202.84,42.85,36.68,92.08,67.32,139.69,96.95,95.48,59.42,185.66,115.55,220.25,213.83,16.29,46.32,19.33,97.46,9.31,156.33-8.94,52.47-27.25,106.36-45,158.47-17.14,50.44-34.87,102.6-44.43,154.12-13.75,74.08-36.09,136.8-70.3,197.39-36.06,63.87-84.11,123-130.65,177.36h0c-15.88,18.54-31,36.69-45.6,54.23-42.21,50.71-82.08,98.6-126.26,138.27-48.94,43.94-98.75,73.91-156.76,94.32-31.93,11.23-64.15,23.94-95.32,36.24-58.55,23.09-119.1,47-179.35,61.64C1424.25,2563.27,1385.76,2568.26,1349.21,2568.26ZM1624.58,574.42c-86.5,0-176.37,73.09-263.54,144-66,53.71-128.39,104.43-189.46,125.91-76.42,26.87-138.2,57.27-194.45,95.69-58,39.59-110.61,88-165.62,152.21-33,38.59-70.82,74.46-107.36,109.14-85.92,81.57-167.07,158.61-186.9,265.41-8.08,43.51-.55,86.3,23.7,134.65,21.45,42.76,53.87,84.89,85.23,125.63,41.22,53.57,83.85,109,105,169,20,57,21.34,124.23,22.6,189.25,1,51.77,2,105.3,12.57,153.06,11.77,53.41,34.46,93.9,69.37,123.8,141.11,120.8,320.37,173.92,445.9,197.21,56.06,10.41,116,7.52,183.19-8.84,60.07-14.62,120.53-38.47,179-61.53,31.19-12.31,63.44-25,95.42-36.28,57.65-20.28,107.17-50.08,155.83-93.76,44-39.54,83.85-87.36,126-138,14.62-17.55,29.73-35.7,45.62-54.26h0c46.45-54.27,94.4-113.26,130.35-176.92,34.05-60.32,56.29-122.77,70-196.54,9.59-51.72,27.35-104,44.53-154.51,17.67-52,35.95-105.78,44.85-158,9.94-58.4,6.94-109.09-9.19-155-34.27-97.37-124.06-153.25-219.11-212.41-47.7-29.68-97-60.38-140-97.2-53.3-45.63-94.71-126-134.75-203.66-27.85-54-56.65-109.9-89-153.06-36.14-48.19-73.09-75.21-113-82.61A146.67,146.67,0,0,0,1624.58,574.42Zm443.1,1593.22h0ZM1361.1,2516.32a350.32,350.32,0,0,1-59.22-5C1182.76,2491,1012.39,2443,877.17,2330.42c-33.8-28.16-56-66.56-68-117.4-10.62-45.21-12.29-95.85-13.92-144.83-2-61.15-4.12-124.38-23.63-177.52-20.57-56-61.39-107.59-100.87-157.46-30.2-38.15-61.43-77.59-82.35-117.91C564.94,1570.06,557,1528,564,1486.83c17.49-101.93,93.39-176,173.75-254.41,34-33.17,69.13-67.46,99.73-104.21,51.25-61.55,100.46-108,154.87-146.3,52.79-37.13,110.92-66.74,182.92-93.17,56.94-20.91,115-69.45,176.41-120.84,90.25-75.49,183.56-153.55,274.32-138,38.43,6.58,74.2,31.94,109.36,77.51,31.24,40.5,59.21,93,86.25,143.7,38.69,72.59,78.69,147.65,129.19,189.7,40.92,34.06,87.78,62.34,133.1,89.69,90.91,54.86,176.78,106.68,210.71,199,16,43.53,19.52,91.77,10.82,147.48-7.76,49.66-24.34,100.76-40.38,150.18-15.53,47.83-31.58,97.29-39.94,146-12,70.11-32.29,129.61-63.8,187.25-33.22,60.76-77.8,117.19-121,169.12h0c-14.74,17.71-28.76,35-42.32,51.78-39.19,48.41-76.21,94.14-117.4,132.16-45.64,42.12-92.27,71.06-146.77,91.08-30,11-60.25,23.44-89.5,35.44-55,22.57-111.82,45.9-168.51,60.53C1435.1,2511.09,1397.15,2516.32,1361.1,2516.32ZM1602.31,630.66c-82.26,0-166.82,70.74-248.84,139.35-61.62,51.54-119.83,100.24-177.22,121.31-71.77,26.35-129.69,55.85-182.29,92.84-54.21,38.12-103.25,84.45-154.33,145.81-30.69,36.86-65.89,71.2-99.93,104.42-80,78.1-155.62,151.86-173,252.91-7.06,41.16.61,81.43,24.12,126.73,20.8,40.09,51.94,79.43,82.07,117.48,39.61,50,80.57,101.77,101.29,158.21,19.67,53.55,21.77,117,23.8,178.38,1.62,48.84,3.29,99.35,13.85,144.29,11.8,50.24,33.74,88.16,67.06,115.91,134.75,112.18,304.63,160,423.42,180.35,53,9.1,109.55,5.59,172.77-10.72,56.5-14.58,113.26-37.87,168.14-60.4,29.28-12,59.56-24.44,89.6-35.48,54.15-19.89,100.49-48.66,145.85-90.52,41-37.88,78-83.54,117.13-131.87,13.57-16.76,27.59-34.09,42.35-51.81h0c43.15-51.82,87.63-108.13,120.74-168.68,31.36-57.37,51.54-116.6,63.5-186.4,8.39-49,24.48-98.51,40-146.43,16-49.32,32.56-100.31,40.28-149.75,8.63-55.24,5.14-103-10.68-146.11-33.6-91.44-119.06-143-209.55-197.61-45.41-27.41-92.36-55.74-133.44-89.94-50.91-42.4-91-117.7-129.86-190.52-27-50.64-54.89-103-86-143.31-34.72-45-69.93-70-107.65-76.48A137.77,137.77,0,0,0,1602.31,630.66Zm436.94,1498.07h0ZM1372,2467.13a328.91,328.91,0,0,1-51.16-3.94c-112.71-17.72-274.17-60.79-403.27-165.3-32.29-26.15-53.78-62.12-65.72-110-10.61-42.54-12.85-90.33-15-136.54-2.71-57.69-5.5-117.34-24.61-167.23-20.13-52.61-59.33-100.75-97.24-147.3-29-35.62-59-72.45-79.28-110.24-22.75-42.41-30.83-82-24.69-121,15.19-96.46,85.88-167.37,160.72-242.44,31.66-31.75,64.38-64.57,92.79-99.66,47.58-58.76,93.43-103.29,144.3-140.12,49.35-35.73,103.84-64.43,171.47-90.32,53.46-20.47,107.6-67,164.92-116.35,84.22-72.43,171.3-147.34,257.21-133.82,36.38,5.72,70.49,29.19,104.28,71.77,30,37.83,57.1,87,83.29,134.53,37.45,68,76.18,138.34,124.38,177.36,39.07,31.62,83.67,57.71,126.8,82.93,86.53,50.61,168.27,98.42,201.5,185.17,15.66,40.88,19.63,86.39,12.14,139.11-6.68,47-21.68,95.43-36.18,142.29-14,45.34-28.54,92.24-35.79,138.36C2172.4,1820.75,2154,1877.19,2125,1932c-30.56,57.79-71.92,111.64-112.06,161.22h0c-13.69,16.91-26.7,33.44-39.28,49.43-36.36,46.21-70.71,89.85-109.11,126.28-42.53,40.35-86.19,68.28-137.38,87.89-28.16,10.79-56.56,22.9-84,34.62-51.6,22-105,44.77-158.28,59.31C1444.81,2461.7,1407.48,2467.13,1372,2467.13ZM1581.88,684.05c-78.21,0-157.75,68.41-234.88,134.75-57.5,49.46-111.82,96.18-165.73,116.83-67.4,25.8-121.68,54.39-170.84,90-50.67,36.69-96.35,81.05-143.77,139.62-28.5,35.2-61.28,68.08-93,99.87-74.52,74.75-144.91,145.35-159.95,240.93-6.13,38.92,1.63,76.82,24.4,119.27,20.15,37.56,50.06,74.29,79,109.8,38,46.72,77.39,95,97.68,148.05,19.26,50.31,22.07,110.19,24.79,168.09,2.16,46.08,4.39,93.73,14.94,136,11.78,47.25,33,82.74,64.78,108.5,128.63,104.13,289.59,147.05,402,164.72,50.17,7.9,103.46,3.85,162.91-12.36,53.14-14.49,106.41-37.21,157.92-59.19,27.49-11.73,55.91-23.85,84.12-34.66,50.84-19.47,94.21-47.22,136.47-87.31,38.25-36.3,72.54-79.86,108.84-126,12.59-16,25.61-32.54,39.3-49.46h0c40.06-49.47,81.32-103.19,111.77-160.77,28.85-54.55,47.13-110.72,57.52-176.75,7.28-46.32,21.82-93.31,35.89-138.75,14.46-46.75,29.43-95.1,36.07-141.86,7.43-52.25,3.51-97.3-12-137.74-32.9-85.85-114.23-133.41-200.33-183.77-43.22-25.28-87.91-51.42-127.14-83.17-48.62-39.37-87.48-109.93-125.06-178.17-26.13-47.44-53.15-96.51-83-134.15-33.35-42-66.89-65.16-102.56-70.76A128.33,128.33,0,0,0,1581.88,684.05Zm430,1408.32h0ZM1382,2420.56a308.12,308.12,0,0,1-43.87-3.09c-106.63-15.27-259.61-53.83-382.84-150.82-30.83-24.27-51.6-58-63.49-103-10.57-40-13.31-85.11-15.95-128.71-3.31-54.41-6.72-110.67-25.39-157.51-19.69-49.38-57.31-94.31-93.7-137.75-27.84-33.25-56.63-67.63-76.26-103-22-39.76-30.18-77-24.89-113.94,13.09-91.28,78.9-159.13,148.58-231,29.47-30.38,59.93-61.79,86.29-95.27,44.15-56.09,86.86-98.72,134.4-134.15,46.13-34.38,97.19-62.18,160.7-87.49,50.18-20,100.68-64.67,154.14-112,78.57-69.48,159.82-141.33,241.11-129.68,34.43,4.93,67,26.66,99.41,66.42,28.84,35.32,55,81.38,80.37,125.92,36.23,63.7,73.7,129.57,119.7,165.78,37.27,29.34,79.71,53.38,120.75,76.63,82.34,46.65,160.13,90.72,192.64,172.2,15.31,38.4,19.65,81.32,13.26,131.19-5.7,44.43-19.22,90.37-32.3,134.79-12.66,43-25.75,87.43-32,131.06-9,62.76-25.6,116.28-52.27,168.41-28.1,55-66.44,106.32-103.69,153.65-12.7,16.13-24.77,31.91-36.43,47.16-33.73,44.09-65.59,85.74-101.36,120.63-39.63,38.65-80.49,65.58-128.57,84.76-26.44,10.55-53.08,22.35-78.85,33.76-48.42,21.45-98.49,43.63-148.64,58.05C1453.45,2414.94,1416.83,2420.56,1382,2420.56ZM1563.17,734.71c-74.37,0-149.15,66.13-221.64,130.23-53.64,47.44-104.31,92.25-154.94,112.44-63.28,25.23-114.14,52.92-160.08,87.15-47.34,35.28-89.89,77.74-133.88,133.64-26.44,33.59-57,65-86.47,95.48-69.36,71.51-134.88,139.06-147.84,229.45-5.27,36.8,2.54,72.46,24.57,112.21,19.51,35.19,48.21,69.47,76,102.62,36.53,43.61,74.29,88.7,94.14,138.5,18.84,47.24,22.27,103.73,25.58,158.36,2.64,43.46,5.37,88.41,15.87,128.17,11.73,44.43,32.19,77.64,62.53,101.53,122.75,96.61,275.23,135,381.53,150.26,47.45,6.8,97.68,2.29,153.58-13.78,50-14.37,100-36.51,148.29-57.92,25.79-11.43,52.46-23.24,78.95-33.8,47.73-19.05,88.29-45.79,127.66-84.18,35.63-34.75,67.43-76.32,101.09-120.33,11.68-15.26,23.75-31,36.46-47.19h0c37.16-47.22,75.41-98.46,103.4-153.2,26.53-51.86,43-105.1,52-167.55,6.27-43.83,19.39-88.37,32.07-131.45,13-44.32,26.55-90.15,32.21-134.36,6.33-49.4,2.05-91.86-13.09-129.82-32.15-80.58-109.52-124.42-191.44-170.83-41.13-23.3-83.65-47.4-121.09-76.86-46.42-36.54-84-102.65-120.39-166.58-25.28-44.44-51.42-90.4-80.11-125.54-32-39.2-63.95-60.61-97.67-65.43A120.59,120.59,0,0,0,1563.17,734.71ZM1985.62,2058.4h0Zm-594.5,318.07a290.52,290.52,0,0,1-37.29-2.38c-100.86-13-245.77-47.44-363.36-137.4-29.43-22.52-49.48-54.07-61.29-96.44-10.5-37.65-13.67-80.17-16.74-121.29-3.82-51.32-7.77-104.37-26-148.33-19.22-46.35-55.31-88.26-90.21-128.79-26.72-31-54.35-63.1-73.34-96.29-21.32-37.25-29.49-72.34-25-107.27,11.17-86.35,72.43-151.27,137.28-220,27.41-29,55.76-59.1,80.2-91,41-53.52,80.71-94.32,125.14-128.38,43.1-33,90.94-60,150.56-84.69,47.1-19.53,94.18-62.33,144-107.65,73.27-66.61,149-135.51,226-125.55,32.59,4.21,63.58,24.3,94.75,61.43,27.68,33,53,76.11,77.5,117.82,35,59.66,71.25,121.34,115.12,154.91,35.56,27.2,75.93,49.34,115,70.75,78.35,43,152.35,83.57,184.11,160.09,15,36.06,19.61,76.52,14.22,123.7-4.79,42-17,85.55-28.74,127.66-11.39,40.73-23.16,82.86-28.49,124.11-7.68,59.37-22.66,110.11-47.16,159.68-25.82,52.24-61.34,101.23-95.89,146.38h0c-11.78,15.4-23,30.44-33.78,45-31.26,42.06-60.79,81.79-94.11,115.19-36.92,37-75.14,63-120.28,81.69-24.82,10.3-49.82,21.79-74,32.89-45.43,20.88-92.41,42.46-139.56,56.73C1461.12,2370.68,1425.26,2376.47,1391.12,2376.47Zm154.93-1593.7c-70.71,0-141,63.88-209.08,125.79-50,45.49-97.28,88.44-144.82,108.16-59.4,24.63-107,51.43-150,84.33C998,1135,958.37,1175.59,917.57,1228.92c-24.52,32.06-52.92,62.15-80.38,91.26-64.54,68.39-125.5,133-136.55,218.45-4.5,34.79,3.33,68.34,24.64,105.56,18.86,33,46.4,64.93,73,95.86,35,40.69,71.28,82.77,90.67,129.53,18.4,44.36,22.37,97.64,26.21,149.17,3,41,6.21,83.38,16.63,120.76,11.65,41.78,31.38,72.85,60.32,95,117.11,89.59,261.52,123.88,362,136.86,44.87,5.8,92.22.9,144.76-15,47-14.21,93.86-35.76,139.21-56.6,24.2-11.11,49.22-22.61,74.09-32.93,44.79-18.59,82.73-44.36,119.38-81.1,33.18-33.26,62.65-72.9,93.86-114.88,10.82-14.56,22-29.61,33.8-45h0c34.46-45,69.89-93.9,95.61-145.93,24.36-49.29,39.26-99.75,46.89-158.81,5.36-41.45,17.16-83.67,28.57-124.5,11.75-42,23.89-85.43,28.66-127.24,5.33-46.69.74-86.71-14-122.33-31.39-75.62-105-116-182.89-158.73-39.13-21.46-79.58-43.65-115.31-71-44.3-33.89-80.66-95.81-115.82-155.69-24.43-41.62-49.7-84.66-77.23-117.45-30.71-36.58-61.13-56.36-93-60.48A114.83,114.83,0,0,0,1546.05,782.77Zm414.32,1243.91h0Zm-560.94,308a272.86,272.86,0,0,1-31.33-1.78c-95.38-11-232.62-41.6-344.81-125-28.08-20.88-47.42-50.41-59.13-90.27-10.4-35.41-13.94-75.51-17.37-114.29-4.27-48.38-8.69-98.4-26.46-139.64-18.74-43.49-53.35-82.58-86.82-120.38-25.62-28.94-52.12-58.87-70.48-89.95-20.62-34.9-28.79-67.93-25-101,9.43-81.68,66.41-143.75,126.74-209.48,25.5-27.78,51.87-56.5,74.52-87,38-51.06,75-90.08,116.47-122.82,40.26-31.76,85.08-57.78,141-81.9,44.19-19,88.07-60,134.53-103.47,68.31-63.84,139-129.86,211.72-121.46,30.84,3.55,60.37,22.12,90.29,56.78,26.55,30.77,51,71.16,74.69,110.22,33.83,55.85,68.81,113.59,110.65,144.7,33.91,25.21,72.3,45.59,109.42,65.29,74.52,39.56,144.92,76.92,175.89,148.76,14.6,33.86,19.52,72,15,116.61-4,39.73-14.91,81-25.47,120.89-10.22,38.6-20.79,78.51-25.28,117.51-13.21,114.55-54.51,187.8-131.07,290.79-10.92,14.68-21.28,29-31.3,42.91-29,40.1-56.33,78-87.35,109.95-34.37,35.42-70.12,60.42-112.5,78.69-23.29,10-46.74,21.21-69.41,32-42.61,20.29-86.68,41.28-131,55.36C1467.89,2328.79,1432.85,2334.72,1399.43,2334.72Zm131-1506.37c-67.25,0-133.25,61.69-197.2,121.45-46.63,43.58-90.68,84.75-135.31,104-55.74,24-100.36,49.92-140.43,81.53-41.3,32.58-78.15,71.44-116,122.3-22.74,30.58-49.16,59.36-74.7,87.19-60,65.39-116.71,127.14-126,207.94-3.79,32.88,4,64.42,24.62,99.26,18.23,30.86,44.63,60.68,70.17,89.53,33.61,38,68.37,77.21,87.28,121.11,17.95,41.65,22.39,91.89,26.68,140.49,3.41,38.65,6.94,78.61,17.27,113.76,11.53,39.26,30.55,68.32,58.13,88.84,111.7,83,248.44,113.52,343.49,124.47,42.41,4.89,87-.35,136.41-16,44.15-14,88.13-35,130.66-55.22,22.69-10.81,46.16-22,69.5-32.05,91.67-39.53,138.91-104.93,198.71-187.73,10-13.89,20.39-28.24,31.32-42.94h0c31.94-43,64.75-89.54,88.35-139,22.35-46.83,35.76-94.65,42.2-150.48,4.51-39.21,15.1-79.21,25.35-117.9,10.54-39.8,21.43-81,25.4-120.46,4.42-44.14-.43-81.84-14.83-115.25-30.6-71-100.57-108.1-174.66-147.42-37.21-19.75-75.69-40.17-109.77-65.51-42.27-31.43-77.4-89.41-111.36-145.48-23.61-39-48-79.26-74.43-109.85-29.44-34.11-58.4-52.38-88.51-55.85A106.49,106.49,0,0,0,1530.42,828.35Zm405.71,1168.71h0ZM1407,2295.22a256.38,256.38,0,0,1-26-1.31c-90.18-9.14-220.14-36.25-327.13-113.52-59.67-43.12-67.41-118.88-74.9-192.16-4.66-45.6-9.48-92.76-26.79-131.44-18.24-40.8-51.41-77.24-83.49-112.48-24.56-27-50-54.89-67.71-84-19.92-32.69-28.07-63.78-24.9-95C784,1488,837,1428.68,893.06,1365.85c23.7-26.55,48.22-54,69.2-83.06,35.18-48.69,69.61-86,108.36-117.46,37.59-30.5,79.57-55.65,132.08-79.14,41.46-18.55,82.34-57.82,125.62-99.4,63.67-61.16,129.51-124.4,198.34-117.42,29.17,3,57.3,20.11,86,52.45,25.47,28.7,49.09,66.51,71.94,103.08,32.65,52.27,66.42,106.32,106.3,135.13,32.33,23.35,68.83,42.09,104.12,60.2,70.87,36.38,137.82,70.74,168,138.17,14.22,31.78,19.36,67.74,15.71,109.92-3.24,37.56-13,76.65-22.47,114.45-9.15,36.56-18.61,74.37-22.34,111.24-11,108.31-49,178-120,276.22h0c-10.11,14-19.71,27.67-29,40.9-26.83,38.24-52.16,74.35-81,104.93-32,33.88-65.42,58-105.19,75.76-21.86,9.78-43.84,20.62-65.1,31.11-40,19.71-81.29,40.09-123,54C1473.82,2289.16,1439.65,2295.22,1407,2295.22ZM1516.16,871.59c-64,0-125.91,59.52-185.93,117.18-43.46,41.75-84.51,81.18-126.4,99.93-52.3,23.39-94.07,48.42-131.48,78.77-38.56,31.29-72.83,68.44-107.86,116.94-21.07,29.16-45.63,56.67-69.38,83.27-55.8,62.49-108.5,121.51-116.25,197.86-6.93,68.33,41.08,121.08,91.9,176.92,32.23,35.4,65.55,72,84,113.2,17.49,39.1,22.33,86.48,27,132.29,3.73,36.44,7.58,74.11,17.78,107.15,11.39,36.89,29.71,64.06,56,83.06,106.49,76.91,236,103.91,325.8,113,40.08,4.06,82.12-1.47,128.52-16.9,41.48-13.81,82.72-34.15,122.6-53.82,21.29-10.5,43.29-21.35,65.2-31.15,86-38.49,129.73-100.83,185.09-179.76,9.29-13.23,18.89-26.92,29-40.93h0c29.59-41,60-85.35,81.58-132.32,20.49-44.49,32.52-89.79,37.87-142.57,3.76-37.07,13.24-75,22.41-111.63,9.43-37.7,19.18-76.68,22.41-114,3.6-41.7-1.47-77.21-15.49-108.56-29.79-66.55-96.31-100.69-166.74-136.84-35.39-18.16-72-37-104.48-60.42-40.32-29.13-74.23-83.41-107-135.9-22.79-36.47-46.35-74.19-71.67-102.71-28.22-31.81-55.78-48.67-84.23-51.55Q1521.27,871.59,1516.16,871.59Zm396.7,1097.83h0Zm-499.06,288.4q-10.46,0-21.06-.91c-85.25-7.46-208.29-31.37-310.29-102.93-56.91-39.94-65.2-111.38-73.23-180.46-5-43-10.15-87.42-27-123.7-17.75-38.27-49.52-72.23-80.26-105.07-23.54-25.16-47.88-51.17-65-78.42-19.25-30.62-27.34-59.87-24.75-89.44,6.4-73,55.65-129.75,107.8-189.8,22-25.37,44.82-51.6,64.24-79.28,32.58-46.43,64.6-82.11,100.77-112.3,35.1-29.29,74.4-53.57,123.67-76.43,38.88-18,77-55.64,117.26-95.44,59.32-58.57,120.66-119.14,185.75-113.43,27.6,2.41,54.39,18.25,81.92,48.42,24.42,26.76,47.21,62.15,69.25,96.37,31.5,48.91,64.07,99.48,102.07,126.15,30.83,21.62,65.51,38.83,99.06,55.47,67.38,33.42,131,65,160.4,128.28,13.84,29.82,19.17,63.71,16.27,103.58-2.57,35.51-11.3,72.53-19.73,108.34-8.16,34.63-16.6,70.43-19.64,105.28-9,102.4-44,168.68-109.66,262.33h0c-9.37,13.34-18.25,26.37-26.83,39-24.83,36.44-48.27,70.86-75.13,100.1-29.77,32.41-61,55.57-98.34,72.89-20.5,9.52-41.11,20-61,30.21C1561.64,2221.67,1490.82,2257.82,1413.8,2257.82Zm89.37-1345.23c-60.82,0-119,57.4-175.27,113-40.48,40-78.72,77.73-118,96-49,22.76-88.16,46.92-123.06,76-36,30-67.85,65.54-100.28,111.77-19.51,27.8-42.34,54.08-64.42,79.51C870.26,1448.59,821.29,1505,815,1577.13c-5.66,64.55,40.33,113.7,89,165.74,30.88,33,62.81,67.13,80.74,105.79,17,36.68,22.21,81.35,27.23,124.54,4,34.34,8.11,69.85,18.16,100.89,11.22,34.66,28.86,60.06,53.91,77.64,101.5,71.21,224,95,309,102.44,37.89,3.32,77.49-2.45,121.07-17.62,39-13.57,77.63-33.3,115-52.38,20-10.19,40.59-20.72,61.14-30.26,80.65-37.44,121.11-96.84,172.35-172,8.59-12.61,17.47-25.65,26.85-39h0c65.41-93.25,100.26-159.21,109.17-261,3.06-35,11.52-70.95,19.7-105.67,8.41-35.7,17.11-72.62,19.67-107.91,2.86-39.39-2.38-72.83-16-102.23-29-62.4-92.2-93.76-159.13-127-33.64-16.68-68.42-33.94-99.41-55.68-38.45-27-71.17-77.78-102.81-126.91-22-34.13-44.71-69.42-69-96-27-29.64-53.25-45.18-80.13-47.53C1508.71,912.7,1505.93,912.59,1503.17,912.59Zm387.36,1031.05h0ZM1420,2222.43c-5.53,0-11.09-.19-16.71-.61-80.57-5.93-197-26.9-294.26-93.14-54.27-37-63-104.32-71.5-169.44-5.26-40.5-10.71-82.38-27.07-116.39-17.24-35.88-47.67-67.52-77.1-98.12-22.55-23.44-45.87-47.68-62.39-73.19-18.57-28.66-26.59-56.19-24.53-84.15,5.09-69.05,50.86-123.23,99.31-180.59,20.47-24.23,41.63-49.29,59.61-75.67,30.15-44.25,59.91-78.35,93.67-107.32,32.75-28.11,69.54-51.54,115.76-73.76,36.45-17.53,71.89-53.51,109.42-91.6,55.24-56.06,112.36-114.05,173.93-109.5,26.09,1.92,51.61,16.53,78,44.66,23.4,25,45.37,58.07,66.62,90.09,30.36,45.75,61.76,93,98,117.73,29.37,20,62.33,35.79,94.21,51.06,64,30.68,124.54,59.66,153.11,119,30,62.31,14.46,132.37-.52,200.13-7.25,32.79-14.75,66.7-17.17,99.62-7.13,96.79-39.31,159.82-100.12,249.08h0c-8.66,12.71-16.87,25.13-24.82,37.14-47.61,72-85.21,128.87-161.52,165.57-19.23,9.25-38.54,19.45-57.22,29.31C1561.38,2186.86,1494,2222.43,1420,2222.43Zm71.33-1271c-57.83,0-112.36,55.35-165.16,108.93-37.7,38.27-73.31,74.41-110.19,92.15-46,22.11-82.59,45.42-115.16,73.37-33.57,28.8-63.18,62.73-93.19,106.78-18.06,26.5-39.27,51.61-59.78,75.89-48.16,57-93.64,110.86-98.67,179-4.5,61,39.54,106.75,86.16,155.23,29.58,30.75,60.17,62.55,77.6,98.82,16.55,34.42,22,76.52,27.32,117.23,4.21,32.36,8.56,65.82,18.45,95,11,32.56,28,56.29,51.87,72.55,96.72,65.89,212.67,86.76,292.92,92.67,79.8,5.88,152-32.25,221.89-69.13,18.71-9.87,38-20.08,57.32-29.35,75.62-36.38,113-93,160.42-164.62,7.95-12,16.16-24.44,24.84-37.17h0c60.53-88.85,92.56-151.56,99.65-247.73,2.44-33.12,9.95-67.13,17.23-100,15.56-70.4,30.27-136.9.72-198.35-28.15-58.5-88.22-87.28-151.82-117.75-32-15.31-65-31.15-94.57-51.27-36.65-25-68.2-72.51-98.71-118.48-21.19-31.93-43.09-64.94-66.34-89.72-25.89-27.61-50.82-41.94-76.2-43.81Q1494.65,951.45,1491.35,951.45Zm377.78,968.13h0ZM1425.64,2189q-6.36,0-12.8-.38c-76.15-4.56-186.37-22.84-279-84.11-51.73-34.23-60.88-97.69-69.72-159.07-5.5-38.15-11.18-77.6-27-109.49-16.74-33.62-45.87-63.09-74-91.59-21.59-21.84-43.91-44.42-59.84-68.29-17.91-26.83-25.85-52.72-24.27-79.15,3.92-65.27,46.42-117,91.42-171.81,19-23.13,38.65-47,55.28-72.19,27.89-42.16,55.54-74.74,87-102.53,30.56-27,65-49.56,108.32-71.14,34.17-17,67.16-51.42,102.08-87.86,51.43-53.65,104.61-109.14,162.81-105.64,24.68,1.47,49,14.94,74.26,41.17,22.42,23.25,43.59,54.22,64.06,84.17,29.25,42.79,59.5,87,94,109.84,28,18.5,59.3,33,89.58,47,60.87,28.14,118.36,54.71,146.11,110.41,29.09,58.45,15.38,124.8,2.11,189-6.42,31-13,63.14-14.91,94.24-5.48,91.48-35,151.4-91.28,236.45h0c-8,12.11-15.61,23.94-23,35.38-44,68.59-78.77,122.77-150.34,158.41-18,9-36.13,18.85-53.64,28.4C1560.75,2154,1496.67,2189,1425.64,2189Zm55-1200.66c-55,0-106.12,53.33-155.6,105-35.1,36.62-68.25,71.2-102.84,88.42-43.13,21.47-77.36,43.95-107.73,70.74-31.31,27.62-58.82,60-86.57,102-16.7,25.25-36.4,49.23-55.44,72.42-44.71,54.43-86.94,105.84-90.8,170.22-3.45,57.58,38.7,100.21,83.32,145.35,28.33,28.65,57.61,58.28,74.55,92.3,16.07,32.28,21.78,72,27.31,110.32,4.39,30.48,8.93,62,18.65,89.4,10.83,30.57,27.15,52.74,49.86,67.77,92.14,60.93,201.85,79.12,277.66,83.65,75.38,4.51,143.06-32.41,208.52-68.12,17.52-9.56,35.65-19.45,53.72-28.45,70.89-35.31,105.47-89.2,149.26-157.44,7.34-11.44,14.94-23.28,23-35.41h0c56-84.64,85.39-144.24,90.83-235.09,1.87-31.3,8.53-63.5,15-94.64,13.78-66.64,26.79-129.59-1.89-187.18-27.31-54.84-84.38-81.22-144.79-109.14-30.38-14-61.8-28.56-89.94-47.18-34.94-23.11-65.34-67.57-94.74-110.57-20.41-29.86-41.51-60.74-63.77-83.82-24.79-25.71-48.49-38.91-72.45-40.34C1484,988.34,1482.31,988.29,1480.63,988.29Zm368,908.87h0Zm-417.92,260.11q-4.62,0-9.29-.21c-72-3.31-176.24-19.15-264.5-75.79-49.3-31.65-58.76-91.45-67.9-149.29-5.69-35.94-11.56-73.09-27-103-16.23-31.51-44.11-58.94-71.07-85.47-43.14-42.46-83.89-82.56-81.33-138.14,2.85-61.69,42.31-111.1,84.08-163.4,17.64-22.08,35.87-44.92,51.24-68.85,25.78-40.17,51.46-71.29,80.84-97.93,28.5-25.85,60.7-47.64,101.34-68.57,32-16.49,62.7-49.4,95.19-84.24,47.86-51.33,97.32-104.38,152.37-101.86,51.88,2.38,92.74,60.43,132.25,116.56,28.16,40,57.28,81.36,90.12,102.43,26.64,17.1,56.38,30.35,85.15,43.17,57.83,25.78,112.46,50.12,139.38,102.36,28.24,54.82,16.15,117.64,4.46,178.39-5.66,29.38-11.5,59.76-12.86,89.14-4,86.43-31.11,143.39-83.1,224.41h0c-7.41,11.54-14.42,22.8-21.2,33.69-40.66,65.33-72.77,116.93-139.89,151.51-16.9,8.71-33.85,18.26-50.25,27.51C1559.79,2123,1498.89,2157.27,1430.69,2157.27Zm40.23-1134.07c-52.32,0-100.21,51.37-146.57,101.07-32.65,35-63.5,68.1-95.94,84.82-40.42,20.81-72.44,42.47-100.76,68.15-29.18,26.48-54.72,57.42-80.37,97.38-15.44,24.06-33.72,47-51.4,69.08-41.49,52-80.67,101-83.48,161.81-2.51,54.36,37.82,94,80.51,136.06,27.12,26.68,55.15,54.27,71.58,86.17,15.59,30.28,21.5,67.66,27.22,103.81,9,57.24,18.41,116.42,66.68,147.41,87.75,56.31,191.52,72.05,263.13,75.35,71.18,3.27,134.59-32.45,195.9-67,16.42-9.26,33.4-18.82,50.34-27.55,66.44-34.24,98.38-85.55,138.82-150.52,6.78-10.9,13.8-22.17,21.21-33.73h0c51.73-80.61,78.72-137.24,82.68-223,1.36-29.57,7.22-60,12.9-89.53,12.13-63.07,23.6-122.64-4.2-176.61-26.49-51.38-80.68-75.54-138.06-101.11-28.86-12.86-58.7-26.16-85.52-43.37-33.29-21.36-62.56-62.95-90.88-103.16-39.13-55.59-79.6-113.07-130.13-115.39Q1472.75,1023.2,1470.92,1023.2Zm358,853.06h0Zm-393.73,251q-3.08,0-6.15-.1c-68-2.19-166.63-15.79-250.69-68.11-47-29.26-56.68-85.6-66.07-140.09-5.83-33.84-11.85-68.84-26.76-96.83-15.72-29.52-42.39-55.05-68.17-79.74-41.29-39.53-80.29-76.86-78.59-129.4,1.89-58.29,38.5-105.44,77.26-155.37,16.36-21.07,33.27-42.86,47.46-65.65,23.82-38.26,47.67-68,75-93.5,26.57-24.77,56.69-45.76,94.79-66,30-16,58.53-47.43,88.74-80.74,44.52-49.08,90.55-99.85,142.56-98.14,49,1.57,88.36,55.85,126.4,108.33,27.1,37.38,55.12,76,86.37,95.5,25.37,15.79,53.61,27.92,80.93,39.64,54.94,23.58,106.83,45.86,132.93,94.84,27.38,51.4,16.78,110.87,6.53,168.39-5,27.8-10.08,56.55-11,84.29-2.64,81.65-27.51,135.77-75.55,212.94h0c-6.84,11-13.31,21.71-19.57,32.08-37.54,62.2-67.19,111.33-130.11,144.85-15.83,8.44-31.71,17.68-47.07,26.61C1558.54,2093.64,1500.69,2127.3,1435.22,2127.3Zm26.91-1071c-49.76,0-94.61,49.44-138,97.28-30.37,33.49-59.06,65.12-89.48,81.32-37.88,20.17-67.81,41-94.2,65.63-27.21,25.36-50.91,54.9-74.6,92.94-14.26,22.91-31.22,44.76-47.62,65.89-38.48,49.56-74.82,96.37-76.68,153.77-1.66,51.31,36.9,88.23,77.74,127.33,25.94,24.83,52.76,50.51,68.69,80.43,15.12,28.38,21.19,63.59,27,97.65,9.29,53.89,18.89,109.62,64.82,138.22,83.54,52,181.69,65.52,249.32,67.7,67.23,2.19,126.58-32.36,184-65.77,15.38-8.95,31.29-18.2,47.17-26.67,62.25-33.16,91.73-82,129-143.84,6.26-10.38,12.73-21.11,19.59-32.11h0c47.77-76.75,72.51-130.55,75.13-211.58.9-27.94,6-56.79,11-84.69,10.64-59.67,20.68-116-6.25-166.6-25.65-48.14-77.1-70.23-131.58-93.61-27.42-11.77-55.76-23.94-81.3-39.84-31.71-19.74-59.89-58.62-87.14-96.22-37.65-51.94-76.58-105.66-124.27-107.19C1463.75,1056.3,1462.94,1056.29,1462.13,1056.29Zm348,800.49h0ZM1439.25,2099l-3.33,0c-64.19-1.19-157.51-12.74-237.55-61.05-44.75-27-54.64-80.1-64.21-131.43-6-31.86-12.09-64.81-26.52-91-15.22-27.65-40.71-51.4-65.37-74.36-39.5-36.79-76.81-71.54-75.88-121.18,1-55.07,35-100.07,70.92-147.71,15.17-20.1,30.85-40.88,44-62.57,42.2-69.92,88.06-114.2,158.27-152.83,28.09-15.47,54.61-45.53,82.69-77.35,41.4-46.92,84.19-95.48,133.35-94.52,46.35.85,84.19,51.59,120.79,100.65,26.06,34.93,53,71,82.74,89,24.14,14.57,51,25.65,76.9,36.36,52.17,21.56,101.45,41.91,126.74,87.84,26.52,48.18,17.29,104.47,8.36,158.9-4.32,26.31-8.78,53.51-9.27,79.7-1.43,77.12-24.21,128.54-68.55,202h0c-6.32,10.45-12.29,20.66-18.06,30.52-34.63,59.22-62,106-121,138.46-14.84,8.16-29.71,17.09-44.09,25.73C1557,2066,1502.1,2099,1439.25,2099Zm15-1011.32c-47.34,0-89.31,47.57-129.93,93.6-28.24,32-54.91,62.24-83.42,77.93-35.49,19.53-63.47,39.6-88.06,63.17-25.34,24.29-47.33,52.46-69.19,88.68-13.17,21.81-28.89,42.65-44.1,62.81-35.67,47.27-69.36,91.92-70.37,146.1-.9,48.42,36,82.76,75,119.12,24.81,23.11,50.47,47,65.9,75,14.64,26.6,20.83,59.77,26.81,91.85,9.46,50.73,19.24,103.19,62.93,129.58,79.52,48,172.33,59.47,236.18,60.65,63.44,1.19,119-32.19,172.79-64.46,14.4-8.65,29.29-17.59,44.17-25.78,58.32-32.11,85.5-78.59,119.92-137.43,5.78-9.88,11.75-20.09,18.07-30.57h0c44.1-73,66.74-124.14,68.16-200.64.49-26.39,5-53.69,9.3-80.09,9.26-56.46,18-109.78-8.05-157.14-24.82-45.07-73.67-65.25-125.38-86.61-26-10.76-53-21.87-77.27-36.55-30.2-18.24-57.31-54.57-83.52-89.72-36.21-48.53-73.64-98.71-118.64-99.54Zm337.89,751h0Zm-349.26,233.5H1442c-60.61-.29-148.86-10-225-54.56-42.62-24.94-52.66-74.93-62.36-123.28-6-30-12.25-61-26.2-85.55-14.72-25.89-39.09-48-62.65-69.32C1028,1705.2,992.3,1672.88,992.53,1626c.25-52,31.73-95,65-140.39,14.05-19.17,28.58-39,40.66-59.63,38.94-66.56,81.65-109,147.44-146.34,26.31-15,50.94-43.67,77-74.07,38.39-44.73,78.08-91,124.37-91h.34c43.79.21,80.18,47.62,115.37,93.47,25,32.63,51,66.37,79.24,82.92,23,13.44,48.43,23.55,73,33.32,49.54,19.67,96.34,38.25,120.82,81.3,25.67,45.16,17.68,98.42,10,149.93-3.74,24.88-7.6,50.61-7.71,75.34-.35,72.83-21.19,121.67-62.1,191.61h0c-5.83,10-11.33,19.66-16.64,29-31.93,56.35-57.15,100.86-112.42,132.29-13.9,7.9-27.82,16.52-41.28,24.86C1555.29,2039.86,1503.17,2072.14,1442.84,2072.14Zm4.24-954.83c-45,0-84.3,45.76-122.28,90-26.25,30.59-51,59.47-77.76,74.67-65.33,37.13-107.75,79.23-146.43,145.34-12.15,20.76-26.72,40.64-40.82,59.86-33,45.08-64.26,87.65-64.51,138.78-.22,45.68,35,77.61,72.32,111.41,23.73,21.5,48.27,43.72,63.2,70,14.17,24.94,20.44,56.17,26.51,86.37,9.58,47.75,19.49,97.13,61,121.45,75.66,44.26,163.4,53.89,223.68,54.18h.8c59.55,0,111.33-32.06,161.42-63.08,13.48-8.35,27.42-17,41.36-24.91,54.61-31.06,79.66-75.27,111.38-131.26,5.33-9.39,10.83-19.11,16.66-29.08h0c40.67-69.51,61.38-118,61.73-190.24.12-24.92,4-50.75,7.74-75.72,8-53.4,15.57-103.84-9.63-148.18-24-42.2-70.36-60.61-119.44-80.09-24.71-9.82-50.27-20-73.42-33.51-28.76-16.82-54.82-50.78-80-83.62-34.79-45.32-70.76-92.19-113.21-92.39Zm327.77,704.45h0Zm-332.45,225c-57,0-137.73-8.71-208.14-48.61-40.59-23-50.71-70.08-60.5-115.6-6.07-28.23-12.35-57.41-25.83-80.4-14.23-24.24-37.51-44.76-60-64.6-36.11-31.83-70.22-61.89-70.62-106.2-.43-49.14,28.73-90.07,59.6-133.41,13-18.27,26.47-37.17,37.6-56.81,35.9-63.34,75.68-103.92,137.3-140.07,24.63-14.46,47.51-41.87,71.73-70.9,35.75-42.83,72.72-87.13,116.59-87.52h.52c41.15,0,76,44.1,109.66,86.76,24.06,30.47,48.94,62,75.85,77.22,21.85,12.38,46,21.59,69.36,30.5,47,17.93,91.46,34.86,115.14,75.2,24.83,42.32,18,92.71,11.35,141.45-3.2,23.53-6.5,47.86-6.29,71.19.61,68.78-18.43,115.16-56.14,181.72h0c-5.37,9.47-10.44,18.7-15.33,27.63-29.42,53.62-52.65,96-104.42,126.36-13,7.64-26,16-38.64,24-47.4,30.26-96.42,61.56-153.72,62.07Zm-1.78-901.37h-.5c-42.6.38-79.15,44.18-114.5,86.53-24.38,29.22-47.41,56.81-72.45,71.51-61.17,35.89-100.66,76.18-136.3,139.06-11.2,19.76-24.7,38.71-37.75,57-30.61,43-59.51,83.55-59.09,131.79.39,43.09,34,72.76,69.69,104.17,22.68,20,46.13,40.65,60.58,65.27,13.71,23.37,20,52.77,26.15,81.21,9.66,44.93,19.65,91.39,59.16,113.79,72,40.79,154.91,48.75,211.8,48.23,56.52-.51,105.19-31.58,152.27-61.64,12.62-8.05,25.66-16.38,38.72-24.05,51.13-30,74.2-72.07,103.41-125.31,4.9-8.94,10-18.18,15.34-27.67h0c37.48-66.13,56.4-112.18,55.79-180.33-.22-23.53,3.11-48,6.32-71.59,6.86-50.5,13.35-98.19-11-139.69-23.19-39.5-67.18-56.27-113.74-74-23.46-9-47.72-18.19-69.75-30.68-27.38-15.51-52.42-47.23-76.65-77.91C1514.85,1189,1480.44,1145.43,1440.62,1145.43ZM1758.35,1806h0Zm-318.13,216.87c-53.29,0-125.85-8.11-189.89-43.24-38.64-21.21-48.81-65.53-58.65-108.39-6.09-26.56-12.4-54-25.42-75.53-13.73-22.69-36-41.75-57.48-60.18-34.51-29.59-67.11-57.53-68.06-99.39-1-46.4,26-85.42,54.53-126.74,12-17.42,24.51-35.43,34.76-54.11,33.07-60.26,70.1-99.09,127.81-134,23-14,44.28-40.12,66.77-67.83,33.2-40.91,67.53-83.21,109-84.15l1.24,0c38.56,0,71.8,40.92,104,80.51,23.1,28.44,47,57.85,72.57,71.88,20.78,11.41,43.7,19.78,65.86,27.89,44.64,16.32,86.81,31.73,109.69,69.52,24,39.65,18.19,87.31,12.57,133.41-2.71,22.26-5.52,45.27-5,67.28,1.47,64.93-15.9,109-50.64,172.29-5,9-9.61,17.79-14.11,26.28-27.08,51-48.46,91.29-97,120.66-12.18,7.38-24.37,15.4-36.16,23.15-44.35,29.19-90.22,59.37-144.33,60.6Q1446.4,2022.9,1440.22,2022.91Zm-5.43-850.86-1.17,0c-40.17.91-74.09,42.71-106.9,83.13-22.64,27.9-44,54.25-67.48,68.45-58,35.12-93.57,72.41-126.82,133-10.32,18.8-22.82,36.87-34.91,54.34-28.32,40.94-55.07,79.62-54,125.12.92,40.63,33.07,68.18,67.1,97.36,21.68,18.57,44.09,37.78,58,60.85,13.25,21.88,19.6,49.56,25.74,76.33,9.7,42.27,19.73,86,57.29,106.6,68.46,37.55,146.82,44,200.51,42.76,53.32-1.21,98.85-31.17,142.88-60.14,11.81-7.77,24-15.81,36.25-23.21,47.85-29,69.07-69,96-119.6,4.51-8.5,9.17-17.28,14.13-26.31h0c34.51-62.9,51.76-106.6,50.3-170.91-.51-22.21,2.31-45.32,5-67.67,5.82-47.73,11.32-92.82-12.19-131.66-22.39-37-64.11-52.21-108.28-68.36C1654,1344,1631,1335.61,1610,1324.1c-26-14.29-50.11-43.91-73.37-72.56C1504.87,1212.46,1472.05,1172.05,1434.79,1172.05Zm307.78,619.37h0Zm-304.26,209c-49.59,0-114.83-7.5-173-38.41-36.78-19.53-47-61.25-56.81-101.6-6.09-25-12.4-50.81-25-70.94-13.25-21.22-34.48-38.92-55-56-33-27.49-64.12-53.46-65.56-93-1.6-43.8,23.39-81,49.84-120.39,11.14-16.59,22.67-33.75,32.1-51.51,30.44-57.33,64.89-94.47,118.93-128.2,21.56-13.47,41.26-38.44,62.12-64.88,30.82-39.06,62.69-79.45,101.83-80.88,36.9-1.35,69.19,37.28,100.4,74.64,22.16,26.54,45.09,54,69.4,66.9,19.76,10.49,41.5,18.1,62.53,25.46,42.36,14.83,82.37,28.83,104.48,64.23,23.19,37.13,18.31,82.22,13.6,125.82-2.27,21-4.62,42.79-3.86,63.56,2.23,61.28-13.6,103.08-45.58,163.32h0c-4.55,8.57-8.83,16.92-13,25-24.9,48.51-44.56,86.81-90,115.18-11.41,7.12-22.81,14.85-33.83,22.32-41.5,28.13-84.42,57.22-135.49,59.09C1450.67,2000.26,1444.61,2000.38,1438.31,2000.38Zm-8.71-803.12-1.77,0c-37.87,1.38-69.34,41.26-99.77,79.83-21,26.64-40.86,51.79-62.83,65.51-54.29,33.89-87.36,69.55-118,127.16-9.5,17.89-21.07,35.1-32.25,51.76-26.19,39-50.94,75.84-49.38,118.75,1.4,38.31,32.09,63.89,64.58,91,20.7,17.25,42.11,35.1,55.59,56.69,12.8,20.5,19.16,46.56,25.31,71.75,9.7,39.76,19.73,80.87,55.42,99.82,65.09,34.56,139.13,39.6,189.78,37.76,50.29-1.83,92.87-30.7,134.05-58.62,11-7.48,22.46-15.22,33.91-22.37,44.77-28,64.28-66,89-114.1,4.15-8.08,8.44-16.44,13-25h0c31.76-59.81,47.47-101.27,45.26-161.93-.77-21,1.59-42.83,3.88-64,4.87-45.12,9.48-87.74-13.2-124.07-21.6-34.57-61.17-48.42-103.06-63.09-21.12-7.39-43-15-62.91-25.62-24.79-13.17-47.89-40.82-70.22-67.56C1495.75,1234.71,1464.46,1197.26,1429.6,1197.26Zm297.89,580.57h0Zm-290.84,201.3c-46,0-104.63-6.9-157.53-34.06-35-18-45.15-57.24-55-95.21-6.07-23.5-12.36-47.79-24.47-66.61-12.78-19.86-33.05-36.29-52.65-52.17-31.49-25.53-61.25-49.65-63.12-87-2.07-41.35,21-76.8,45.5-114.33,10.3-15.81,21-32.15,29.62-49,28-54.52,60-90,110.63-122.59,20.16-13,38.43-36.8,57.78-62,28.59-37.28,58.16-75.84,95.12-77.69,34.87-1.76,65.85,34.3,95.8,69.18,21.26,24.76,43.25,50.36,66.36,62.22,18.78,9.64,39.4,16.54,59.33,23.22,40.2,13.45,78.16,26.15,99.5,59.3,22.39,34.77,18.37,77.41,14.49,118.63-1.87,19.89-3.81,40.45-2.82,60,2.9,57.84-11.5,97.51-40.91,154.8h0c-4.19,8.14-8.12,16.08-11.93,23.75-22.88,46.12-40.95,82.54-83.46,109.92-10.68,6.87-21.33,14.31-31.64,21.51-38.82,27.1-79,55.12-127.17,57.54C1452.77,1978.91,1444.91,1979.13,1436.65,1979.13Zm-11.66-758c-.77,0-1.53,0-2.3.06-35.7,1.79-64.87,39.83-93.08,76.62-19.5,25.41-37.91,49.42-58.47,62.66-50.8,32.69-81.55,66.77-109.67,121.53-8.73,17-19.43,33.42-29.77,49.28-24.21,37.15-47.08,72.23-45,112.69,1.81,36.11,31.1,59.85,62.1,85,19.77,16,40.22,32.59,53.23,52.82,12.35,19.19,18.7,43.71,24.83,67.41,9.67,37.39,19.66,76,53.56,93.46,61.88,31.76,131.82,35.57,179.59,33.16,47.43-2.38,87.23-30.17,125.73-57,10.33-7.21,21-14.66,31.73-21.56,41.88-27,59.8-63.09,82.49-108.83,3.81-7.68,7.75-15.63,11.94-23.79h0c29.19-56.85,43.48-96.19,40.61-153.4-1-19.79,1-40.45,2.83-60.43,4-42.64,7.81-82.92-14.06-116.89-20.82-32.33-58.34-44.89-98.06-58.19-20-6.7-40.75-13.63-59.72-23.37-23.58-12.11-45.75-37.92-67.19-62.88C1487.42,1255.82,1457.61,1221.12,1425,1221.12Zm288.08,544.07h0ZM1435.24,1959.1c-42.44,0-95.21-6.32-143.25-30.16-33.3-16.52-43.4-53.47-53.17-89.2-6-22.1-12.29-44.94-24-62.54-12.31-18.57-31.65-33.81-50.35-48.55-30.08-23.7-58.49-46.08-60.74-81.33-2.5-39,18.86-72.8,41.47-108.56,9.52-15,19.36-30.61,27.33-46.66,25.72-51.84,55.52-85.79,102.85-117.17,18.85-12.51,35.79-35.23,53.71-59.28,26.52-35.58,53.94-72.37,88.84-74.61,32.92-2.12,62.65,31.54,91.39,64.08,20.39,23.09,41.47,47,63.42,57.86,17.85,8.86,37.4,15.1,56.3,21.14,38.12,12.18,74.14,23.68,94.73,54.72,21.59,32.55,18.35,72.86,15.22,111.84-1.51,18.79-3.07,38.22-1.88,56.69,3.49,54.58-9.59,92.22-36.61,146.69h0c-3.85,7.74-7.46,15.28-11,22.58-21,43.83-37.59,78.46-77.39,104.86-10,6.63-20,13.79-29.58,20.72-36.3,26.08-73.83,53.06-119.33,56C1454.65,1958.75,1445.23,1959.1,1435.24,1959.1Zm-14.33-715.4q-1.38,0-2.76.09c-33.64,2.15-60.67,38.42-86.81,73.5-18.08,24.25-35.15,47.16-54.4,59.93-47.51,31.51-76.09,64.06-101.91,116.11-8,16.17-17.91,31.79-27.46,46.9-22.37,35.37-43.5,68.77-41.06,106.91,2.18,34,30.12,56,59.7,79.35,18.87,14.88,38.39,30.26,50.94,49.19,11.92,18,18.22,41,24.32,63.33,9.61,35.15,19.54,71.49,51.74,87.47,58.8,29.17,124.85,31.86,169.91,29,44.7-2.86,81.91-29.6,117.89-55.47,9.66-6.94,19.65-14.12,29.67-20.77,39.17-26,55.61-60.31,76.43-103.76,3.49-7.3,7.11-14.85,11-22.61,26.81-54,39.79-91.34,36.33-145.29-1.19-18.67.38-38.2,1.89-57.09,3.24-40.29,6.29-78.34-14.77-110.1-20.06-30.23-55.63-41.59-93.28-53.62-19-6.07-38.64-12.35-56.68-21.3-22.43-11.13-43.7-35.21-64.26-58.49C1479.83,1275.84,1451.45,1243.7,1420.91,1243.7Zm278.39,509.75h0ZM1434.06,1940.2c-39.08,0-86.54-5.76-130.14-26.65-31.68-15.18-41.69-49.94-51.38-83.56-6-20.77-12.18-42.25-23.42-58.7-11.85-17.35-30.3-31.48-48.14-45.15-28.71-22-55.83-42.76-58.42-76-2.86-36.83,16.87-69,37.75-103,8.79-14.33,17.88-29.15,25.18-44.39,23.62-49.28,51.31-81.72,95.6-112,17.62-12,33.3-33.71,49.91-56.64,24.58-33.94,50-69,82.94-71.6,31.1-2.44,59.6,29,87.16,59.33,19.54,21.52,39.75,43.77,60.59,53.77,17,8.12,35.49,13.76,53.41,19.21,36.15,11,70.31,21.41,90.16,50.46,20.82,30.47,18.29,68.57,15.84,105.42-1.18,17.75-2.4,36.11-1,53.52,4,51.49-7.86,87.2-32.67,139h0c-3.52,7.36-6.84,14.52-10,21.45-19.26,41.66-34.47,74.57-71.71,100-9.33,6.38-18.65,13.27-27.65,19.93-33.93,25.11-69,51.07-112,54.41C1456.31,1939.7,1445.55,1940.2,1434.06,1940.2Zm-16.73-675.13c-1.06,0-2.11,0-3.17.12-31.69,2.47-56.72,37-80.93,70.48-16.75,23.13-32.57,45-50.59,57.29-44.43,30.35-71,61.44-94.67,110.89-7.36,15.37-16.49,30.25-25.31,44.64-20.65,33.66-40.15,65.45-37.36,101.4,2.5,32,29.14,52.46,57.35,74.07,18,13.8,36.64,28.06,48.74,45.78,11.49,16.81,17.74,38.51,23.79,59.49,9.52,33,19.37,67.19,49.93,81.84,55.87,26.77,118.23,28.44,160.72,25.14,42.14-3.28,76.9-29,110.52-53.88,9-6.67,18.36-13.58,27.74-20,36.61-25,51.68-57.62,70.76-98.9,3.21-6.94,6.53-14.12,10.06-21.49,24.6-51.34,36.37-86.71,32.41-137.57-1.38-17.62-.15-36.08,1-53.93,2.53-38,4.92-74-15.37-103.68-19.31-28.25-53-38.51-88.69-49.37-18-5.49-36.65-11.16-53.8-19.37-21.33-10.23-41.72-32.69-61.44-54.41C1472.92,1294.82,1445.9,1265.07,1417.33,1265.07Zm268.82,477.47h0ZM1433.1,1922.38c-35.89,0-78.57-5.23-118.11-23.51-30.13-13.94-40-46.63-49.63-78.25-5.92-19.53-12-39.72-22.85-55.09-11.41-16.21-29-29.31-46-42-27.4-20.4-53.28-39.67-56.16-71.08-3.19-34.75,15-65.38,34.3-97.8,8.11-13.64,16.5-27.74,23.19-42.22,21.66-46.84,47.39-77.83,88.81-107,16.47-11.59,31-32.23,46.36-54.09,22.77-32.37,46.31-65.84,77.42-68.69,29.35-2.7,56.68,26.58,83.1,54.89,18.72,20.06,38.07,40.8,57.87,50,16.11,7.45,33.67,12.53,50.65,17.44,34.28,9.93,66.67,19.3,85.8,46.49,20.07,28.51,18.17,64.52,16.33,99.35-.88,16.77-1.79,34.11-.29,50.52,4.46,48.57-6.28,82.44-29,131.65h0c-3.24,7-6.27,13.8-9.2,20.38-17.65,39.58-31.58,70.85-66.42,95.37-8.73,6.14-17.43,12.77-25.84,19.17-31.71,24.15-64.5,49.11-105,52.82C1457.79,1921.72,1445.87,1922.38,1433.1,1922.38Zm-18.91-637.09c-1.18,0-2.35,0-3.52.16-29.84,2.73-53,35.68-75.42,67.54-15.52,22-30.17,42.89-47,54.75-41.53,29.21-66.17,58.9-87.89,105.87-6.76,14.61-15.18,28.77-23.32,42.47-19,32-37,62.29-33.93,96.15,2.76,30.19,28.16,49.1,55.06,69.12,17.19,12.79,35,26,46.62,42.6,11.07,15.73,17.25,36.14,23.23,55.87,9.41,31,19.15,63.14,48.15,76.56,53.07,24.53,111.95,25.3,152,21.63,39.71-3.65,72.18-28.37,103.58-52.27,8.44-6.43,17.16-13.06,25.93-19.24,34.22-24.08,48-55,65.48-94.24,2.94-6.59,6-13.41,9.22-20.42h0c22.55-48.76,33.19-82.29,28.79-130.23-1.52-16.62-.6-34.06.29-50.93,1.89-35.94,3.68-69.89-15.84-97.62-18.58-26.4-50.51-35.64-84.32-45.42-17.08-5-34.74-10.06-51-17.59-20.28-9.38-39.82-30.32-58.72-50.57C1466.63,1312.82,1440.93,1285.29,1414.19,1285.29Zm259.41,447.13h0Zm-241.29,173.15c-32.86,0-71.23-4.73-107.06-20.7-28.65-12.78-38.44-43.53-47.9-73.27-5.84-18.35-11.88-37.32-22.28-51.67-11-15.15-27.74-27.28-44-39-25-18.08-50.83-36.77-54-66.42-3.46-32.79,13.34-61.94,31.12-92.81,7.48-13,15.21-26.4,21.34-40.15,19.84-44.5,43.73-74.1,82.46-102.15,15.38-11.14,28.82-30.81,43-51.63,21.08-30.87,42.88-62.79,72.24-65.88,27.72-2.94,53.9,24.36,79.22,50.75,17.92,18.69,36.46,38,55.25,46.38,15.29,6.82,31.93,11.39,48,15.81,32.5,8.93,63.21,17.36,81.64,42.79,19.32,26.67,18,60.7,16.72,93.61-.62,15.84-1.26,32.22.38,47.69,4.83,45.8-4.86,77.92-25.71,124.68h0c-3,6.64-5.73,13.1-8.42,19.36-15.5,36.11-28.89,67.3-61.48,90.91-8.15,5.91-16.28,12.28-24.13,18.43-29.63,23.21-60.27,47.21-98.47,51.24A364.6,364.6,0,0,1,1432.31,1905.57Zm-20.85-601.16a37.44,37.44,0,0,0-3.82.2c-28.1,3-49.53,34.35-70.26,64.7-14.36,21-27.93,40.89-43.7,52.31-38.81,28.11-61.68,56.44-81.56,101-6.19,13.88-14,27.37-21.47,40.4-17.55,30.47-34.13,59.25-30.77,91.16,3,28.42,27.21,45.93,52.84,64.47,16.4,11.86,33.35,24.12,44.58,39.62,10.66,14.72,16.76,33.9,22.67,52.46,9.28,29.16,18.87,59.31,46.4,71.59,50.39,22.46,106,22.42,143.71,18.44,37.41-4,67.74-27.7,97.06-50.67,7.88-6.17,16-12.55,24.22-18.49,32-23.17,44.59-52.56,60.57-89.78,2.68-6.26,5.46-12.73,8.43-19.39h0c20.65-46.31,30.25-78.09,25.48-123.27-1.65-15.67-1-32.15-.39-48.08,1.32-33.94,2.57-66-16.2-91.9-17.86-24.65-48.11-33-80.14-41.75-16.19-4.44-32.93-9-48.41-15.94-19.29-8.6-38-28.12-56.12-47C1460.92,1329.87,1436.5,1304.41,1411.46,1304.41ZM1661.62,1723h0ZM1431.7,1889.7c-30,0-64.51-4.25-97-18.18-27.24-11.7-36.88-40.62-46.21-68.59-5.74-17.23-11.69-35-21.68-48.46-10.55-14.15-26.53-25.38-42-36.24-23.84-16.74-48.49-34.06-51.83-62-3.69-30.93,11.79-58.68,28.18-88.06,6.89-12.34,14-25.1,19.62-38.16,18.16-42.28,40.33-70.54,76.53-97.52,14.37-10.71,26.79-29.45,39.94-49.28,19.51-29.43,39.68-59.85,67.39-63.16,26.16-3.13,51.25,22.31,75.5,46.9,17.16,17.4,34.9,35.39,52.73,43,14.52,6.24,30.28,10.33,45.52,14.29,30.81,8,59.92,15.57,77.66,39.36,18.6,25,17.79,57.1,17,88.2-.37,15-.76,30.42,1,45,5.16,43.19-3.58,73.64-22.65,118.06h0c-2.71,6.31-5.24,12.44-7.7,18.38-14.17,34.3-26.41,63.93-56.87,86.65-7.62,5.69-15.21,11.8-22.55,17.71-27.67,22.3-56.29,45.35-92.32,49.66A342.44,342.44,0,0,1,1431.7,1889.7Zm-22.6-567.2a34.72,34.72,0,0,0-4.07.24c-26.45,3.16-46.26,33-65.43,62-13.28,20-25.83,39-40.58,50-36.26,27-57.47,54-75.65,96.4-5.67,13.19-12.82,26-19.75,38.42-16.16,29-31.44,56.35-27.85,86.4,3.2,26.76,26.26,43,50.68,60.11,15.64,11,31.8,22.34,42.61,36.85,10.26,13.76,16.28,31.79,22.09,49.23,9.13,27.39,18.58,55.72,44.69,66.93,47.84,20.54,100.28,19.79,135.85,15.54,35.24-4.21,62.28-26,90.92-49.07,7.35-5.93,15-12.06,22.62-17.77,29.86-22.27,41.39-50.17,56-85.5,2.46-5.94,5-12.09,7.71-18.41,18.88-44,27.54-74.08,22.45-116.65-1.77-14.77-1.38-30.34-1-45.39.81-32,1.57-62.3-16.46-86.49-17.17-23-45.82-30.45-76.15-38.34-15.34-4-31.2-8.11-45.92-14.42-18.32-7.87-36.25-26.06-53.6-43.64C1455.76,1346,1432.54,1322.5,1409.1,1322.5Zm241.09,391.82h0Zm-219,160.42c-27.37,0-58.35-3.82-87.69-15.94-25.9-10.71-35.38-37.9-44.55-64.19-5.65-16.19-11.49-32.93-21.09-45.44-10.13-13.21-25.36-23.6-40.08-33.64-22.74-15.51-46.24-31.55-49.76-58-3.9-29.17,10.36-55.58,25.46-83.53,6.34-11.74,12.9-23.88,18-36.27,16.6-40.16,37.17-67.13,71-93.08,13.41-10.29,24.89-28.13,37-47,18.05-28,36.7-57,62.85-60.52,24.69-3.3,48.71,20.4,71.94,43.32,16.41,16.19,33.38,32.94,50.3,39.93,13.78,5.69,28.71,9.35,43.15,12.89,29.2,7.16,56.78,13.93,73.85,36.17,17.9,23.33,17.56,53.71,17.22,83.08-.16,14.12-.33,28.72,1.51,42.45,5.43,40.72-2.42,69.59-19.86,111.77h0c-2.47,6-4.79,11.82-7,17.45-12.94,32.57-24.11,60.7-52.59,82.56-7.12,5.46-14.2,11.33-21,17-25.84,21.41-52.56,43.55-86.54,48.09A320.7,320.7,0,0,1,1431.24,1874.74Zm-24.15-535.14a32.53,32.53,0,0,0-4.29.28c-24.88,3.32-43.19,31.78-60.89,59.29-12.29,19.1-23.89,37.13-37.68,47.71-33.86,26-53.53,51.75-70.14,91.95-5.17,12.52-11.76,24.72-18.14,36.53-14.88,27.55-28.93,53.57-25.16,81.86,3.36,25.18,25.33,40.17,48.59,56,14.9,10.17,30.32,20.69,40.71,34.24,9.87,12.87,15.79,29.82,21.5,46.22,9.39,26.9,18.25,52.31,43,62.55,45.41,18.76,94.88,17.36,128.39,12.89,33.19-4.43,58.43-25.34,85.15-47.48,6.87-5.69,14-11.58,21.13-17.07,27.87-21.4,38.39-47.87,51.7-81.39,2.24-5.65,4.56-11.48,7-17.49,17.25-41.73,25-70.26,19.67-110.35-1.86-13.93-1.69-28.63-1.53-42.85.35-30.24.67-58.8-16.65-81.37-16.49-21.48-43.61-28.13-72.33-35.18-14.53-3.56-29.56-7.25-43.54-13-17.41-7.2-34.58-24.14-51.19-40.52C1451.08,1361.36,1429,1339.6,1407.09,1339.6Zm232.19,366.65h0Zm-208.54,146.44c-24.13,0-51.07-3.3-76.75-13.51-23.87-9.48-32.89-34.24-41.61-58.19-5.36-14.72-10.91-29.94-19.83-41.25-9.42-11.93-23.46-21.23-37-30.23-21-13.91-42.72-28.29-46.28-52.43-3.93-26.66,8.78-51,22.24-76.77,5.65-10.81,11.49-22,16-33.38,14.67-36.94,33.15-61.87,63.78-86,12.12-9.56,22.38-26,33.25-43.42,16.16-25.89,32.86-52.66,56.78-56.18,22.59-3.33,44.87,18,66.41,38.73,15.21,14.59,30.93,29.68,46.46,35.85,12.67,5,26.35,8.19,39.59,11.24,26.81,6.19,52.14,12,68,32.19,16.69,21.14,16.75,48.93,16.81,75.81,0,12.91.06,26.26,1.91,38.78,5.49,37.19-1.34,63.69-16.75,102.5h0c-2.19,5.51-4.23,10.86-6.2,16-11.43,30-21.29,55.83-47.08,76.2-6.44,5.08-12.84,10.53-19,15.81-23.37,19.91-47.54,40.5-78.58,45.08A290.57,290.57,0,0,1,1430.74,1852.69Zm-24.72-489a29.91,29.91,0,0,0-4.32.32c-22.66,3.34-39,29.56-54.85,54.92-11,17.62-21.39,34.26-33.88,44.12-30.61,24.16-48.25,48-62.93,84.9-4.57,11.52-10.45,22.76-16.13,33.64-13.25,25.36-25.76,49.31-22,75.09,3.38,22.93,23.63,36.34,45.07,50.54,13.77,9.11,28,18.54,37.69,30.82,9.2,11.65,14.82,27.09,20.25,42,8.91,24.45,17.33,47.55,40,56.58,41.73,16.57,86.93,14.68,117.49,10.17,30.26-4.46,53.06-23.89,77.2-44.46,6.2-5.29,12.62-10.76,19.1-15.87,25.2-19.89,34.47-44.22,46.22-75,2-5.19,4-10.55,6.21-16.07h0c15.24-38.36,22-64.52,16.59-101.09-1.88-12.72-1.91-26.17-1.94-39.17-.06-27.63-.12-53.73-16.22-74.12-15.31-19.39-40.18-25.13-66.51-31.21-13.33-3.07-27.13-6.26-40-11.36-16-6.37-32-21.65-47.35-36.43C1446.17,1383.15,1425.9,1363.69,1406,1363.69Zm216.48,332.19h0Zm-192,133c-20,0-41.74-2.62-62.76-10.31-21.67-7.92-30.37-29.91-38.78-51.18-5.17-13-10.5-26.53-18.76-36.42-8.72-10.44-21.51-18.42-33.89-26.14-19.18-12-39-24.32-42.81-45.92-4.19-23.83,6.61-46,18-69.4,4.8-9.82,9.75-20,13.52-30.28,12.25-33.48,28.2-56.28,55.06-78.71,10.59-8.84,19.38-23.82,28.68-39.67,13.85-23.62,28.17-48,49.57-51.8,20.22-3.56,40.74,15.08,60.57,33.1,14,12.69,28.41,25.81,42.45,30.94,11.46,4.19,23.79,6.68,35.72,9.09,24.2,4.88,47.05,9.5,61.83,27.2,15.5,18.56,16.24,43.48,17,67.58.35,11.56.7,23.51,2.67,34.67,5.83,33.21.37,57.14-12.49,92.31h0c-1.82,5-3.52,9.82-5.16,14.51-9.51,27.14-17.71,50.58-40.34,69.48-5.64,4.71-11.24,9.75-16.65,14.62-20.46,18.43-41.62,37.49-69.35,42.36A256.77,256.77,0,0,1,1430.49,1828.86Zm-27.06-437.51a27.18,27.18,0,0,0-4.59.39c-20.15,3.54-34.14,27.4-47.68,50.48-9.42,16.06-18.33,31.24-29.29,40.4-26.81,22.37-42,44.11-54.24,77.53-3.82,10.44-8.8,20.66-13.62,30.55-11.24,23-21.85,44.76-17.82,67.71,3.59,20.4,22,31.9,41.56,44.07,12.56,7.83,25.55,15.93,34.55,26.71,8.54,10.23,14,23.92,19.2,37.17,8.57,21.65,16.67,42.11,37.18,49.61,37.76,13.81,78.17,11,105.42,6.21,27-4.73,46.88-22.68,68-41.69,5.43-4.89,11.05-10,16.73-14.69,22-18.41,29.75-40.42,39.5-68.28,1.65-4.69,3.35-9.55,5.18-14.55h0c12.69-34.7,18.08-58.29,12.36-90.88-2-11.36-2.36-23.41-2.71-35.07-.73-24.72-1.43-48.07-16.32-65.9-14.16-17-36.56-21.48-60.26-26.27-12-2.42-24.47-4.94-36.12-9.2-14.55-5.32-29.19-18.62-43.36-31.49C1439.3,1408,1421,1391.35,1403.43,1391.35Zm201.35,292.09h0ZM1430.6,1811.61c-16.7,0-34.62-2.08-52.08-7.93-20.07-6.72-28.59-26.64-36.83-45.9-5-11.79-10.26-24-18-32.81-8.22-9.31-20.12-16.28-31.63-23-17.87-10.47-36.34-21.29-40.36-41-4.44-21.72,4.89-42.26,14.77-64,4.13-9.09,8.4-18.5,11.59-28,10.37-31,24.39-52.22,48.41-73.42,9.45-8.34,17.11-22.25,25.21-37,12.09-22,24.59-44.68,44.12-48.67,18.46-3.77,37.71,12.77,56.32,28.77,13.09,11.24,26.62,22.87,39.57,27.21,10.58,3.54,21.92,5.51,32.88,7.41,22.27,3.86,43.31,7.51,57.3,23.36,14.67,16.61,16,39.41,17.24,61.45.61,10.56,1.23,21.48,3.31,31.63,6.18,30.25,1.78,52.29-9.11,84.79h0c-1.54,4.61-3,9.08-4.35,13.41-8,25.08-14.93,46.73-35.18,64.61-5,4.45-10,9.2-14.86,13.79-18.26,17.38-37.14,35.36-62.41,40.51A231,231,0,0,1,1430.6,1811.61Zm-29.44-399.55a24.13,24.13,0,0,0-4.86.48c-18.29,3.74-30.48,25.89-42.26,47.31-8.22,14.94-16,29.05-25.8,37.71-23.94,21.13-37.29,41.38-47.62,72.23-3.23,9.66-7.54,19.13-11.7,28.29-9.69,21.32-18.84,41.46-14.58,62.31,3.78,18.52,20.92,28.55,39.06,39.18,11.7,6.85,23.79,13.94,32.3,23.58,8.08,9.16,13.39,21.56,18.52,33.55,8.37,19.57,16.28,38,35.18,44.38,34.86,11.67,71.72,8.08,96.51,3,24.5-5,42.26-21.91,61.07-39.81,4.84-4.61,9.85-9.38,14.93-13.86,19.68-17.38,26.17-37.68,34.38-63.38,1.39-4.34,2.82-8.83,4.37-13.45,10.73-32,15.07-53.73,9-83.37-2.11-10.35-2.74-21.37-3.35-32-1.3-22.57-2.52-43.89-16.56-59.79-13.35-15.13-33.93-18.7-55.71-22.47-11.07-1.92-22.51-3.91-33.28-7.52-13.46-4.5-27.2-16.31-40.49-27.73C1433.87,1426.6,1417,1412.06,1401.16,1412.06ZM1592,1674h0Zm-161.12,117a143.71,143.71,0,0,1-41.81-5.86c-18.11-5.52-26.2-23.09-34-40.07-4.78-10.37-9.72-21.1-16.86-28.75-7.53-8.08-18.29-14-28.7-19.71-16.2-8.9-33-18.1-37-35.63-4.5-19.3,3.32-37.84,11.59-57.47a262.12,262.12,0,0,0,9.64-25.23c8.48-27.85,20.47-47.16,41.37-66.66,8.2-7.64,14.67-20.21,21.52-33.51,10.24-19.9,20.84-40.47,38.2-44.52,16.43-3.83,34,10.46,51,24.28,11.92,9.68,24.25,19.7,35.87,23.24,9.49,2.89,19.64,4.36,29.45,5.79,20,2.9,38.81,5.64,51.7,19.45,13.51,14.48,15.23,34.78,16.9,54.41.8,9.39,1.63,19.09,3.72,28.07,6.25,26.83,2.87,46.59-6,75.84l-1.32-.4,1.32.4c-1.26,4.14-2.43,8.16-3.55,12-6.53,22.55-12.17,42-29.8,58.48-4.38,4.09-8.7,8.44-12.89,12.65-15.86,15.95-32.25,32.43-54.68,37.66A203.16,203.16,0,0,1,1430.84,1791Zm-30.56-355.29a21.46,21.46,0,0,0-4.92.56c-16.13,3.75-26.43,23.76-36.39,43.1-7,13.52-13.54,26.29-22.09,34.27-20.78,19.38-32.17,37.73-40.61,65.44a265.87,265.87,0,0,1-9.73,25.5c-8.1,19.21-15.75,37.35-11.46,55.78,3.81,16.33,19.29,24.83,35.69,33.84,10.59,5.82,21.55,11.84,29.38,20.25,7.44,8,12.48,18.9,17.35,29.47,7.92,17.19,15.41,33.43,32.33,38.58,31.31,9.54,64,5.44,86,.33,21.66-5,37.06-20.53,53.36-36.92,4.2-4.23,8.55-8.6,13-12.72,17.08-15.93,22.35-34.16,29-57.24,1.12-3.9,2.29-7.93,3.56-12.08h0c8.76-28.78,12.09-48.19,6-74.41-2.14-9.18-3-19-3.78-28.47-1.7-20-3.31-39-16.17-52.76-12.23-13.11-30.62-15.78-50.09-18.61-9.91-1.44-20.16-2.93-29.85-5.88-12.13-3.69-24.67-13.89-36.8-23.74C1429.29,1448.08,1414.12,1435.75,1400.28,1435.75Zm31,336.94a125.83,125.83,0,0,1-33.3-4.26c-16.33-4.49-24-20-31.39-34.94-4.5-9.11-9.16-18.53-15.69-25.15-6.9-7-16.62-12-26-16.83-14.67-7.55-29.85-15.35-33.94-30.93-4.48-17.12,2-33.85,8.93-51.57a231.8,231.8,0,0,0,8-22.69c6.89-25,17.1-42.57,35.26-60.46,7.1-7,12.55-18.34,18.32-30.35,8.65-18,17.6-36.62,33-40.67,14.61-3.83,30.65,8.49,46.16,20.4,10.85,8.33,22.06,16.94,32.47,19.8,8.52,2.34,17.59,3.41,26.35,4.44,17.88,2.09,34.77,4.07,46.63,16.1,12.42,12.61,14.46,30.67,16.43,48.14.94,8.34,1.91,17,4,24.9,6.23,23.78,3.7,41.48-3.52,67.78-1,3.71-2,7.32-2.87,10.81-5.27,20.28-9.82,37.79-25.15,52.91-3.79,3.74-7.54,7.72-11.17,11.57-13.75,14.61-28,29.72-47.86,34.93A178.25,178.25,0,0,1,1431.24,1772.69ZM1400,1456.88a19.38,19.38,0,0,0-4.91.62c-14.21,3.72-22.88,21.76-31.26,39.2-5.88,12.23-11.43,23.78-18.87,31.11-18,17.76-27.7,34.37-34.54,59.23a233.65,233.65,0,0,1-8,23c-6.73,17.29-13.09,33.61-8.83,49.87,3.78,14.4,17.75,21.58,32.54,29.19,9.59,4.93,19.51,10,26.72,17.34,6.84,6.94,11.59,16.56,16.2,25.87,7.46,15.08,14.51,29.34,29.65,33.5,28.09,7.72,57.11,3.27,76.52-1.82,19.12-5,32.45-19.17,46.55-34.15,3.64-3.87,7.41-7.87,11.24-11.65,14.79-14.58,19-30.94,24.42-51.64.91-3.5,1.85-7.12,2.88-10.85h0c9-32.91,8.28-48.17,3.51-66.35-2.14-8.14-3.12-16.85-4.07-25.29-2-17.79-3.9-34.59-15.66-46.52-11.18-11.34-27.6-13.26-45-15.3-8.87-1-18-2.12-26.76-4.52-10.92-3-22.36-11.78-33.41-20.27C1425.72,1467.3,1412.15,1456.88,1400,1456.88Zm31.71,299.45a110.51,110.51,0,0,1-26.26-3c-14.72-3.62-21.93-17.25-28.91-30.43-4.23-8-8.61-16.26-14.57-22-6.3-6-15.06-10.25-23.55-14.32-13.29-6.38-27-13-31.07-26.82-4.43-15.19,1-30.27,6.69-46.25a209.6,209.6,0,0,0,6.54-20.4c5.52-22.51,14.2-38.38,30-54.79,6.13-6.38,10.7-16.61,15.54-27.43,7.29-16.29,14.82-33.12,28.54-37.13,13-3.79,27.61,6.81,41.75,17.07,9.85,7.14,20,14.53,29.35,16.82,7.64,1.87,15.74,2.6,23.57,3.3,16,1.43,31.12,2.78,42,13.24,11.41,11,13.67,27,15.86,42.57,1,7.4,2.12,15,4.16,22.06,6.15,21.06,4.33,36.92-1.47,60.55-.82,3.33-1.56,6.57-2.29,9.7-4.2,18.21-7.83,33.94-21.14,47.81-3.29,3.43-6.53,7.06-9.67,10.58-11.9,13.37-24.21,27.19-41.84,32.34A156.92,156.92,0,0,1,1431.73,1756.33Zm-31.47-280.62a17.16,17.16,0,0,0-4.85.67c-12.5,3.65-19.77,19.9-26.8,35.61-4.94,11-9.6,21.49-16.07,28.22-15.6,16.24-23.8,31.25-29.27,53.54a212.59,212.59,0,0,1-6.62,20.67c-5.56,15.54-10.82,30.22-6.64,44.55,3.7,12.67,16.29,18.71,29.62,25.11,8.68,4.16,17.65,8.47,24.26,14.82,6.28,6,10.77,14.5,15.1,22.68,7,13.23,13.61,25.73,27.14,29.05,25.18,6.17,50.9,1.51,68-3.49,16.87-4.93,28.38-17.85,40.56-31.53,3.15-3.53,6.41-7.19,9.73-10.65,12.79-13.33,16.17-28,20.46-46.53.72-3.14,1.47-6.39,2.29-9.74,5.68-23.15,7.48-38.65,1.5-59.12-2.1-7.2-3.19-15-4.24-22.44-2.22-15.77-4.32-30.67-15-41-10.2-9.79-24.85-11.1-40.36-12.49-7.93-.71-16.13-1.45-24-3.37-9.83-2.41-20.25-10-30.32-17.27C1423,1484.5,1410.88,1475.71,1400.26,1475.71ZM1548.55,1649h0Zm-116.29,92.72a96.58,96.58,0,0,1-20.45-2.11c-13.26-2.87-20-14.87-26.6-26.47-4-7-8-14.25-13.48-19.19-5.74-5.21-13.65-8.75-21.29-12.16-12-5.37-24.46-10.92-28.42-23.22-4.33-13.46.12-27.06,4.83-41.45a188,188,0,0,0,5.32-18.32c4.37-20.21,11.72-34.59,25.38-49.61,5.29-5.82,9.11-15,13.15-24.78,6.1-14.71,12.41-29.93,24.6-33.85,11.55-3.72,24.86,5.39,37.74,14.2,8.94,6.11,18.19,12.44,26.51,14.24,6.84,1.48,14.06,1.92,21,2.36,14.32.88,27.85,1.72,37.85,10.81,10.47,9.51,12.88,23.8,15.22,37.61a140.57,140.57,0,0,0,4.24,19.53c6,18.65,4.77,32.83.18,54.05h0c-.65,3-1.23,5.88-1.8,8.69-3.3,16.35-6.15,30.47-17.7,43.19-2.85,3.13-5.64,6.44-8.35,9.65-10.29,12.22-20.93,24.85-36.55,29.88C1462.83,1738.29,1448.09,1741.74,1432.26,1741.74Zm-31.38-249.26a15.14,15.14,0,0,0-4.74.72c-11,3.53-17,18.15-22.9,32.29-4.14,10-8,19.4-13.66,25.57-13.47,14.83-20.41,28.38-24.73,48.34a188.08,188.08,0,0,1-5.39,18.6c-4.57,14-8.88,27.13-4.82,39.75,3.58,11.13,14.92,16.19,26.92,21.55,7.84,3.5,16,7.12,22,12.64,5.76,5.23,10,12.67,14,19.87,6.54,11.58,12.72,22.52,24.79,25.14,22.55,4.88,45.31.09,60.44-4.78,14.88-4.78,24.8-16.56,35.3-29,2.72-3.23,5.53-6.57,8.41-9.73,11-12.15,13.69-25.27,17-41.88.57-2.82,1.16-5.73,1.81-8.73,4.49-20.74,5.7-34.58-.11-52.63a144.26,144.26,0,0,1-4.34-19.91c-2.35-14-4.58-27.16-14.35-36-9.29-8.44-22.35-9.24-36.17-10.1-7.09-.44-14.42-.89-21.46-2.41-8.85-1.92-18.32-8.4-27.48-14.66C1421,1499.87,1410.19,1492.48,1400.88,1492.48Zm135.86,150.61h0Zm-103.94,85.63a84.86,84.86,0,0,1-15.67-1.41c-12-2.25-18.3-12.8-24.44-23-3.7-6.14-7.51-12.48-12.46-16.73-5.22-4.49-12.33-7.44-19.22-10.29-10.87-4.5-22.12-9.15-26-20.07-4.21-11.94-.57-24.18,3.28-37.14a163.84,163.84,0,0,0,4.28-16.43c3.41-18.15,9.62-31.15,21.43-44.89,4.55-5.3,7.72-13.58,11.08-22.35,5.09-13.29,10.35-27,21.18-30.85,10.26-3.62,22.38,4.19,34.1,11.74,8.1,5.22,16.48,10.62,23.91,12a126.57,126.57,0,0,0,18.78,1.59c12.81.44,24.9.85,34.08,8.73,9.6,8.26,12.1,20.95,14.52,33.23a126.64,126.64,0,0,0,4.26,17.27c5.81,16.49,5.06,29.18,1.49,48.22h0c-.51,2.68-1,5.27-1.39,7.79-2.55,14.66-4.75,27.33-14.75,39-2.45,2.85-4.86,5.88-7.19,8.8-8.88,11.15-18.07,22.68-31.9,27.56C1462,1725.06,1447.93,1728.72,1432.8,1728.72Zm-31-221.32a13.89,13.89,0,0,0-4.59.75c-9.63,3.4-14.66,16.54-19.52,29.24-3.45,9-6.7,17.5-11.56,23.16-11.63,13.52-17.46,25.74-20.82,43.6a165.78,165.78,0,0,1-4.35,16.71c-3.72,12.52-7.23,24.35-3.32,35.44,3.44,9.76,13.63,14,24.43,18.45,7.08,2.93,14.4,6,20,10.74,5.27,4.54,9.21,11.08,13,17.4,6.1,10.13,11.86,19.69,22.6,21.71,20.18,3.79,40.31-1,53.65-5.72,13.1-4.62,21.63-15.34,30.67-26.68,2.34-3,4.77-6,7.26-8.88,9.5-11.07,11.54-22.8,14.12-37.65.44-2.53.89-5.14,1.39-7.83h0c3.49-18.56,4.23-30.89-1.38-46.8a128.12,128.12,0,0,1-4.35-17.65c-2.44-12.36-4.74-24-13.63-31.67-8.44-7.25-20.06-7.65-32.37-8.07a129.45,129.45,0,0,1-19.2-1.63c-8-1.5-16.57-7-24.89-12.41C1419.57,1513.59,1410,1507.4,1401.8,1507.4Zm124.29,130.7h0Zm-92.76,79a74.68,74.68,0,0,1-11.76-.91c-10.77-1.72-16.7-11-22.44-20-3.43-5.37-7-10.91-11.47-14.56-4.74-3.86-11.14-6.31-17.33-8.67-9.83-3.76-20-7.64-23.72-17.33-4-10.58-1.11-21.6,2-33.26a148.9,148.9,0,0,0,3.4-14.73c2.6-16.27,7.82-28,18-40.58,3.91-4.81,6.52-12.25,9.29-20.14,4.22-12,8.58-24.4,18.2-28.09,9.13-3.5,20.14,3.18,30.79,9.64,7.34,4.44,14.92,9,21.54,10.1a111.56,111.56,0,0,0,16.76.94c11.44.08,22.25.15,30.66,7,8.79,7.16,11.34,18.43,13.8,29.33a113.58,113.58,0,0,0,4.21,15.26c5.6,14.58,5.24,25.92,2.52,43h0c-.39,2.39-.72,4.71-1,7-1.91,13.15-3.56,24.51-12.21,35.15-2.12,2.61-4.19,5.36-6.19,8-7.65,10.17-15.56,20.68-27.81,25.38C1461.06,1713.29,1447.69,1717.1,1433.33,1717.1ZM1403,1520.67a12.19,12.19,0,0,0-4.43.78c-8.43,3.23-12.57,15-16.58,26.44-2.85,8.11-5.55,15.78-9.76,20.95-10,12.31-14.89,23.32-17.44,39.28a149.38,149.38,0,0,1-3.47,15c-3,11.22-5.84,21.82-2.1,31.56,3.28,8.55,12.44,12,22.13,15.75,6.39,2.44,13,5,18.08,9.1,4.83,3.93,8.51,9.67,12.06,15.22,5.66,8.84,11,17.19,20.56,18.72,18,2.88,35.82-1.9,47.57-6.41,11.51-4.41,18.84-14.15,26.6-24.46,2-2.69,4.1-5.46,6.25-8.1,8.18-10.06,9.7-20.54,11.63-33.81.33-2.27.66-4.6,1-7l1.36.22-1.36-.22c2.65-16.59,3-27.58-2.37-41.58a115.12,115.12,0,0,1-4.32-15.64c-2.47-10.92-4.8-21.24-12.86-27.79-7.65-6.22-18-6.29-28.94-6.37a115.14,115.14,0,0,1-17.17-1c-7.15-1.14-15-5.88-22.53-10.46C1418.62,1525.84,1410.1,1520.67,1403,1520.67Zm30.85,186.07a65.25,65.25,0,0,1-8.55-.55c-9.7-1.28-15.24-9.42-20.59-17.29-3.18-4.69-6.47-9.53-10.54-12.66-4.3-3.3-10.05-5.32-15.61-7.27-8.88-3.12-18.06-6.34-21.63-15-3.9-9.36-1.54-19.27,1-29.76a132.25,132.25,0,0,0,2.68-13.19c1.91-14.59,6.29-25.21,15.09-36.67,3.35-4.35,5.49-11,7.76-18.12,3.47-10.82,7.07-22,15.61-25.56,8.11-3.37,18.12,2.33,27.8,7.84,6.63,3.77,13.48,7.67,19.38,8.45a100.3,100.3,0,0,0,14.92.43c10.22-.21,19.88-.41,27.58,5.5,8,6.19,10.6,16.19,13.07,25.86a98.79,98.79,0,0,0,4.12,13.47c5.35,12.89,5.31,23,3.3,38.32-.28,2.15-.52,4.22-.76,6.23-1.38,11.78-2.58,22-10.05,31.69-1.82,2.37-3.6,4.87-5.31,7.29-6.58,9.26-13.38,18.84-24.22,23.34C1460,1702.8,1447.38,1706.74,1433.81,1706.74Zm-29.53-174.27a11,11,0,0,0-4.24.79c-7.36,3.06-10.76,13.64-14,23.86-2.35,7.32-4.56,14.22-8.2,19-8.6,11.18-12.67,21.09-14.55,35.35a130.34,130.34,0,0,1-2.72,13.46c-2.39,10-4.66,19.54-1.11,28.08,3.11,7.47,11.32,10.35,20,13.4,5.77,2,11.73,4.12,16.38,7.69,4.42,3.4,7.83,8.43,11.14,13.29,5.24,7.71,10.19,15,18.67,16.11,16.1,2.12,31.81-2.56,42.15-6.86,10.1-4.2,16.38-13,23-22.39,1.74-2.45,3.53-5,5.38-7.38,7-9.12,8.11-18.48,9.5-30.33.24-2,.48-4.11.76-6.26h0c2-15.14,2-24.53-3.11-36.91a100.8,100.8,0,0,1-4.24-13.85c-2.46-9.64-4.79-18.75-12.09-24.36-6.93-5.32-16.11-5.13-25.84-4.93a102.35,102.35,0,0,1-15.34-.46c-6.43-.84-13.52-4.88-20.38-8.78C1418.08,1536.76,1410.53,1532.47,1404.28,1532.47Zm30,165a57.07,57.07,0,0,1-6-.31c-8.74-.9-13.89-8-18.86-15-3-4.08-6-8.31-9.67-11-3.9-2.82-9-4.48-14-6.07-8-2.57-16.31-5.23-19.74-12.87-3.71-8.29-1.85-17.2.13-26.63a115.51,115.51,0,0,0,2.05-11.8c1.36-13.07,5-22.66,12.58-33.1,2.86-3.94,4.6-9.94,6.45-16.29,2.83-9.75,5.77-19.84,13.35-23.24,7.21-3.24,16.3,1.61,25.09,6.3,6,3.19,12.18,6.49,17.42,7a86.57,86.57,0,0,0,13.28,0c9.13-.44,17.75-.85,24.8,4.25,7.36,5.35,9.89,14.22,12.33,22.8a89.54,89.54,0,0,0,4,11.88c5.1,11.38,5.31,20.43,3.9,34.13h0c-.2,1.92-.37,3.77-.53,5.57-.94,10.55-1.76,19.67-8.2,28.55-1.56,2.15-3.09,4.42-4.56,6.62-5.64,8.43-11.48,17.14-21.06,21.43C1458.87,1693.47,1447,1697.49,1434.26,1697.49Zm-28.55-154.55a9.87,9.87,0,0,0-4,.8c-6.42,2.88-9.18,12.35-11.84,21.51-1.92,6.59-3.73,12.8-6.87,17.13-7.36,10.15-10.74,19.06-12.06,31.77a117.85,117.85,0,0,1-2.1,12.09c-1.88,9-3.66,17.46-.31,24.94,2.93,6.52,10.28,8.87,18.06,11.37,5.2,1.66,10.57,3.38,14.82,6.47,4,2.93,7.22,7.33,10.29,11.6,4.83,6.71,9.4,13.05,16.92,13.83,14.36,1.48,28.21-3.06,37.3-7.14,8.86-4,14.22-12,19.9-20.45,1.48-2.22,3-4.51,4.61-6.71,6-8.27,6.75-16.61,7.69-27.18.16-1.81.33-3.67.53-5.6,1.4-13.51,1.21-21.85-3.67-32.72a91.33,91.33,0,0,1-4.12-12.25c-2.42-8.51-4.71-16.54-11.31-21.33-6.26-4.54-14.41-4.15-23-3.73a90.69,90.69,0,0,1-13.69,0c-5.78-.6-12.21-4-18.43-7.34C1417.85,1546.5,1411.18,1542.94,1405.71,1542.94Zm94.28,84.57h0Zm-65.25,59.8c-1.12,0-2.25,0-3.39-.11-7.68-.53-12.37-6.59-16.91-12.46-2.66-3.43-5.41-7-8.65-9.17-3.43-2.31-7.93-3.59-12.28-4.82-7-2-14.34-4-17.57-10.64-3.49-7.12-2.07-15.27-.7-23.16a101.81,101.81,0,0,0,1.42-10.25c.79-11.39,3.66-19.82,9.93-29.11,2.34-3.47,3.67-8.7,5.07-14.23,2.18-8.57,4.43-17.43,11-20.63,6.22-3.06,14.27.89,22,4.7,5.26,2.58,10.7,5.24,15.22,5.56a78.5,78.5,0,0,0,11.46-.38c7.58-.63,15.4-1.28,21.71,3,6.58,4.44,9,12.08,11.42,19.46a76,76,0,0,0,3.8,10.13c4.77,9.74,5.22,17.58,4.4,29.52h0c-.12,1.66-.2,3.26-.29,4.82-.5,9.19-.94,17.13-6.28,25-1.28,1.91-2.53,3.92-3.74,5.86-4.64,7.48-9.45,15.23-17.66,19.25C1457.39,1683.25,1446.5,1687.31,1434.74,1687.31Zm-27.13-132.92a8.46,8.46,0,0,0-3.77.81c-5.4,2.64-7.49,10.88-9.51,18.84-1.47,5.77-2.85,11.22-5.46,15.08-6,9-8.7,16.76-9.46,27.77a104.59,104.59,0,0,1-1.46,10.53c-1.36,7.8-2.64,15.16.46,21.48,2.69,5.48,9.08,7.29,15.85,9.21,4.56,1.29,9.28,2.62,13.07,5.18,3.6,2.43,6.49,6.16,9.29,9.77,4.35,5.63,8.47,11,14.92,11.39,12.42.86,24.24-3.47,32-7.26,7.5-3.68,11.89-10.75,16.54-18.23,1.22-2,2.48-4,3.79-5.94,4.92-7.29,5.31-14.51,5.81-23.66.09-1.57.18-3.19.3-4.86.8-11.7.39-18.89-4.13-28.12a78.87,78.87,0,0,1-4-10.5c-2.34-7.26-4.54-14.11-10.34-18-5.5-3.71-12.51-3.13-19.94-2.51a79.62,79.62,0,0,1-11.88.38c-5.06-.35-10.74-3.13-16.24-5.83S1412.23,1554.39,1407.61,1554.39Zm83.71,70.2h0ZM1435,1680.05c-.69,0-1.4,0-2.1,0-6.91-.33-11.21-5.66-15.38-10.82-2.42-3-4.93-6.1-7.83-8-3.07-2-7.08-3-11-4-6.35-1.65-12.9-3.36-15.93-9.22-3.26-6.32-2.14-13.62-1.06-20.69a90.54,90.54,0,0,0,1.08-9.13,49,49,0,0,1,8.32-26.15c2-3.11,3.08-7.77,4.23-12.7,1.78-7.69,3.63-15.65,9.45-18.66,5.54-2.86,12.81.52,19.84,3.78,4.71,2.19,9.59,4.46,13.58,4.65a68.14,68.14,0,0,0,10.17-.55c6.75-.7,13.73-1.42,19.46,2.27,6,3.86,8.32,10.63,10.58,17.18a68.05,68.05,0,0,0,3.55,8.93c4.44,8.6,5,15.58,4.48,26.25-.07,1.47-.12,2.9-.17,4.29-.28,8.21-.52,15.29-5.15,22.47-1.11,1.71-2.18,3.52-3.21,5.27-4,6.76-8.16,13.76-15.43,17.51C1455.82,1676.1,1445.8,1680.05,1435,1680.05Zm-25.43-117.75a7.49,7.49,0,0,0-3.49.77c-4.69,2.42-6.39,9.75-8,16.83-1.2,5.18-2.33,10.06-4.59,13.57-5.21,8.07-7.42,15-7.89,24.8a91.2,91.2,0,0,1-1.1,9.41c-1.06,6.94-2.06,13.49.79,19,2.46,4.76,8.15,6.25,14.17,7.82,4.09,1.06,8.32,2.17,11.76,4.38,3.28,2.12,5.92,5.39,8.48,8.56,4,4.9,7.7,9.53,13.37,9.81,11,.52,21.45-3.54,28.23-7,6.57-3.38,10.33-9.74,14.32-16.46,1-1.77,2.13-3.6,3.26-5.36,4.22-6.54,4.44-13,4.72-21.07,0-1.4.1-2.84.17-4.34h0c.5-10.39,0-16.76-4.17-24.85a70.26,70.26,0,0,1-3.71-9.29c-2.21-6.39-4.29-12.42-9.47-15.77-4.92-3.17-11.12-2.52-17.69-1.84a71.57,71.57,0,0,1-10.58.56c-4.53-.22-9.66-2.6-14.61-4.9S1413.55,1562.3,1409.52,1562.3Zm25.5,107.1h-1c-5.77-.16-9.42-4.5-13-8.69-2.11-2.5-4.1-4.87-6.47-6.33s-5.79-2.33-9-3.09c-5.27-1.26-10.72-2.56-13.34-7.4-2.81-5.18-2-11.21-1.25-17a72.4,72.4,0,0,0,.72-7.46,40.34,40.34,0,0,1,6.4-21.66c1.57-2.54,2.37-6.34,3.22-10.38,1.34-6.38,2.73-13,7.54-15.58,4.59-2.49,10.65.17,16.51,2.75,3.87,1.7,7.87,3.46,11.09,3.55a56.35,56.35,0,0,0,8.27-.62c5.55-.69,11.29-1.41,16.11,1.56,5,3.1,7.08,8.64,9,14a55.86,55.86,0,0,0,3,7.21c3.8,7,4.37,12.74,4.13,21.51h0c0,1.21-.05,2.38-.06,3.52-.09,6.75-.17,12.58-3.87,18.59-.88,1.41-1.72,2.9-2.53,4.35-3.19,5.63-6.48,11.45-12.42,14.68C1452.71,1665.87,1444.23,1669.4,1435,1669.4Zm-21.86-95.88a5.91,5.91,0,0,0-2.9.66c-3.69,2-5,8-6.16,13.73-.9,4.27-1.75,8.31-3.56,11.25a37.26,37.26,0,0,0-6,20.29,73,73,0,0,1-.75,7.74c-.74,5.65-1.44,11,.94,15.38,2,3.76,6.67,4.87,11.57,6,3.38.8,6.88,1.64,9.76,3.41s5,4.35,7.14,6.91c3.28,3.9,6.38,7.58,10.91,7.71,9,.23,17.38-3.24,22.84-6.2,5.26-2.85,8.21-8.08,11.34-13.61.83-1.47,1.69-3,2.58-4.44,3.31-5.37,3.38-10.58,3.47-17.19,0-1.15,0-2.33.06-3.55.24-8.46-.27-13.63-3.8-20.13a58.39,58.39,0,0,1-3.2-7.57c-1.9-5.15-3.69-10-7.91-12.61-4-2.46-9-1.83-14.33-1.17a58.1,58.1,0,0,1-8.69.63c-3.76-.1-8-2-12.12-3.78C1420.41,1575.29,1416.38,1573.52,1413.16,1573.52Zm62.62,48.17h0Zm-40.63,38.45c-4.77,0-7.84-3.46-10.81-6.8a23.75,23.75,0,0,0-5.29-4.9,25.17,25.17,0,0,0-7.21-2.26c-4.32-.9-8.8-1.84-11.08-5.78-2.42-4.18-1.91-9.1-1.41-13.86.2-2,.41-4,.41-6a32.72,32.72,0,0,1,4.71-17.7c1.18-2,1.74-5.1,2.33-8.34,1-5.23,1.93-10.63,5.85-12.9,3.76-2.18,8.76-.14,13.59,1.83,3.13,1.27,6.37,2.59,8.91,2.59a43.58,43.58,0,0,0,6.6-.68c4.5-.68,9.16-1.39,13.18.94,4.2,2.43,6,6.89,7.71,11.2a44.78,44.78,0,0,0,2.59,5.7c3.25,5.61,3.84,10.25,3.84,17.36,0,1,0,1.92,0,2.83.07,5.48.14,10.21-2.74,15.19-.67,1.16-1.32,2.38-1.94,3.56-2.46,4.63-5,9.42-9.78,12.19C1450.05,1657,1442.94,1660.14,1435.15,1660.14Zm-18.73-76.73a4.7,4.7,0,0,0-2.39.57c-2.82,1.63-3.69,6.4-4.53,11-.6,3.33-1.23,6.77-2.65,9.22a29.81,29.81,0,0,0-4.34,16.33,61.67,61.67,0,0,1-.43,6.28c-.47,4.52-.91,8.79,1.06,12.2,1.67,2.88,5.36,3.65,9.27,4.47a27,27,0,0,1,8,2.57,25.82,25.82,0,0,1,6,5.46c2.69,3,5.23,5.87,8.76,5.87,7.18,0,13.81-3,18.12-5.46,4.09-2.37,6.34-6.61,8.72-11.1.63-1.2,1.29-2.45,2-3.65,2.5-4.32,2.44-8.49,2.37-13.77,0-.93,0-1.88,0-2.87,0-6.77-.52-10.88-3.47-16a45.85,45.85,0,0,1-2.76-6.06c-1.62-4.06-3.16-7.89-6.53-9.84-3.19-1.85-7.18-1.24-11.39-.6a46.64,46.64,0,0,1-7,.71c-3.08,0-6.57-1.42-9.94-2.8C1422.1,1584.71,1418.92,1583.41,1416.42,1583.41Zm18.48,68.34c-3.85,0-6.41-2.87-8.67-5.41a18.14,18.14,0,0,0-4.06-3.77,19.45,19.45,0,0,0-5.54-1.73c-3.44-.72-7-1.47-8.86-4.66-1.94-3.36-1.53-7.25-1.14-11a45.79,45.79,0,0,0,.32-4.66,25.85,25.85,0,0,1,3.72-14c.9-1.54,1.35-4,1.78-6.42.76-4.15,1.54-8.44,4.73-10.28s7-.16,10.88,1.41c2.42,1,4.92,2,6.84,2a34.44,34.44,0,0,0,5.12-.52c3.57-.55,7.26-1.11,10.49.76,3.38,2,4.79,5.49,6.16,8.91a33.42,33.42,0,0,0,2,4.41c2.57,4.44,3,8.11,3,13.72,0,.76,0,1.5,0,2.21.06,4.32.11,8.06-2.18,12-.52.91-1,1.84-1.51,2.77-1.94,3.66-3.94,7.44-7.75,9.65C1446.67,1649.25,1441.06,1651.75,1434.9,1651.75Zm-14.63-60a3.42,3.42,0,0,0-1.72.4c-2.08,1.2-2.75,4.86-3.39,8.4-.48,2.62-1,5.34-2.11,7.3a23,23,0,0,0-3.35,12.61,47.08,47.08,0,0,1-.34,4.94c-.36,3.48-.7,6.77.79,9.35,1.24,2.13,4.06,2.72,7,3.35a21.36,21.36,0,0,1,6.35,2,20.38,20.38,0,0,1,4.73,4.32c2.06,2.31,4,4.49,6.62,4.49,5.55,0,10.68-2.3,14-4.22,3.13-1.81,4.86-5.09,6.7-8.56.51-1,1-1.92,1.56-2.86,1.91-3.3,1.87-6.53,1.81-10.61,0-.72,0-1.47,0-2.24,0-5.23-.4-8.42-2.67-12.34a37.86,37.86,0,0,1-2.18-4.77c-1.24-3.12-2.42-6.07-5-7.55s-5.47-.92-8.71-.42a37.14,37.14,0,0,1-5.53.55c-2.46,0-5.22-1.12-7.88-2.2C1424.62,1592.8,1422.16,1591.8,1420.27,1591.8Zm14.35,50.34c-2.82,0-4.62-2-6.22-3.82a12,12,0,0,0-2.65-2.47,12.7,12.7,0,0,0-3.63-1.13c-2.33-.49-5-1-6.31-3.38s-1.11-5.12-.84-7.75a29.93,29.93,0,0,0,.22-3.11,17.94,17.94,0,0,1,2.59-9.73,14.87,14.87,0,0,0,1.15-4.22c.54-2.92,1.08-5.94,3.43-7.29s5.07-.17,7.78.93a14.12,14.12,0,0,0,4.48,1.33,23.62,23.62,0,0,0,3.41-.35c2.5-.38,5.09-.78,7.42.57s3.41,3.88,4.37,6.27a22.23,22.23,0,0,0,1.33,2.94c1.8,3.11,2.13,5.65,2.13,9.55,0,.51,0,1,0,1.49,0,3,.08,5.6-1.54,8.4-.35.61-.68,1.23-1,1.86-1.34,2.54-2.73,5.17-5.43,6.73A22,22,0,0,1,1434.62,1642.14Zm-9.93-40.74a1.84,1.84,0,0,0-1,.22c-1.24.71-1.67,3.1-2.09,5.4a16.41,16.41,0,0,1-1.48,5.11,15.19,15.19,0,0,0-2.22,8.35c0,1.15-.12,2.29-.23,3.4-.24,2.29-.47,4.45.48,6.08.74,1.28,2.48,1.65,4.49,2.07a14.87,14.87,0,0,1,4.45,1.44,14.23,14.23,0,0,1,3.32,3c1.39,1.56,2.59,2.9,4.17,2.9a19.22,19.22,0,0,0,9.3-2.81c2-1.16,3.17-3.34,4.38-5.63.35-.66.7-1.32,1.07-2,1.24-2.14,1.21-4.18,1.17-7,0-.5,0-1,0-1.53,0-3.48-.26-5.59-1.76-8.17a25.6,25.6,0,0,1-1.5-3.3c-.82-2-1.6-4-3.2-4.91s-3.41-.57-5.62-.23a26.57,26.57,0,0,1-3.83.38,15.76,15.76,0,0,1-5.52-1.53A14,14,0,0,0,1424.69,1601.4Zm9.73,33.95c-2.08,0-3.41-1.5-4.49-2.7a7.62,7.62,0,0,0-1.65-1.56,8.37,8.37,0,0,0-2.29-.7c-1.64-.34-3.5-.73-4.51-2.47s-.8-3.62-.61-5.44c.07-.71.14-1.38.14-2a12.36,12.36,0,0,1,1.79-6.71,9.87,9.87,0,0,0,.72-2.67c.35-2,.75-4.17,2.5-5.17s3.77-.15,5.59.59a9.08,9.08,0,0,0,2.81.85,14.82,14.82,0,0,0,2.21-.23c1.66-.25,3.55-.54,5.24.44s2.47,2.82,3.11,4.41a16.1,16.1,0,0,0,.86,1.9,11.82,11.82,0,0,1,1.48,6.59c0,.34,0,.67,0,1a10.39,10.39,0,0,1-1.09,5.83c-.23.41-.45.82-.67,1.23-.89,1.67-1.89,3.56-3.8,4.67A15.07,15.07,0,0,1,1434.42,1635.35Zm-6.62-27.16a.83.83,0,0,0-.41.09c-.64.37-.93,2-1.17,3.28a11.22,11.22,0,0,1-1,3.55,9.75,9.75,0,0,0-1.42,5.34,21.48,21.48,0,0,1-.16,2.31c-.15,1.52-.29,2.83.26,3.79.37.63,1.26.85,2.7,1.15a10.43,10.43,0,0,1,3.1,1,10,10,0,0,1,2.33,2.11c1,1.11,1.64,1.78,2.43,1.78a12.35,12.35,0,0,0,6-1.81c1.23-.71,2-2.1,2.75-3.57.23-.45.47-.89.72-1.33.76-1.31.74-2.61.72-4.41,0-.34,0-.68,0-1a9.07,9.07,0,0,0-1.11-5.21,18.16,18.16,0,0,1-1-2.26c-.54-1.35-1-2.51-1.94-3s-2.06-.31-3.45-.1a17,17,0,0,1-2.62.26,10.72,10.72,0,0,1-3.85-1A9.57,9.57,0,0,0,1427.8,1608.19Zm6.43,20.57a3.78,3.78,0,0,1-2.81-1.61,3.82,3.82,0,0,0-.69-.67,4,4,0,0,0-1-.28,3.77,3.77,0,0,1-2.76-1.59,5.11,5.11,0,0,1-.4-3.21c0-.32.07-.65.07-1a7,7,0,0,1,1-3.78,5.88,5.88,0,0,0,.29-1.16c.2-1.09.44-2.45,1.61-3.13s2.44-.15,3.46.27a5.26,5.26,0,0,0,1.2.39,6.71,6.71,0,0,0,1-.11,4.61,4.61,0,0,1,3.14.31,4.68,4.68,0,0,1,1.88,2.59,7,7,0,0,0,.41.9,6.82,6.82,0,0,1,.85,3.72v.51a5.9,5.9,0,0,1-.65,3.34l-.33.61a6,6,0,0,1-2.21,2.67A8.51,8.51,0,0,1,1434.23,1628.76Zm-3.31-14a10.92,10.92,0,0,0-.26,1.18,6.19,6.19,0,0,1-.61,2,4.32,4.32,0,0,0-.64,2.41,10.52,10.52,0,0,1-.09,1.26,3.3,3.3,0,0,0,0,1.55,3.65,3.65,0,0,0,1,.28,5.69,5.69,0,0,1,1.79.59,5.58,5.58,0,0,1,1.36,1.22c.22.24.62.69.76.69a5.8,5.8,0,0,0,2.74-.84,3.8,3.8,0,0,0,1.16-1.57c.12-.24.25-.48.38-.71a3.37,3.37,0,0,0,.28-1.93v-.54a4.13,4.13,0,0,0-.48-2.35,9.08,9.08,0,0,1-.58-1.24,2.69,2.69,0,0,0-.71-1.24,2.65,2.65,0,0,0-1.34,0,10.49,10.49,0,0,1-1.45.14,6.1,6.1,0,0,1-2.24-.59A7.32,7.32,0,0,0,1430.92,1614.79Z"/></g></g></svg>